<svg xmlns="http://www.w3.org/2000/svg" fill="none" viewBox="0 0 127 36">
  <path fill="#CFD1D7" d="M27.8464.774283C25.8219.305717 22.4941 0 18.7319 0c-3.7621 0-7.0899.305717-9.11444.774283C5.58099 1.62373 2.40231 4.8115 1.55528 8.85949 1.08805 10.8898.783203 14.2271.783203 18c0 3.7729.304847 7.1102.772077 9.1405.84703 4.048 4.02571 7.2358 8.06218 8.0852C11.642 35.6943 14.9698 36 18.7319 36c3.7622 0 7.09-.3057 9.1145-.7743 4.0364-.8494 7.2151-4.0372 8.0622-8.0852.4672-2.0303.772-5.3676.772-9.1405 0-3.7729-.3048-7.1102-.772-9.14051-.8471-4.04799-4.0258-7.23576-8.0622-8.085207Z"/>
  <path fill="#FBFBFD" d="M23.0448 27.6344c-.3406-.8131-1.0636-1.4254-1.9432-1.6105-.5264-.1218-1.3917-.2013-2.3698-.2013-.9782 0-1.8434.0795-2.3698.2013-.8733.1838-1.5923.7887-1.9359 1.5931-.1191.2789-.4047.4492-.7067.4213-.0747-.0069-.1393-.013-.1936-.0184-1.4076-.1406-2.514-.3367-3.1567-.5655-.0011-.0005-.0024-.0011-.0039-.0017-.43131-.1625-.73825-.58-.73825-1.0694 0-.0122.00019-.0243.00057-.0364.00099-.0197.00214-.0398.00346-.0603.00038-.0046.00079-.0092.00123-.0137.00122-.0128.00199-.0252.0023-.0372.10957-1.4691.99929-4.9086 2.32809-8.8344 1.5191-4.488 3.1078-8.12145 3.8242-8.83014.1143-.1194.2463-.2194.3921-.29652.0569-.03261.1291-.06379.2147-.0932.0022-.00077.0045-.00154.0067-.0023.4707-.15963 1.3382-.26654 2.3306-.26654.9942 0 1.8617.10691 2.3315.26625.0031.00105.0053.00182.0076.00259.0856.02941.1577.06059.2147.0932.1458.07712.2777.17712.391.29524.0004.00038.0008.00081.0011.00128.7164.70869 2.3051 4.34214 3.8242 8.83014 1.3288 3.9258 2.2185 7.3653 2.3281 8.8344.0003.012.0011.0244.0023.0372.0004.0045.0008.0091.0012.0137.0013.0205.0025.0406.0035.0603.0003.0121.0005.0242.0005.0364 0 .4894-.3069.9069-.7382 1.0694-.0016.0006-.0028.0012-.0039.0017-.6422.2286-1.7472.4246-3.153.5651-.061.0061-.1347.0131-.2212.021-.2897.0265-.5631-.1379-.6755-.4061Z"/>
  <path fill="#CFD1D7" fill-rule="evenodd" d="M58.12 11.9933h3.4304v15.012H58.12v-2.6378c-1.072 1.871-2.9097 2.9445-5.2987 2.9445-3.9817 0-7.167-3.4966-7.167-7.8213 0-4.3248 3.1853-7.7907 7.167-7.7907 2.389 0 4.2267 1.0735 5.2987 2.9445v-2.6512Zm51.358 0h3.43v15.012h-3.43v-2.6378c-1.072 1.871-2.91 2.9445-5.299 2.9445-3.982 0-7.167-3.4966-7.167-7.8213 0-4.3248 3.185-7.7907 7.167-7.7907 2.389 0 4.227 1.0735 5.299 2.9445v-2.6512ZM53.633 24.0496c2.6034 0 4.5636-1.963 4.5636-4.5701 0-2.5765-1.9602-4.5395-4.5636-4.5395-2.5421 0-4.5636 2.0244-4.5636 4.5395 0 2.5457 2.0215 4.5701 4.5636 4.5701Zm51.178 0c2.603 0 4.564-1.963 4.564-4.5701 0-2.5765-1.961-4.5395-4.564-4.5395-2.542 0-4.564 2.0244-4.564 4.5395 0 2.5457 2.022 4.5701 4.564 4.5701ZM66.6864 4.5c1.1945 0 2.2052 1.01218 2.2052 2.17771 0 1.22688-1.0107 2.20839-2.2052 2.20839-1.1945 0-2.1746-.98151-2.1746-2.20839 0-1.16553.9801-2.17771 2.1746-2.17771Zm-1.6845 7.452h3.3997v15.012h-3.3997V11.952Zm14.0789-.2933c.6549 0 1.2856.0974 1.7402.2705.2676.1018.5037.2144.687.3095l-1.3835 2.9004c-.4359-.1324-.9083-.1985-1.3806-.1985-1.6539 0-3.4916 1.3802-3.4916 4.018v8.0054h-3.3997V11.952h3.3997v2.1604c.6738-1.4416 2.3584-2.4537 3.8285-2.4537Zm17.0746 11.502c-1.1333 2.4844-3.7673 4.11-6.8914 4.11-4.4411 0-7.8408-3.3432-7.8408-7.7907 0-4.4474 3.3691-7.8213 7.8102-7.8213 2.9097 0 5.3599 1.4416 6.4626 3.6499l-2.8791 1.6257c-.6126-1.1963-1.9602-1.9937-3.5835-1.9937-2.5728 0-4.4411 1.963-4.4411 4.5394 0 2.5458 1.899 4.5088 4.4717 4.5088 1.7458 0 3.1854-.8281 3.8592-2.2084l3.0322 1.3803ZM119.759 4.5v22.464h-3.4V4.5h3.4Zm6.85 0v22.464h-3.399V4.5h3.399Z" clip-rule="evenodd"/>
</svg>