<svg xmlns="http://www.w3.org/2000/svg" fill="none" viewBox="0 0 47 35">
  <path fill="#CFD1D7" d="M39.7875 2.90131C36.7919 1.55842 33.5795.569037 30.2208.00237703c-.0612-.01093636-.1223.01639477-.1538.07105727-.4131.7178867-.8707 1.6544257-1.1912 2.3905457-3.6125-.52838-7.2065-.52838-10.7449 0-.3205-.75248-.7948-1.672659-1.2098-2.3905457-.0315-.0528386-.0926-.08016983-.1538-.07105727C13.4105.567226 10.1981 1.55661 7.20066 2.90131c-.02594.01093-.04819.02917-.06295.05284C1.04456 11.8477-.624611 20.5227.194228 29.0901c.003705.0419.027788.082.061135.1075C4.27545 32.0819 8.16959 33.833 11.9914 34.9936c.0612.0183.126-.0036.1649-.0528.9041-1.2062 1.71-2.478 2.4009-3.8155.0408-.0783.0019-.1712-.0815-.2022-1.2782-.4737-2.4954-1.0513-3.6662-1.7073-.0926-.0528-.1001-.1822-.0149-.2442.2464-.1803.4929-.368.7281-.5575.0426-.0346.1019-.0419.152-.0201 7.6918 3.4311 16.0192 3.4311 23.6202 0 .0501-.0236.1094-.0163.1538.0183.2354.1895.4817.379.73.5593.0852.062.0796.1914-.013.2442-1.1708.6687-2.388 1.2336-3.6681 1.7055-.0834.031-.1204.1257-.0796.204.7057 1.3356 1.5116 2.6074 2.399 3.8137.0371.051.1037.0729.1649.0546 3.8404-1.1606 7.7345-2.9117 11.7546-5.796.0352-.0255.0574-.0638.0611-.1057.98-9.9049-1.6414-18.5087-6.949-26.13594-.013-.02548-.0352-.04372-.0611-.05465ZM15.7059 23.8735c-2.3158 0-4.2239-2.0772-4.2239-4.6281 0-2.551 1.8711-4.6281 4.2239-4.6281 2.3712 0 4.2609 2.0954 4.2238 4.6281 0 2.5509-1.8711 4.6281-4.2238 4.6281Zm15.6171 0c-2.3157 0-4.2238-2.0772-4.2238-4.6281 0-2.551 1.8711-4.6281 4.2238-4.6281 2.3714 0 4.261 2.0954 4.224 4.6281 0 2.5509-1.8526 4.6281-4.224 4.6281Z"/>
</svg>