<svg xmlns="http://www.w3.org/2000/svg" fill="none" viewBox="0 0 40 35">
  <path fill="#CFD1D7" d="m3.51291 29.9968 1.71993 2.984c.35739.6282.87113 1.1218 1.47422 1.4807l6.14264-10.6794H.564453c0 .6955.178694 1.391.536087 2.0192l2.41237 4.1955ZM20.0645 11.2179 13.9218.538462c-.6031.358974-1.1168.852568-1.4742 1.480768L1.10054 21.7628c-.35082.6147-.53562 1.3108-.536087 2.0193H12.8497l7.2148-12.5642Zm13.3573 23.2436c.6031-.3589 1.1169-.8525 1.4743-1.4807l.7147-1.234 3.4176-5.9455c.3574-.6282.5361-1.3237.5361-2.0192H27.2783l2.6143 5.1602 3.5292 5.5192Z"/>
  <path fill="#CFD1D7" d="M20.0645 11.2179 26.2071.538462C25.604.179487 24.9115 0 24.1968 0h-8.2646c-.7148 0-1.4073.201923-2.0104.538462L20.0645 11.2179Zm7.2138 12.5642H12.8497L6.70706 34.4615c.6031.359 1.29554.5385 2.01031.5385H31.4115c.7148 0 1.4072-.2019 2.0103-.5385l-6.1435-10.6794Z"/>
  <path fill="#CFD1D7" d="m33.3548 11.891-5.6735-9.87177c-.3574-.6282-.8711-1.121794-1.4742-1.480768L20.0645 11.2179l7.2138 12.5642h12.2638c0-.6956-.1787-1.3911-.5361-2.0193l-5.6512-9.8718Z"/>
</svg>