<svg xmlns="http://www.w3.org/2000/svg" fill="none" viewBox="0 0 128 36">
  <path fill="#CFD1D7" d="M14.3588 5.95996V16.1103H5.03362V5.95996H.609375V30.1903H5.03482v-9.821h9.32278v9.821h4.4266V5.95996h-4.4254ZM32.9493 22.3587c0 .9712-.3859 1.9026-1.0726 2.5893-.6867.6868-1.6182 1.0726-2.5894 1.0726-.9712 0-1.9026-.3858-2.5893-1.0726-.6868-.6867-1.0726-1.6181-1.0726-2.5893V11.9795h-4.1979v10.3792c0 2.0824.8273 4.0796 2.2998 5.5522 1.4726 1.4725 3.4698 2.2998 5.5522 2.2998 2.0825 0 4.0797-.8273 5.5523-2.2998 1.4725-1.4726 2.2998-3.4698 2.2998-5.5522V11.9795h-4.1823v10.3792Zm31.105-9.3096c0-2.1283 1.4073-2.8026 2.9487-2.8026 1.2432 0 2.884.9461 3.9584 2.0935l2.7487-3.24091c-1.3726-1.85641-4.156-3.13913-6.4352-3.13913-4.5548 0-7.8484 2.66724-7.8484 7.08914 0 8.2041 10.027 5.6003 10.027 10.1923 0 1.4156-1.375 2.666-2.9487 2.666-2.4828 0-3.2877-1.2133-4.4279-2.4972l-3.0517 3.1727c1.9523 2.3954 4.3596 3.6122 7.2424 3.6122 4.3273 0 7.8077-2.6996 7.8077-6.9202 0-9.1072-10.0282-6.2771-10.0282-10.2258m62.0399 13.2703c-2.48 0-3.186-1.0731-3.186-2.7163v-7.276h3.857v-3.6865h-3.857V7.77685l-4.256 1.91031V24.5073c0 3.7907 2.616 5.701 6.201 5.701.563.0096 1.126-.036 1.68-.1342l1.038-3.823c-.468.0324-1.006.0647-1.477.0647M48.9288 12.1005c-2.0792 0-3.5308.6036-4.9345 1.9798V6.10488h-4.2039V20.8879c0 5.5333 4.0003 9.3252 8.4964 9.3252 4.9872 0 9.3743-3.859 9.3743-9.0545 0-5.1309-4.0374-9.0545-8.7323-9.0545m-.0264 13.8776c-.6265 0-1.2469-.1235-1.8258-.3632-.5788-.2398-1.1048-.5912-1.5478-1.0342-.443-.4431-.7944-.969-1.0342-1.5478-.2398-.5789-.3632-1.1993-.3632-1.8258 0-.6266.1234-1.247.3632-1.8258s.5912-1.1048 1.0342-1.5478c.443-.443.969-.7945 1.5478-1.0342.5789-.2398 1.1993-.3632 1.8258-.3632 1.2654 0 2.4789.5027 3.3736 1.3974.8947.8947 1.3974 2.1082 1.3974 3.3736 0 1.2653-.5027 2.4788-1.3974 3.3736-.8947.8947-2.1082 1.3974-3.3736 1.3974Zm45.6821-5.0435c0-5.2051-4.3775-9.0545-9.3743-9.0545-4.4949 0-8.4964 3.7907-8.4964 9.3252v14.7914h4.2039v-7.9862c1.4013 1.3738 2.8553 1.9798 4.9321 1.9798 4.6949 0 8.7347-3.9236 8.7347-9.0557Zm-3.9811-.0527c0 1.2653-.5027 2.4789-1.3974 3.3736-.8947.8947-2.1082 1.3974-3.3736 1.3974-1.2653 0-2.4788-.5027-3.3736-1.3974-.8947-.8947-1.3974-2.1083-1.3974-3.3736 0-1.2653.5027-2.4789 1.3974-3.3736.8948-.8947 2.1083-1.3974 3.3736-1.3974 1.2654 0 2.4789.5027 3.3736 1.3974.8947.8947 1.3974 2.1083 1.3974 3.3736Z"/>
  <path fill="#CFD1D7" d="M108.169 11.6798V7.45559c.558-.2609 1.03-.67497 1.363-1.19403.332-.51905.509-1.12174.512-1.73791v-.09701c0-1.79653-1.456-3.25291-3.253-3.25291h-.097c-.862 0-1.69.34272-2.3.95275-.61.61004-.953 1.43744-.953 2.30016v.09701c.003.61617.181 1.21886.513 1.73791.332.51906.805.93313 1.363 1.19403v4.22421c-1.604.2457-3.115.9109-4.38 1.9283L89.3518 4.58473c.0826-.29822.1258-.60483.1306-.91263.0014-.72495-.2122-1.43404-.6139-2.03757-.4016-.60354-.9732-1.074396-1.6425-1.353027-.6692-.27863106-1.4061-.3525137-2.1174-.2123025-.7112.1402115-1.3649.4882165-1.8784.9999995-.5135.51178-.8636 1.16434-1.0061 1.87514-.1426.71081-.0711 1.44792.2053 2.11809.2765.67018.7455 1.24332 1.3477 1.64692.6022.4036 1.3106.61953 2.0355.62048.6343-.00299 1.2566-.17231 1.805-.49105L99.0255 15.716c-1.0248 1.5482-1.5595 3.3693-1.5343 5.2257.0252 1.8565.6091 3.6624 1.6756 5.1822l-3.4697 3.4709c-.2804-.0897-.5727-.1373-.8671-.1413-.5951.0004-1.1766.1773-1.6712.5082-.4946.3309-.88.801-1.1075 1.3509-.2275.5498-.2869 1.1548-.1707 1.7384.1162.5836.4028 1.1197.8236 1.5405.4208.4208.9568.7074 1.5404.8236.5837.1162 1.1886.0568 1.7385-.1707.5499-.2275 1.02-.6129 1.3509-1.1075.3309-.4946.5077-1.0762.5082-1.6713-.0039-.2944-.0515-.5867-.1413-.8671l3.4321-3.4338c1.12.8618 2.421 1.4559 3.806 1.7368 1.384.281 2.815.2413 4.181-.1159 1.367-.3573 2.634-1.0226 3.704-1.9451 1.07-.9224 1.914-2.0775 2.469-3.3768.554-1.2992.804-2.7082.73-4.1188-.075-1.4107-.471-2.7857-1.158-4.0197-.688-1.2339-1.649-2.2941-2.809-3.0993-1.161-.8052-2.491-1.3341-3.887-1.5461Zm-1.423 13.8932c-.635.0174-1.266-.0925-1.857-.3232s-1.13-.5775-1.585-1.0201c-.455-.4425-.817-.9717-1.064-1.5563-.246-.5847-.374-1.2128-.374-1.8475 0-.6346.128-1.2628.374-1.8474.247-.5846.609-1.1138 1.064-1.5564.455-.4425.994-.7893 1.585-1.0201.591-.2307 1.222-.3405 1.857-.3231 1.229.0431 2.394.5616 3.249 1.4464.855.8848 1.333 2.0669 1.333 3.2971.001 1.2303-.476 2.4128-1.33 3.2985-.854.8856-2.018 1.4054-3.247 1.4497"/>
</svg>