<svg xmlns="http://www.w3.org/2000/svg" fill="none" viewBox="0 0 182 36">
  <path fill="#1E1E1E" d="M0 0h182v36H0z"/>
  <g clip-path="url(#a)">
    <path fill="#FBFBFD" d="M-40-5214h1440V6252H-40z"/>
    <path fill="#CFD1D7" d="M39.5602 0C31.3716 0 24.4311 5.5568 22.28 13.0856c-1.8695-3.99337-5.9208-6.79109-10.5873-6.79109C5.2753 6.29451 0 11.575 0 17.9988s5.2753 11.7067 11.6927 11.7067c4.6665 0 8.7178-2.7995 10.5873-6.7936C24.4311 30.4413 31.3716 36 39.5602 36c8.128 0 15.0332-5.4748 17.2393-12.9193 1.904 3.9034 5.9052 6.6248 10.5054 6.6248C73.7223 29.7055 79 24.4226 79 17.9988S73.7223 6.29451 67.3049 6.29451c-4.6002 0-8.6014 2.71964-10.5054 6.62239C54.5934 5.47299 47.6882 0 39.5602 0Zm0 6.87069c6.1815 0 11.1196 4.94051 11.1196 11.12811 0 6.1875-4.9381 11.1305-11.1196 11.1305-6.1814 0-11.1171-4.943-11.1171-11.1305 0-6.1876 4.9357-11.12811 11.1171-11.12811ZM11.6927 13.1652c2.7083 0 4.8313 2.1227 4.8313 4.8336 0 2.7109-2.123 4.836-4.8313 4.836-2.7082 0-4.8288-2.1251-4.8288-4.836s2.1206-4.8336 4.8288-4.8336Zm55.6122 0c2.7082 0 4.8312 2.1227 4.8312 4.8336 0 2.7109-2.123 4.836-4.8312 4.836-2.7083 0-4.8289-2.1251-4.8289-4.836s2.1206-4.8336 4.8289-4.8336Zm25.1608-2.165c-.3252 0-.4657.1885-.4657.5187V25.199c0 .3302.1405.5164.4657.5164h.373c.3253 0 .5087-.1862.5087-.5164V13.8391l7.3566 11.5894c.032.0507.067.0844.101.1216.011.0125.018.0256.03.0367.031.029.065.0441.099.0619.019.0101.034.0248.055.0321.014.005.03.002.045.006.052.0136.105.0276.167.0276h.371c.325 0 .466-.1862.466-.5163V11.5187c0-.3302-.141-.5187-.466-.5187h-.371c-.325 0-.511.1885-.511.5187v11.3604l-7.3561-11.5894c-.0251-.0395-.0554-.0636-.0837-.0942-.0849-.1219-.2195-.1951-.4114-.1951l-.3731-.0002Zm88.3273.1882c-.325 0-.185.1885-.185.5187v4.6702c0 .4716.045.8009.045.8009h-.045s-.884-2.0746-3.346-2.0746c-2.695 0-4.601 2.1696-4.508 5.377 0 3.2074 1.719 5.4253 4.46 5.4253 2.649 0 3.531-2.1711 3.531-2.1711h.048s-.093.2836-.093.661v.8009c0 .3302.186.4728.511.4728h.326c.325 0 .463-.1885.463-.5187V11.7071c0-.3302-.511-.5187-.836-.5187h-.371Zm-36.103.0483c-.325 0-.138.1884-.138.5186v11.555c0 2.264 1.485 2.5474 2.322 2.5474.371 0 .511-.1885.511-.5186v-.3305c0-.3302-.186-.4705-.419-.4705-.464-.0471-1.067-.1894-1.067-1.5101V11.7553c0-.3302-.511-.5187-.836-.5187l-.373.0001Zm-16.68 1.2255c-.325 0-.51.1885-.51.5186v8.9617c0 2.4527 1.348 3.8211 3.578 3.8211.418 0 .556-.1403.556-.4704v-.2846c0-.3773-.138-.4715-.556-.5187-.79-.0471-2.231-.33-2.231-2.7355v-5.1889h2.091c.325 0 .511-.1403.511-.4704v-.1423c0-.3302-.186-.5187-.511-.5187h-2.091v-2.4533c0-.3301-.138-.5186-.464-.5186h-.373Zm-18.506 2.6415c-2.787 0-5.019 2.0291-5.066 5.4252 0 3.2073 2.324 5.4229 5.345 5.4229 1.626 0 2.833-.7069 3.391-1.1314.232-.1887.279-.4251.14-.6609l-.14-.2341c-.14-.283-.37-.331-.649-.1423-.465.3773-1.396.9432-2.697.9432-2.091 0-3.903-1.5102-3.95-4.1515h7.388c.279 0 .511-.2357.511-.5187 0-2.9715-1.531-4.9524-4.273-4.9524Zm28.867 0c-3.02 0-5.343 2.2637-5.389 5.4711 0 3.2073 2.324 5.4252 5.344 5.4252 1.859 0 3.113-.8974 3.624-1.3219.232-.2358.277-.4238.138-.7068l-.138-.1882c-.186-.283-.372-.331-.651-.1423-.465.4245-1.44 1.0855-2.88 1.0855-2.231 0-3.997-1.6988-3.997-4.1515 0-2.4999 1.766-4.1975 3.997-4.1975 1.208 0 2.09.6131 2.554.9433.279.1885.511.1889.697-.0941l.14-.2364c.232-.283.185-.5182-.048-.7068-.511-.4245-1.625-1.1796-3.391-1.1796Zm15.705 0c-2.974 0-5.389 2.3111-5.389 5.377 0 3.113 2.415 5.4711 5.389 5.4711s5.39-2.3581 5.39-5.4711c0-3.0659-2.416-5.377-5.39-5.377Zm-30.058.1583c-.114.0185-.223.0962-.328.2226l-1.881 2.2743-1.406 1.7028-2.132-2.5772-1.155-1.3999c-.104-.1265-.223-.1958-.346-.2065-.123-.0101-.25.0362-.375.1423l-.285.2432c-.249.2122-.236.447-.027.7l1.881 2.2742 1.56 1.8888-2.283 2.7608c-.003.002-.004.005-.005.006l-1.153 1.393c-.209.253-.186.5199.063.7321l.285.241c.249.2122.476.1588.685-.0942l1.879-2.2743 1.408-1.7028 2.132 2.5795c.001.002.004.004.005.005l1.15 1.3953c.209.253.472.2742.721.0619l.285-.2409c.249-.2123.237-.4471.027-.7l-1.88-2.2766-1.56-1.8864 2.283-2.7631c.002-.002.003-.004.004-.006l1.153-1.3931c.21-.2529.186-.5198-.063-.7321l-.285-.2409c-.124-.1062-.243-.1472-.357-.1288Zm38.19.0781c-.325 0-.466.1885-.466.5187v6.0838c0 2.6886 1.952 4.0093 4.368 4.0093 2.416 0 4.367-1.3207 4.367-4.0093v-6.0838c.047-.3302-.138-.5187-.463-.5187h-.373c-.325 0-.511.1885-.511.5187v5.7075c0 1.6037-1.022 3.066-3.02 3.066-1.952 0-3.02-1.4623-3.02-3.066v-5.7075c0-.3302-.186-.5187-.511-.5187h-.371Zm-52.751.9433c1.487 0 2.787 1.0845 2.88 3.2542h-6.411c.325-2.1226 1.812-3.2542 3.531-3.2542Zm44.619.0941c2.184 0 3.95 1.745 3.95 4.1034 0 2.4527-1.766 4.2456-3.95 4.2456s-3.95-1.8401-3.997-4.2456c0-2.3112 1.813-4.1034 3.997-4.1034Zm23.278 0c2.184 0 3.254 2.029 3.254 4.1516 0 2.9715-1.582 4.1974-3.301 4.1974-1.905 0-3.205-1.6504-3.251-4.1974 0-2.6414 1.486-4.1516 3.298-4.1516Z"/>
  </g>
  <defs>
    <clipPath id="a">
      <path fill="#fff" d="M-40-5214h1440V6252H-40z"/>
    </clipPath>
  </defs>
</svg>