<svg xmlns="http://www.w3.org/2000/svg" fill="none" viewBox="0 0 147 36">
  <path fill="#CFD1D7" fill-rule="evenodd" d="M21.831 3.92031c1.6454-1.72699 3.9354-2.79644 6.4654-2.79644 3.3732 0 6.2967 1.88948 7.8709 4.70482 1.3974-.62982 2.9109-.95498 4.4415-.95419 6.0719 0 11.0006 5.00713 11.0006 11.1858 0 6.1786-4.9287 11.1857-11.0006 11.1857-.7421 0-1.4655-.0752-2.1739-.2173-1.3774 2.4752-4.0104 4.1569-7.0089 4.1569-1.2208.0024-2.4259-.2768-3.5232-.8163C26.5067 33.6759 23.2552 36 19.4697 36c-3.9542 0-7.3088-2.513-8.6019-6.0464-.5755.1225-1.1621.1841-1.7503.1837-4.70383 0-8.508125-3.8923-8.508125-8.6727 0-3.2122 1.712865-6.0086 4.254065-7.5202-.53912-1.2522-.81662-2.6029-.81521-3.96791C4.04823 4.45919 8.48969 0 13.9619 0c3.2046 0 6.0719 1.53993 7.8709 3.93013M63.6344 21.2101c-.0692.1824.0247.2205.047.2528.2069.1514.417.261.6276.3842 1.1256.6014 2.1864.7773 3.2958.7773 2.2593 0 3.6643-1.2151 3.6643-3.1707v-.0384c0-1.8084-1.5872-2.4671-3.0691-2.9376l-.194-.0634c-1.1215-.3674-2.0892-.6873-2.0892-1.4319v-.0381c0-.6382.5668-1.1087 1.4414-1.1087.9718 0 2.1298.3269 2.8707.7405 0 0 .2195.1432.2992-.0707.0433-.1158.4211-1.1374.4616-1.252.0429-.1198-.0324-.2103-.1097-.2569-.8503-.5237-2.0245-.8796-3.2392-.8796l-.2255.0008c-2.069 0-3.5145 1.2642-3.5145 3.0725v.0389c0 1.9065 1.5953 2.5284 3.0853 2.958l.2397.0752c1.0851.3372 2.0245.6301 2.0245 1.3992V19.7c0 .7078-.6114 1.2356-1.5912 1.2356-.3811 0-1.5953-.0066-2.9112-.8469-.1592-.0937-.2498-.1612-.3725-.2369-.0648-.0397-.2268-.1113-.2972.1031l-.4454 1.2519m33.0797 0c-.0692.1825.0247.2205.0478.2528.2061.1514.4171.2611.6276.3842 1.1256.6014 2.1864.7773 3.2961.7773 2.259 0 3.664-1.2151 3.664-3.1707v-.0384c0-1.8083-1.583-2.467-3.069-2.9375l-.194-.0634c-1.1216-.3674-2.0893-.6874-2.0893-1.432v-.038c0-.6383.5669-1.1088 1.4413-1.1088.972 0 2.126.3269 2.871.7406 0 0 .219.1432.299-.0708.043-.1158.422-1.1374.458-1.2519.043-.1199-.032-.2103-.109-.257-.851-.5236-2.025-.8796-3.239-.8796l-.226.0008c-2.0694 0-3.5149 1.2642-3.5149 3.0726v.0388c0 1.9065 1.5953 2.5284 3.0849 2.958l.24.0753c1.089.3371 2.024.63 2.024 1.3992v.0384c0 .7078-.611 1.2356-1.591 1.2356-.382 0-1.5994-.0066-2.9112-.8469-.1592-.0937-.2523-.1583-.3729-.2369-.0409-.0262-.2316-.1014-.2968.1031l-.4454 1.2519m22.5933-3.8294c0 1.1047-.204 1.9761-.604 2.5939-.398.6096-1 .9082-1.838.9082-.838 0-1.437-.2962-1.83-.9041-.395-.6137-.595-1.4892-.595-2.5939 0-1.1046.201-1.972.595-2.5815.392-.6055.988-.896 1.83-.896.842 0 1.442.2933 1.838.896.402.6095.604 1.4769.604 2.5815m1.887-2.0497c-.186-.6341-.474-1.1905-.859-1.6569-.385-.4664-.87-.8428-1.449-1.1129-.575-.272-1.256-.4091-2.025-.4091-.769 0-1.445.1379-2.024.4091-.575.2717-1.065.6465-1.45 1.1129-.384.4664-.672 1.0228-.858 1.6569-.184.6301-.278 1.3174-.278 2.0497 0 .7324.094 1.4197.278 2.0497.185.6342.474 1.1906.858 1.657.385.4664.875.8387 1.45 1.1046.579.2651 1.259.4001 2.024.4001.765 0 1.446-.135 2.021-.4001s1.064-.6382 1.449-1.1046c.384-.4664.672-1.0228.858-1.657.184-.63.278-1.3173.278-2.0497 0-.7282-.094-1.4196-.278-2.0497m15.508 5.2368c-.062-.1853-.241-.1154-.241-.1154-.274.106-.567.2042-.879.2533-.314.0499-.664.0748-1.032.0748-.911 0-1.64-.2745-2.158-.8182-.523-.5441-.814-1.4197-.81-2.6061.003-1.0801.261-1.8902.725-2.512.457-.6137 1.162-.9328 2.093-.9328.777 0 1.373.0912 1.996.2884 0 0 .148.065.219-.1318.165-.4623.288-.7937.465-1.301.051-.1452-.072-.2066-.117-.2242-.245-.0965-.822-.2548-1.26-.3215-.409-.063-.882-.0958-1.417-.0958-.793 0-1.498.1371-2.101.4087-.603.2713-1.114.6465-1.518 1.1129-.405.4664-.713 1.0228-.92 1.6569-.204.6301-.307 1.3215-.307 2.0538 0 1.5792.421 2.8598 1.255 3.7967.834.941 2.089 1.4155 3.725 1.4155.968 0 1.96-.1976 2.672-.4827 0 0 .136-.0663.077-.2267l-.466-1.2928m3.3-4.2549c.091-.6137.257-1.1251.519-1.5219.391-.6055.988-.9369 1.826-.9369.838 0 1.393.333 1.789.9369.264.3989.378.9287.421 1.5219l-4.575-.0008.02.0008Zm6.357-1.3501c-.161-.6096-.559-1.2274-.818-1.5097-.413-.4459-.814-.7609-1.214-.9328-.579-.2486-1.202-.3762-1.83-.3751-.798 0-1.523.1362-2.11.4132-.587.279-1.081.6587-1.47 1.1333-.388.4745-.68 1.035-.866 1.6774-.186.6341-.28 1.3296-.28 2.0579 0 .7446.097 1.436.289 2.0619.194.6301.506 1.1824.927 1.6406.421.4623.96.8224 1.608 1.076.644.2516 1.425.3821 2.32.3793 1.846-.0062 2.818-.4214 3.215-.6464.07-.0401.137-.1093.054-.3085l-.417-1.1824c-.064-.1763-.241-.1125-.241-.1125-.457.1727-1.105.4828-2.623.4787-.992-.0017-1.725-.2975-2.187-.761-.469-.4746-.704-1.166-.741-2.1479l6.398.0049s.168-.0016.185-.1677c.007-.0688.219-1.3256-.19-2.778l-.009-.0012Zm-57.4946 1.3501c.0903-.6137.2571-1.1251.5182-1.5219.392-.6055.988-.9369 1.8261-.9369.8381 0 1.3928.333 1.7896.9369.2628.3989.3778.9287.4211 1.5219l-4.5753-.0008.0203.0008Zm6.3568-1.3501c-.1603-.6096-.5587-1.2274-.8179-1.5097-.413-.4459-.8138-.7609-1.2147-.9328-.5787-.2486-1.2012-.3762-1.8301-.3751-.7976 0-1.5224.1362-2.1095.4132-.5871.279-1.081.6587-1.4697 1.1333-.3875.4745-.6802 1.035-.8665 1.6774-.1858.6341-.2794 1.3296-.2794 2.0579 0 .7446.0968 1.436.2899 2.0619.1936.6301.5061 1.1824.9232 1.6406.4211.4623.9596.8224 1.6074 1.076.6438.2516 1.4212.3821 2.32.3793 1.8464-.0062 2.8181-.4214 3.2149-.6464.0704-.0401.1377-.1093.0538-.3085l-.417-1.1824c-.0644-.1763-.2409-.1125-.2409-.1125-.4575.1727-1.1054.4828-2.6237.4787-.9879-.0017-1.7249-.2975-2.1864-.761-.4697-.4746-.7045-1.166-.741-2.1479l6.3973.0049s.1685-.0016.1859-.1677c.0069-.0688.219-1.3256-.1911-2.778l-.0045-.0012Zm-20.1637 5.5641c-.2506-.2021-.2854-.2516-.3684-.383-.1267-.1976-.1915-.4786-.1915-.8387 0-.5645.1862-.9737.5709-1.2478-.0041.0008.5506-.4828 1.8544-.4664.5803.0105 1.1592.0604 1.7329.1493v2.9335h.0008s-.8098.1763-1.7248.2319c-1.2997.079-1.8747-.378-1.8706-.3768l-.0037-.002Zm2.5428-4.5413c-.2592-.0192-.5952-.0286-.9961-.0286-.5466 0-1.077.0687-1.571.2037-.498.1358-.9474.3461-1.3321.626-.3857.278-.7029.642-.9272 1.0637-.2263.4255-.3417.9246-.3417 1.4892 0 .5728.0984 1.0678.2927 1.4729.1905.4017.4772.7491.8341 1.0105.3551.261.7936.4541 1.2997.5687.5021.1158 1.069.1743 1.6925.1743.6559 0 1.3078-.0557 1.9394-.1633.538-.0937 1.0739-.199 1.6075-.3158.2129-.0495.4494-.1146.4494-.1146.1579-.0405.1457-.2111.1457-.2111l-.0036-5.8914c0-1.2928-.3417-2.2542-1.0163-2.8475-.6721-.5932-1.656-.8919-2.9314-.8919-.4778 0-1.2511.0655-1.7127.1592 0 0-1.3928.2733-1.9678.7282 0 0-.1263.0786-.0575.2566l.4535 1.2273c.0563.1592.2097.1048.2097.1048s.0482-.0193.1049-.0532c1.2268-.6751 2.7816-.6546 2.7816-.6546.6883 0 1.2228.1411 1.5791.4173.3486.2704.5264.6791.5264 1.5383v.2729c-.5466-.0802-1.0528-.1265-1.0528-.1265l-.006-.0151Zm51.4217-3.3262c.009-.0215.014-.0448.014-.0683s-.005-.0467-.014-.0684c-.008-.0217-.022-.0413-.038-.0578-.017-.0164-.037-.0293-.058-.0378-.109-.0418-.652-.1576-1.069-.1837-.802-.0508-1.247.0859-1.648.2675-.396.1804-.834.4705-1.077.806l-.001-.7855c0-.108-.076-.1952-.183-.1952h-1.636c-.106 0-.183.0872-.183.1952v9.6144c0 .0519.02.1017.057.1384.036.0368.085.0574.137.0576h1.676c.051-.0002.101-.0208.137-.0576.036-.0367.057-.0865.057-.1384v-4.8277c0-.6464.07-1.2887.211-1.6937.138-.4006.326-.7201.558-.9492.222-.2213.492-.3855.79-.4787.279-.0809.568-.122.858-.1219.334 0 .701.0867.701.0867.123.0139.191-.0622.233-.1743.11-.2949.421-1.1782.482-1.3542" clip-rule="evenodd"/>
  <path fill="#CFD1D7" fill-rule="evenodd" d="M113.356 8.21958c-.208-.06327-.418-.11382-.632-.15137-.286-.04838-.577-.0711-.868-.06792-1.155 0-2.065.32976-2.705.98108-.635.64642-1.067 1.63113-1.283 2.92683l-.078.4374h-1.45s-.177-.0074-.215.1878l-.238 1.3419c-.016.1285.038.2087.209.2078h1.411l-1.432 8.0774c-.112.6505-.241 1.1856-.383 1.5911-.14.4001-.277.7-.445.9176-.163.2107-.318.3658-.585.4562-.22.0749-.474.1092-.751.1092-.155 0-.361-.0262-.512-.0568-.152-.0303-.231-.0647-.345-.113 0 0-.166-.0638-.231.104-.053.137-.429 1.1823-.474 1.3116-.045.1277.019.2283.099.2573.188.068.327.1113.583.1723.356.0847.655.09.936.09.588 0 1.124-.0835 1.568-.2455.447-.1632.836-.4476 1.18-.8325.372-.4153.606-.8502.83-1.4434.222-.5879.41-1.3178.561-2.1684l1.439-8.2271h2.104s.177.0066.214-.1877l.238-1.342c.017-.1284-.037-.2086-.208-.2078h-2.042c.01-.0466.103-.7724.337-1.4557.1-.2917.288-.5269.448-.6885.149-.1539.332-.26929.535-.33632.222-.06933.453-.10301.685-.09983.193 0 .381.02332.525.0536.198.04255.275.06505.327.0806.208.06423.236.00204.277-.09983l.488-1.35502c.05-.14565-.072-.20702-.117-.22502ZM84.8212 22.1777c0 .108-.0761.1959-.183.1959h-1.6936c-.1073 0-.1834-.0879-.1834-.1959V8.40328c0-.1076.0761-.19474.1834-.19474h1.6936c.1069 0 .183.08714.183.19474V22.1777Z" clip-rule="evenodd"/>
</svg>