<svg xmlns="http://www.w3.org/2000/svg" fill="none" viewBox="0 0 37 36">
  <path fill="#CFD1D7" d="M18.8196 20.5715c5.6692 0 10.265-4.6051 10.265-10.2858C29.0846 4.60509 24.4888 0 18.8196 0 13.1505 0 8.55469 4.60509 8.55469 10.2857c0 5.6807 4.59581 10.2858 10.26491 10.2858Z"/>
  <path fill="#CFD1D7" d="M27.3744 29.1429c5.1967 0 9.4095-4.2214 9.4095-9.4286 0-5.2073-4.2128-9.4287-9.4095-9.4287-5.1968 0-9.4096 4.2214-9.4096 9.4287 0 5.2072 4.2128 9.4286 9.4096 9.4286Z"/>
  <path fill="#CFD1D7" d="M20.103 36.0002c4.0157 0 7.271-3.262 7.271-7.2858s-3.2553-7.2857-7.271-7.2857c-4.0156 0-7.271 3.2619-7.271 7.2857 0 4.0238 3.2554 7.2858 7.271 7.2858Z"/>
  <path fill="#FBFBFD" d="M20.53 9.28293V27.5744c-.0042.6356-.3886 1.2066-.9751 1.4486-.1868.0791-.3875.1199-.5903.12h-6.1247c-.0086-.1457-.0086-.2829-.0086-.4286-.0028-.1431.0029-.2862.0171-.4286.1566-2.7399 1.8411-5.1573 4.3541-6.2486V20.443c-5.5928-.8881-9.40818-6.1511-8.5219-11.75516.00614-.03881.01249-.07761.01909-.11634.04257-.28908.10257-.57532.17963-.85714H18.9646c.8632.00329 1.5621.70364 1.5654 1.56857Z" opacity=".1"/>
  <path fill="#FBFBFD" d="M18.1094 8.57129H8.69985C7.74931 14.1653 11.5044 19.4723 17.0871 20.4247c.169.0289.3388.0535.509.0738-2.6517 1.26-4.5841 4.8386-4.7484 7.7871-.0142.1424-.0199.2855-.0171.4286 0 .1457 0 .2829.0086.4286.0154.2881.0526.5746.1112.8571h5.1581c.6343-.0042 1.2041-.3894 1.4457-.9771.079-.1871.1197-.3883.1197-.5914V10.1399c-.0032-.86463-.7017-1.56484-1.5645-1.56861Z" opacity=".2"/>
  <path fill="#FBFBFD" d="M18.1093 8.57129H8.69978C7.74944 14.1658 11.5051 19.473 17.0883 20.4253c.1142.0195.2287.037.3435.0526-2.5662 1.3509-4.4224 4.9209-4.5833 7.8077h5.2608c.8619-.0065 1.5589-.705 1.5654-1.5685V10.1399c-.0033-.86496-.7022-1.56532-1.5654-1.56861Z" opacity=".2"/>
  <path fill="#FBFBFD" d="M17.2536 8.57129H8.6995C7.80213 13.8526 11.1047 18.9385 16.287 20.2559c-1.9623 2.2465-3.1658 5.0569-3.4387 8.0297h4.4053c.8632-.0032 1.5622-.7036 1.5654-1.5685V10.1399c-.0004-.86613-.701-1.56813-1.5654-1.56861Z" opacity=".2"/>
  <path fill="#CFD1D7" d="M1.56797 8.57129H17.2511c.866 0 1.568.70343 1.568 1.57111v15.7149c0 .8678-.702 1.5712-1.568 1.5712H1.56797C.702004 27.4285 0 26.7251 0 25.8573V10.1424c0-.86768.702004-1.57111 1.56797-1.57111Z"/>
  <path fill="#FBFBFD" d="M7.00377 17.808c-.36746-.2443-.67439-.5694-.89734-.9506-.21602-.3985-.32369-.847-.31223-1.3003-.01924-.6139.18748-1.2133.58082-1.6843.41333-.4716.94759-.8208 1.54487-1.0097.68072-.2245 1.39371-.3352 2.11031-.3275.9424-.0345 1.8834.0976 2.7801.39v1.9715c-.3896-.2365-.814-.4101-1.2575-.5143-.4812-.1182-.975-.1775-1.4704-.1766-.52251-.0192-1.04165.0909-1.51155.3206-.36278.1568-.59802.5144-.59878.9103-.00148.2401.09059.4714.25662.6446.19611.2042.42808.3704.68434.4903.28513.1422.71284.3314 1.28307.5674.0628.0199.124.0445.1831.0737.5613.2198 1.1027.4874 1.6184.7997.3906.2413.7184.5721.9564.9652.244.4455.3623.9493.3422 1.4571.0278.6302-.1646 1.2504-.5441 1.7538-.3782.4627-.8839.8037-1.4542.9805-.6707.2107-1.37071.3125-2.07351.3017-.63055.0029-1.26019-.0487-1.8819-.1543-.52495-.086-1.03724-.2369-1.52519-.4491v-2.0786c.46642.3338.98752.5833 1.53974.7372.55036.1718 1.12246.2636 1.69885.2725.53346.0339 1.06601-.0793 1.53971-.3274.3319-.1876.5338-.5431.5253-.9248.0022-.2657-.1027-.521-.2909-.708-.234-.2302-.505-.4194-.8015-.5598-.34215-.1714-.846-.3974-1.5115-.678-.52944-.2133-1.03636-.4789-1.51323-.7928Z"/>
</svg>