<svg xmlns="http://www.w3.org/2000/svg" fill="none" viewBox="0 0 138 36">
  <path fill="#CFD1D7" d="m44.3105 28.2433 1.708-3.9668c1.8457 1.3773 4.2975 2.0936 6.7217 2.0936 1.7906 0 2.92-.6887 2.92-1.7355-.0275-2.9201-10.7161-.6336-10.7987-7.9613-.0275-3.719 3.2782-6.5839 7.9613-6.5839 2.7823 0 5.5647.6887 7.5481 2.2589l-1.5978 4.0495c-1.8181-1.157-4.077-1.9834-6.2258-1.9834-1.46 0-2.4242.6886-2.4242 1.5702.0276 2.8649 10.7988 1.2947 10.9089 8.2919 0 3.8016-3.223 6.4737-7.8511 6.4737-3.3883 0-6.5012-.7989-8.8704-2.5069Zm65.5365-5.3993c-.854 1.4876-2.452 2.5068-4.298 2.5068-2.727 0-4.931-2.2038-4.931-4.931 0-2.7273 2.204-4.9311 4.931-4.9311 1.846 0 3.444 1.0193 4.298 2.5069l4.71-2.6171c-1.763-3.1404-5.151-5.2891-9.008-5.2891-5.7022 0-10.3302 4.628-10.3302 10.3304 0 5.7024 4.628 10.3304 10.3302 10.3304 3.884 0 7.245-2.1212 9.008-5.2892l-4.71-2.617ZM69.2956 1.52246h-5.8952V30.365h5.8952V1.52246Zm47.5754 0V30.365h5.895v-8.65l6.997 8.65h7.549l-8.898-10.2753 8.236-9.5867h-7.217l-6.667 7.9613V1.52246h-5.895ZM86.8171 22.8991c-.854 1.4049-2.617 2.4517-4.6005 2.4517-2.7272 0-4.931-2.2038-4.931-4.931 0-2.7273 2.2038-4.9311 4.931-4.9311 1.9835 0 3.7465 1.1019 4.6005 2.5344v4.876Zm0-12.3965v2.3415c-.9642-1.6253-3.3608-2.7547-5.8677-2.7547-5.179 0-9.256 4.5729-9.256 10.3028 0 5.73 4.077 10.358 9.256 10.358 2.5069 0 4.9035-1.1295 5.8677-2.7548v2.3416h5.8952V10.5026h-5.8952ZM22.4508 28.3138c2.0109 0 3.6363 1.6253 3.6363 3.6363s-1.6254 3.6363-3.6363 3.6363c-2.011 0-3.6363-1.6253-3.6363-3.6363v-3.6363h3.6363Zm0-1.8182c-2.011 0-3.6363-1.6253-3.6363-3.6363s1.6253-3.6363 3.6363-3.6363h9.0907c2.011 0 3.6363 1.6253 3.6363 3.6363s-1.6253 3.6363-3.6363 3.6363h-9.0907ZM7.85074 22.8593c0 2.011-1.62532 3.6363-3.63631 3.6363-2.01099 0-3.636305-1.6253-3.636305-3.6363S2.20344 19.223 4.21443 19.223h3.63631v3.6363Zm1.84653-.0001c-.00001-2.011 1.62533-3.6364 3.63633-3.6364s3.6363 1.6254 3.6363 3.6364v9.1183c0 2.011-1.6253 3.6363-3.6363 3.6363s-3.63633-1.6253-3.63633-3.6363v-9.1183ZM13.3336 8.28613c-2.011 0-3.63633-1.62532-3.63633-3.63631 0-2.01098 1.62533-3.6363 3.63633-3.6363s3.6363 1.62532 3.6363 3.6363v3.63631h-3.6363Zm-.0009 1.81817c2.011 0 3.6363 1.6254 3.6363 3.6363 0 2.011-1.6253 3.6364-3.6363 3.6364H4.21443c-2.01099 0-3.636305-1.6254-3.636305-3.6364 0-2.0109 1.625315-3.6363 3.636305-3.6363h9.11827Zm14.5716 3.6363c0-2.0109 1.6253-3.6363 3.6363-3.6363s3.6363 1.6254 3.6363 3.6363c0 2.011-1.6253 3.6364-3.6363 3.6364h-3.6363v-3.6364Zm-1.8172 0c0 2.011-1.6254 3.6364-3.6363 3.6364-2.011 0-3.6363-1.6254-3.6363-3.6364V4.62234c0-2.01099 1.6253-3.636309 3.6363-3.63631 2.0109 0 3.6363 1.62532 3.6363 3.63631v9.11826Z"/>
</svg>