<svg xmlns="http://www.w3.org/2000/svg" fill="none" viewBox="0 0 53 37">
  <path fill="#CFD1D7" d="M25.683 5.62934V21.3164H12.292L25.683 5.62934ZM25.683 0c0 1.72303-.7054 3.37548-1.961 4.59385-1.2557 1.21836-2.9587 1.90283-4.7345 1.90283-1.7758 0-3.4788-.68447-4.7345-1.90283C12.9974 3.37548 12.292 1.72303 12.292 0h13.391Zm2.2061 21.3178c0-1.723.7054-3.3754 1.9611-4.5938 1.2556-1.2184 2.9587-1.9028 4.7344-1.9028 1.7758 0 3.4788.6844 4.7345 1.9028 1.2556 1.2184 1.9611 2.8708 1.9611 4.5938H27.8891Zm0-5.6293V0H41.283L27.8891 15.6871v.0014Zm7.4891 19.0508c.6887.0149 1.3555-.2349 1.8551-.695l.9197.9633c-.6074.606-1.4497 1.0563-2.759 1.0563-2.2447 0-3.6959-1.4455-3.6959-3.3998-.0091-.4479.0749-.893.2469-1.3087.1721-.4158.4287-.7936.7545-1.111.3258-.3175.7141-.568 1.1419-.7366.4277-.1686.8861-.2519 1.3477-.2449 2.229 0 3.4925 1.6457 3.3808 3.928h-5.2688c.1862.9479.8738 1.5526 2.0728 1.5526m1.6045-2.6409c-.1433-.8855-.6877-1.5373-1.7764-1.5373-1.0127 0-1.719.5559-1.9009 1.5373h3.6787-.0014ZM.783203 34.6656 4.8372 30.6681H.879181v-1.2537H6.71808v1.2787l-4.054 3.9962h4.1113v1.2551H.783203v-1.2788Zm10.543297.0723c.6886.015 1.3554-.2349 1.855-.695l.9197.9633c-.6074.606-1.4497 1.0563-2.759 1.0563-2.24473 0-3.69586-1.4455-3.69586-3.3998-.0091-.4479.07488-.893.24692-1.3087.17203-.4158.42861-.7936.75441-1.111.32581-.3175.71417-.568 1.14192-.7366.42771-.1686.88611-.2519 1.34781-.2449 2.2289 0 3.4924 1.6457 3.3807 3.928H9.25218c.18623.948.87382 1.5526 2.07282 1.5526m1.6044-2.6409c-.1432-.8854-.6876-1.5373-1.7763-1.5373-1.0128 0-1.71899.5559-1.90092 1.5373h3.67872-.0015Zm10.347.5601c0-2.0849 1.6087-3.3971 3.3807-3.3971.4252-.0054.8465.0794 1.2343.2487.3878.1693.7327.4189 1.0105.7313v-3.853h1.4325v9.5351h-1.4325v-.8993c-.2725.3252-.6169.5868-1.0077.7653-.3908.1786-.818.2695-1.25.2661-1.719 0-3.3663-1.3205-3.3663-3.3957m5.7042-.0139c-.0113-.4077-.1462-.8031-.3878-1.1368-.2417-.3336-.5794-.5908-.9709-.7392-.3914-.1484-.8193-.1816-1.2301-.0953-.4108.0863-.7862.2883-1.0794.5805-.2931.2923-.491.6619-.5687 1.0627-.0778.4008-.0321.8149.1315 1.1906.1635.3757.4376.6962.7879.9216.3503.2253.7613.3455 1.1816.3453 1.232 0 2.1345-.9535 2.1345-2.1294m10.526 1.8904 1.2979-.6533c.1716.2968.4234.5424.7284.7105.305.168.6515.2521 1.002.243.8108 0 1.232-.4031 1.232-.8618 0-.5226-.7836-.6394-1.6359-.8103-1.146-.2363-2.3393-.6019-2.3393-1.946 0-1.0327 1.0128-1.9876 2.6072-1.9737 1.2563 0 2.1917.4837 2.7217 1.2648l-1.2033.6394c-.1662-.2389-.3925-.4327-.6575-.5631-.2649-.1303-.5598-.1929-.8566-.1819-.7707 0-1.1632.3656-1.1632.7839 0 .4698.6217.6005 1.5958.8104 1.1087.2363 2.3636.5879 2.3636 1.9459 0 .9007-.8108 2.1155-2.7303 2.103-1.4039 0-2.3923-.549-2.961-1.515m9.5834-1.5109-1.136 1.2023v1.6958h-1.4325V26.387h1.4325v6.2451l3.0413-3.2386h1.7448l-2.6359 2.7938 2.7046 3.7363h-1.6216l-2.0957-2.8995h-.0015Zm-30.1442-3.7612c-1.7047 0-3.13 1.0702-3.13 2.8494v3.8154h1.4611v-3.6389c0-1.0703.6346-1.7124 1.719-1.7124s1.6231.6394 1.6231 1.7124v3.6389h1.4525v-3.8154c0-1.7764-1.4325-2.8494-3.13-2.8494"/>
</svg>