<svg width="44" height="44" viewBox="0 0 44 44" fill="none" xmlns="http://www.w3.org/2000/svg">
<circle cx="22" cy="22" r="22" fill="#EAF1FD"/>
<path d="M22.5 24C22.43 24 22.3608 23.9838 22.2963 23.9523L12.3201 19.0634C12.2252 19.0164 12.1442 18.9379 12.0873 18.8377C12.0303 18.7376 12 18.6201 12 18.5C12 18.3799 12.0303 18.2624 12.0873 18.1623C12.1442 18.0621 12.2252 17.9836 12.3201 17.9366L22.2963 13.0477C22.3608 13.0162 22.43 13 22.5 13C22.57 13 22.6392 13.0162 22.7037 13.0477L32.6799 17.9366C32.7748 17.9836 32.8558 18.0621 32.9127 18.1623C32.9697 18.2624 33 18.3799 33 18.5C33 18.6201 32.9697 18.7376 32.9127 18.8377C32.8558 18.9379 32.7748 19.0164 32.6799 19.0634L22.7037 23.9523C22.6392 23.9838 22.57 24 22.5 24ZM13.8764 18.5L22.5 22.7252L31.1236 18.5L22.5 14.2748L13.8764 18.5Z" fill="#3F65FC" stroke="#3F65FC" stroke-width="0.5"/>
<path d="M22.5 28C22.4301 28 22.3608 27.9841 22.2963 27.9532L12.3215 23.1534C12.1931 23.0916 12.0914 22.9741 12.0389 22.8267C12.0128 22.7537 11.9996 22.6756 12 22.5968C12.0004 22.518 12.0144 22.44 12.0411 22.3674C12.0679 22.2947 12.1069 22.2288 12.1559 22.1734C12.205 22.118 12.2631 22.0742 12.3269 22.0444C12.4559 21.9843 12.6005 21.9852 12.7289 22.047L22.5 26.7484L32.2711 22.047C32.3347 22.0164 32.4029 22.0005 32.4719 22C32.5409 21.9996 32.6092 22.0147 32.6731 22.0444C32.7369 22.0742 32.795 22.118 32.8441 22.1734C32.8931 22.2288 32.9321 22.2947 32.9589 22.3674C32.9856 22.44 32.9996 22.518 33 22.5968C33.0004 22.6756 32.9872 22.7537 32.9611 22.8267C32.9351 22.8997 32.8968 22.9661 32.8483 23.0222C32.7998 23.0782 32.7421 23.1228 32.6785 23.1534L22.7037 27.9532C22.6392 27.9841 22.5699 28 22.5 28Z" fill="#3F65FC" stroke="#3F65FC" stroke-width="0.5"/>
<path d="M22.5 32C22.4301 32 22.3608 31.9841 22.2963 31.9532L12.3215 27.1534C12.1931 27.0916 12.0914 26.9741 12.0389 26.8267C11.9863 26.6793 11.9871 26.5141 12.0411 26.3674C12.0951 26.2207 12.1979 26.1045 12.3269 26.0444C12.4559 25.9843 12.6005 25.9852 12.7289 26.047L22.5 30.7484L32.2711 26.047C32.3347 26.0164 32.4029 26.0005 32.4719 26C32.5409 25.9996 32.6092 26.0147 32.6731 26.0444C32.7369 26.0742 32.795 26.118 32.8441 26.1734C32.8931 26.2288 32.9321 26.2947 32.9589 26.3674C32.9856 26.44 32.9996 26.518 33 26.5968C33.0004 26.6756 32.9872 26.7537 32.9611 26.8267C32.9351 26.8997 32.8968 26.9661 32.8483 27.0222C32.7998 27.0782 32.7421 27.1228 32.6785 27.1534L22.7037 31.9532C22.6392 31.9841 22.5699 32 22.5 32Z" fill="#3F65FC" stroke="#3F65FC" stroke-width="0.5"/>
</svg>
