<svg width="53" height="41" viewBox="0 0 53 41" fill="none" xmlns="http://www.w3.org/2000/svg">
<path d="M0 41V30.2105C0 26.9337 0.574365 23.4571 1.72309 19.7807C2.91143 16.0643 4.61472 12.4878 6.83296 9.05117C9.09081 5.57456 11.8042 2.5575 14.9731 0L22.5785 6.23392C20.083 9.83041 17.9043 13.5867 16.0426 17.5029C14.2205 21.3791 13.3094 25.5351 13.3094 29.9708V41H0ZM30.4215 41V30.2105C30.4215 26.9337 30.9959 23.4571 32.1446 19.7807C33.333 16.0643 35.0362 12.4878 37.2545 9.05117C39.5123 5.57456 42.2257 2.5575 45.3946 0L53 6.23392C50.5045 9.83041 48.3259 13.5867 46.4641 17.5029C44.642 21.3791 43.7309 25.5351 43.7309 29.9708V41H30.4215Z" fill="#E8EBF7"/>
</svg>
