<svg xmlns="http://www.w3.org/2000/svg" fill="none" viewBox="0 0 111 36">
    <g fill="#CFD1D7" clip-path="url(#a)">
        <path d="M19.8725 36s-1.2658-21.2833-.6286-29.88072C19.6486.653082 20.5097 7.9e-7 20.5097 7.9e-7S25.4866-.0178918 25.9344 5.33201c.5166 10.52979-6.0619 30.65909-6.0619 30.65909m-8.6706-.1433S8.16234 18.9661 6.5952 10.1092C5.55331 4.24938 4.11533 2.979 4.11533 2.979S1.72157 4.28517.361087 9.50982C-1.55048 16.819 4.46837 27.7782 11.2019 35.8478Zm12.7617.0001s3.0395-16.8817 4.6067-25.7475c1.0419-5.85981 2.4798-7.13019 2.4798-7.13019s2.3938 1.30617 3.7543 6.53082C36.7159 16.8102 30.6971 27.7694 23.9636 35.839M15.292 36s1.2658-21.2833.6286-29.88072C15.5159.653082 14.6548 7.9e-7 14.6548 7.9e-7S9.67784-.0178918 9.23008 5.33201C8.71344 15.8618 15.292 35.9911 15.292 35.9911m33.3496-17.356v-5.1083h5.2697v-2.8897h-5.2697V8.66h7.0177V5.75244h-10.66V18.6441h3.6509l-.0086-.009Zm11.9088 0v-5.1083h5.2611v-2.8897h-5.2611V8.66h7.0091V5.75244h-10.66V18.6441h3.6509v-.009Zm8.2577-.0001h6.4494c3.2893 0 5.0372-1.4314 5.0372-4.1332.0603-1.2794-.7147-2.4334-1.8943-2.8092l-.1636-.0715.155-.0895c.9557-.5278 1.5929-1.1541 1.5929-2.48709 0-2.25447-1.4896-3.31013-4.6842-3.31013h-6.4838V18.626l-.0086.009Zm6.5097-2.6839h-3.0482v-2.7108h3.074c.8955 0 1.4208.4831 1.4208 1.333.0344.7336-.5081 1.3509-1.2142 1.3778-.0775 0-.1463 0-.2238-.009m-.1378-5.2962h-2.919V8.42722h2.919c1.0419 0 1.2658.60835 1.2658 1.10934 0 .73364-.422 1.10934-1.2658 1.10934Zm19.0292 7.9889h4.3311c5.0891 0 7.2671-1.9503 7.2671-6.5219 0-4.57153-2.135-6.36974-6.914-6.36974h-4.6756V18.6348h-.0086Zm4.5464-2.9254h-.8955V8.67756h1.016c2.3253 0 3.2293.98409 3.2293 3.49804 0 2.5139-.904 3.5338-3.3412 3.5338M87.2429 5.51074c-1.6016.06263-3.186.30418-4.7273.7336l.155 2.71074c1.4724-.52784 3.0223-.76044 4.5723-.67098 1.4379.06263 1.9029.7336 1.9029 1.63718v.72462c-.7835-.322-1.6188-.4741-2.4626-.4652-2.876 0-4.0126 1.1004-4.3226 1.3688-1.1882 1.0109-1.6188 3.1402-.4994 5.0189 1.3433 2.2545 4.7703 2.0755 4.7703 2.0755h2.5229c.973 0 3.5046-.0536 3.5046-.0536v-8.5885c0-2.87177-2.1871-4.48211-5.4161-4.48211M88.0178 15.96h-.9558c-1.5929 0-2.3334-.5815-2.3334-1.5656 0-1.154.8007-1.6103 2.3334-1.6103.7147 0 1.4294.161 2.0838.4652v2.675s-1.3432.0357-1.128.0357ZM47.9606 34.0588h-.0086c-.3014.3579-.7405.5636-1.1969.5368-.9385.0179-1.7049-.7604-1.7221-1.7267-.0172-.9751.7319-1.7713 1.6619-1.7892h.0602c.4564-.0269.9042.17 1.1969.5368h.0086v-1.7088h.6028v4.5805h-.6028v-.4294Zm-1.1366 0c.6544 0 1.1797-.5457 1.1797-1.2256 0-.68-.5253-1.2257-1.1797-1.2257s-1.1796.5457-1.1796 1.2257c0 .6799.5252 1.2256 1.1796 1.2256Zm2.9715-1.0467c.0516.6173.5683 1.0826 1.1624 1.0557.4219.0358.818-.2058 1.0161-.5904h.6371c-.2583.6888-.9127 1.1451-1.6274 1.1272-.9471.0626-1.7652-.6799-1.8254-1.664-.0603-.9841.6544-1.834 1.6016-1.8966h.2238c.9042-.0448 1.6705.6799 1.7136 1.6192v.3489h-2.9018Zm2.2646-.5009c-.0689-.5637-.5511-.9752-1.1022-.9394-.5597-.0358-1.0505.3668-1.1452.9394h2.2474Zm3.3574-2.5678h2.3851c.9128 0 1.3261.4294 1.3261 1.1361.0344.4295-.2239.8321-.6286.9573.508.1074.8697.5905.818 1.1272.0086.7157-.5425 1.3062-1.2313 1.3151h-2.6693v-4.5357Zm2.3765 1.8787c.465 0 .6975-.2773.6975-.6352 0-.4115-.2067-.6531-.7319-.6531h-1.7049v1.2883h1.7393Zm-.0086 2.0845c.7061 0 .8955-.3847.8955-.7694 0-.3579-.198-.7247-.8438-.7247h-1.7824v1.4941h1.7307Zm2.1613-1.7086c.0775-.832.6199-1.1541 1.5671-1.1541.6458 0 1.4466.17 1.4466.9484v1.7982c0 .1968.0861.2862.2756.2862.0688 0 .1377-.0089.2066-.0268v.4473c-.155.0269-.31.0358-.4736.0358-.3014 0-.4994-.0895-.5425-.4652-.353.3668-.8438.5636-1.3432.5368-1.0505 0-1.283-.5726-1.283-1.002 0-.6084.3444-.9215 1.3519-1.0378l.6888-.0805c.3358-.0358.5511-.0984.5511-.4026 0-.4562-.4219-.5457-.9127-.5457-.5167 0-.9558.1431-.973.662h-.5683.0086Zm2.454.5457c-.0947.1074-.2497.1521-.5941.1969l-.6803.0894c-.4649.0627-.7146.1968-.7146.5458 0 .3131.2927.5278.7319.5278.6802 0 1.2485-.3847 1.2485-.9394v-.4294l.0086.0089Zm4.2023 1.3151h-.0086c-.3014.3579-.7405.5636-1.1969.5368-.9385.0179-1.7049-.7604-1.7221-1.7267-.0172-.9751.7319-1.7713 1.6619-1.7892h.0602c.4564-.0269.9042.17 1.1969.5368h.0086v-1.7088h.6028v4.5805h-.6028v-.4294Zm-1.128 0c.6544.0179 1.1969-.5278 1.2055-1.1988.0086-.671-.508-1.2435-1.1538-1.2525-.6458-.0089-1.1969.5278-1.2055 1.1988v.0269c-.0431.6262.4047 1.1809 1.0075 1.2256h.1463Zm7.2577-1.691c.043-.3937-.2239-.7426-.5942-.7963h-.1636c-.5511 0-1.0333.2774-1.0333.8947v2.0129h-.6027v-2.1203c.043-.3936-.2239-.7425-.5941-.7962h-.1637c-.5252-.0537-.9816.3489-1.0332.8857v2.0219h-.6028v-3.3281h.6028v.501h.0086c.2841-.4115.7491-.6441 1.2313-.6173.4392-.0089.8525.2237 1.0763.6173.3014-.4115.775-.6441 1.2744-.6173.62-.0447 1.1538.4384 1.1969 1.0825v2.3708h-.6027v-2.1203.009Zm1.3274-1.7623h.6027v-.6978h-.6027v.6978Zm0 3.8827h.6027v-3.328h-.6027v3.328Zm1.3336-3.3371h.6027v.501h.0086c.2842-.4115.7492-.6441 1.2314-.6173.7577 0 1.326.34 1.326 1.1809v2.2724h-.6027v-2.1382c0-.492-.2928-.7694-.93-.7694-.5166-.0536-.9816.3489-1.0333.8857v2.0219h-.6027v-3.337Zm4.1674-1.0198h.6027v1.0199h.9041v.4921h-.9041v2.0576c0 .2684.1808.3668.4908.3668.1378 0 .2756-.0179.4133-.0447v.5368c-.2238.0358-.4477.0447-.6716.0447-.5941 0-.8352-.3042-.8352-.7873v-2.165h-.6458v-.492h.6458v-1.0289Zm3.6602.9035c.9471.0626 1.6618.9126 1.6015 1.8966-.0602.9841-.8783 1.7267-1.8254 1.6641-.9041-.0627-1.6102-.841-1.6102-1.7804-.0345-.9572.6802-1.7534 1.6016-1.7892h.2238m0 .5368c-.663 0-1.2055.5546-1.2055 1.2435 0 .6889.5339 1.2525 1.1969 1.2525.6631 0 1.2055-.5547 1.2055-1.2436.0517-.6351-.4133-1.1988-1.0246-1.2435h-.1723m2.4283-.4205h.6027v.501h.0172c.2842-.4115.7492-.6441 1.2314-.6173.7577 0 1.326.34 1.326 1.1809v2.2724h-.6027v-2.1382c0-.492-.2928-.7694-.93-.7694-.5166-.0536-.9816.3489-1.0333.8857v2.0219h-.6027v-3.337h-.0086Zm-40.5981-7.3088h3.3324v.5815h-2.6866v1.3419h2.566v.5816h-2.566v2.0308h-.6371v-4.5358h-.0087Zm4.2972 3.0683c.0516.6173.5683 1.0826 1.1624 1.0557.4219.0358.818-.2057 1.0161-.5904h.6371c-.2583.6888-.9127 1.1451-1.6274 1.1272-.9471.0626-1.7652-.6799-1.834-1.664-.0603-.9841.6544-1.834 1.6015-1.9056h.2325c.9042-.0447 1.6705.6799 1.7136 1.6193v.3489H49.34v.0089Zm2.2646-.492c-.0689-.5636-.5511-.9751-1.1022-.9394-.5597-.0357-1.0505.3758-1.1452.9394h2.2474Zm-.9644-2.6749h.7491l-.7922.8946h-.4822l.5167-.8946h.0086Zm4.9944 4.2135c-.3014.3579-.7405.5637-1.1969.5458-.9386.0179-1.7135-.7605-1.7307-1.7267-.0173-.9751.7319-1.7803 1.6618-1.7982h.0603c.4564-.0268.9041.1789 1.1969.5368h.0086v-1.7087h.6027v4.5805h-.6027v-.4295Zm-1.128 0c.6544.0179 1.1969-.5188 1.2055-1.1988.0172-.6799-.4994-1.2435-1.1539-1.2524-.6544-.0179-1.1968.5188-1.2054 1.1988v.0268c-.0431.6262.4047 1.1809 1.016 1.2256h.1464m2.9612-1.0466c.0602.6173.5683 1.0826 1.1624 1.0557.4219.0358.8266-.1968 1.0161-.5904h.6372c-.2584.6978-.9128 1.1451-1.6275 1.1272-.9471.0626-1.7651-.6799-1.834-1.664-.0603-.9841.6544-1.834 1.6016-1.9056h.2324c.9042-.0447 1.6705.6799 1.7136 1.6193v.3489h-2.9018v.0089Zm2.2646-.492c-.0689-.5636-.5511-.9751-1.1022-.9394-.5597-.0357-1.0505.3758-1.1452.9394h2.2474Zm-.9644-2.6749h.7491l-.7922.8946h-.4822l.5167-.8946h.0086Zm2.2132 1.3062h.6028v.6083h.0086c.198-.4383.6199-.7157 1.0849-.7246.112 0 .2325 0 .3444.0358v.6888c-.1377-.0357-.2841-.0626-.4305-.0626-.5252-.0447-.973.3668-1.0161.9036v1.8787h-.6027v-3.328h.0086Zm2.4029 1.0466c.0775-.832.62-1.1541 1.5672-1.1541.6458 0 1.4466.17 1.4466.9483v1.7982c0 .1968.0861.2863.2669.2863.0689 0 .1378-.009.2066-.0269v.4474c-.155.0268-.3099.0357-.4649.0357-.3014 0-.4995-.0894-.5425-.4652-.353.3668-.8439.5637-1.3433.5368-1.0505 0-1.283-.5725-1.283-1.002 0-.6083.3445-.9214 1.3519-1.0377l.6889-.0806c.3358-.0357.551-.0984.551-.4025 0-.4563-.4219-.5458-.9041-.5458-.5166 0-.9558.1432-.973.6621h-.5683Zm2.4541.5457c-.0861.1073-.2497.1521-.5856.1968l-.6802.0895c-.465.0626-.7147.1968-.7147.5457 0 .3131.2928.5278.7319.5278.6803 0 1.2486-.3847 1.2486-.9393v-.4295.009Zm1.7134-2.6124h.6028v1.0288h.9041v.4921h-.9041v2.0576c0 .2684.1808.3579.4908.3579.1378 0 .2755-.0179.4133-.0448v.5368c-.2239.0358-.4478.0537-.6716.0447-.5942 0-.8353-.3041-.8353-.7872v-2.165h-.6544v-.4921h.6544v-1.0288Zm1.9625.4742h.6028v-.6978h-.6028v.6978Zm0 3.8827h.6028v-3.3281h-.6028v3.3281Zm3.0308-3.4534c.9471.0626 1.6618.9125 1.6015 1.8966-.0602.9841-.8782 1.7266-1.8254 1.664-.9041-.0626-1.6016-.841-1.6016-1.7803-.0344-.9573.6802-1.7535 1.6016-1.7893h.2325m0 .5368c-.6631 0-1.2055.5547-1.2055 1.2346 0 .6889.5338 1.2525 1.1883 1.2525.663 0 1.2054-.5547 1.2054-1.2346.0517-.6352-.4133-1.1988-1.0246-1.2436h-.1722m2.42-.42h.6028v.501h.0086c.2841-.4116.7491-.6531 1.2399-.6173.7577 0 1.326.3399 1.326 1.1809v2.2723h-.6027v-2.1381c0-.4921-.2928-.7694-.93-.7694-.5252-.0537-.9816.3489-1.0332.8857v2.0308h-.6028v-3.337l-.0086-.0089Zm6.0441-1.2077h3.3323v.5815h-2.6865v1.3419h2.566v.5816h-2.566v2.0308h-.6372v-4.5358h-.0086Zm3.806 1.2076h.6027v.6083h.0086c.1981-.4383.62-.7157 1.085-.7246.1119 0 .2324 0 .3444.0358v.6888c-.1378-.0357-.2842-.0626-.4306-.0626-.5252-.0447-.973.3668-1.016.9036v1.8787h-.6028v-3.328h.0087Zm2.4031 1.0466c.0775-.832.62-1.1541 1.5671-1.1541.6458 0 1.4466.17 1.4466.9483v1.7982c0 .1968.0861.2863.267.2863.0689 0 .1377-.009.2066-.0269v.4474c-.155.0268-.31.0357-.465.0357-.3013 0-.4994-.0894-.5424-.4652-.3531.3668-.8439.5637-1.3433.5368-1.0505 0-1.283-.5725-1.283-1.002 0-.6083.3444-.9214 1.3519-1.0377l.6889-.0806c.3358-.0357.551-.0984.551-.4025 0-.4563-.4219-.5458-.9041-.5458-.5166 0-.9558.1432-.973.6621h-.5683Zm2.454.5457c-.0861.1073-.2497.1521-.5855.1968l-.6802.0895c-.465.0626-.7147.1968-.7147.5457 0 .3131.2928.5278.7319.5278.6802 0 1.2485-.3847 1.2485-.9393v-.4295.009Zm1.4544-1.5922h.6028v.501h.0086c.2755-.4116.7491-.6531 1.2313-.6173.7578 0 1.3261.3399 1.3261 1.1809v2.2723h-.6028v-2.1381c0-.4921-.2928-.7694-.9299-.7694-.5167-.0537-.9817.3489-1.0333.8857v2.0308h-.6028V25.05Zm7.0868 2.1109c-.1033.7604-.7233 1.3241-1.4638 1.3241l-.1464.2594c.0689 0 .1206-.0268.2067-.0268.2841 0 .5338.1252.5338.4115 0 .3936-.3788.5368-.7233.5368-.2152 0-.4305-.0358-.6371-.0895l.0774-.3042c.1464.0537.3014.0805.4478.0805.1636 0 .3272-.0715.3272-.1968 0-.0805-.0689-.1878-.2583-.1878-.0947 0-.1894.0178-.2756.0447l-.1119-.1163.2411-.4205c-.8697.0179-1.5757-.7068-1.593-1.6014v-.1521c-.0689-.9214.6028-1.7266 1.4897-1.7982h.2239c.8438 0 1.5068.4026 1.636 1.2257h-.6372c-.0689-.4295-.3961-.6979-.9558-.6979-.663.0537-1.1624.6442-1.1108 1.3331.0431.6172.5167 1.1093 1.1108 1.154.4822.0537.9041-.3041.9644-.8051h.6372l.0172.0268Zm.56-1.0644c.0775-.832.62-1.1541 1.5671-1.1541.646 0 1.447.17 1.447.9483v1.7982c0 .1968.086.2863.267.2863.068 0 .137-.009.215-.0269v.4474c-.155.0268-.31.0357-.465.0357-.301 0-.5-.0894-.543-.4652-.353.3668-.843.5637-1.3428.5368-1.0505 0-1.283-.5725-1.283-1.002 0-.6083.3444-.9214 1.3518-1.0377l.689-.0806c.336-.0357.551-.0984.551-.4025 0-.4563-.422-.5458-.913-.5458-.5164 0-.9555.1432-.9728.6621h-.5683Zm2.4541.5457c-.086.1073-.25.1521-.594.1968l-.6804.0895c-.4736.0626-.7147.1968-.7147.5457 0 .3131.2928.5278.7319.5278.6802 0 1.2482-.3847 1.2482-.9393v-.4295l.009.009Zm1.455-2.1382h.602v-.6978h-.602v.6978Zm0 3.8827h.602v-3.3281h-.602v3.3281Zm1.748-1.0555c0 .2952.232.671.99.671s.964-.2863.964-.5189c0-.2326-.112-.3758-.594-.4473l-.999-.1432c-.465-.0179-.835-.4025-.852-.8856 0-.671.551-1.0736 1.438-1.0736 1.033 0 1.49.4741 1.541 1.1183h-.603c-.017-.34-.318-.6263-.947-.6263-.387 0-.826.1163-.826.51 0 .2236.094.3489.525.4115l.852.1163c.793.1163 1.103.4115 1.103.8857 0 .7783-.62 1.1362-1.585 1.1362-.723 0-1.55-.1968-1.619-1.163h.603l.009.0089Zm3.652-.4205c.052.6173.568 1.0825 1.162 1.0557.422.0358.827-.1968 1.016-.5904h.638c-.259.6888-.913 1.1451-1.628 1.1272-.947.0626-1.765-.6799-1.834-1.664-.06-.9841.654-1.834 1.602-1.9056h.232c.904-.0447 1.671.6799 1.714 1.6193v.3489h-2.902v.0089Zm2.264-.492c-.068-.5636-.551-.9752-1.102-.9394-.559-.0358-1.05.3758-1.145.9394h2.247Z" />
    </g>
    <defs>
        <clipPath id="a">
            <path fill="#fff" d="M0 0h111v36H0z" />
        </clipPath>
    </defs>
</svg>