<svg xmlns="http://www.w3.org/2000/svg" width="111" height="36" viewBox="0 0 111 36" fill="none">
  <g clip-path="url(#clip0_285_46)">
    <path d="M19.8725 36C19.8725 36 18.6067 14.7167 19.2439 6.11928C19.6486 0.653082 20.5097 7.89951e-07 20.5097 7.89951e-07C20.5097 7.89951e-07 25.4866 -0.0178918 25.9344 5.33201C26.451 15.8618 19.8725 35.9911 19.8725 35.9911" fill="#CFD1D7"/>
    <path d="M11.2019 35.8478C11.2019 35.8478 8.16234 18.9661 6.5952 10.1092C5.55331 4.24938 4.11533 2.979 4.11533 2.979C4.11533 2.979 1.72157 4.28517 0.361087 9.50982C-1.55048 16.819 4.46837 27.7782 11.2019 35.8478Z" fill="#CFD1D7"/>
    <path d="M23.9636 35.8479C23.9636 35.8479 27.0031 18.9662 28.5703 10.1004C29.6122 4.24059 31.0501 2.97021 31.0501 2.97021C31.0501 2.97021 33.4439 4.27638 34.8044 9.50103C36.7159 16.8102 30.6971 27.7694 23.9636 35.839" fill="#CFD1D7"/>
    <path d="M15.292 36C15.292 36 16.5578 14.7167 15.9206 6.11928C15.5159 0.653082 14.6548 7.89951e-07 14.6548 7.89951e-07C14.6548 7.89951e-07 9.67784 -0.0178918 9.23008 5.33201C8.71344 15.8618 15.292 35.9911 15.292 35.9911" fill="#CFD1D7"/>
    <path d="M48.6416 18.6351V13.5268H53.9113V10.6371H48.6416V8.66H55.6593V5.75244H44.9993V18.6441H48.6502L48.6416 18.6351Z" fill="#CFD1D7"/>
    <path d="M60.5504 18.6351V13.5268H65.8115V10.6371H60.5504V8.66H67.5595V5.75244H56.8995V18.6441H60.5504V18.6351Z" fill="#CFD1D7"/>
    <path d="M68.8081 18.635H75.2575C78.5468 18.635 80.2947 17.2036 80.2947 14.5018C80.355 13.2224 79.58 12.0684 78.4004 11.6926L78.2368 11.6211L78.3918 11.5316C79.3475 11.0038 79.9847 10.3775 79.9847 9.04451C79.9847 6.79004 78.4951 5.73438 75.3005 5.73438H68.8167V18.626L68.8081 18.635ZM75.3178 15.9511H72.2696V13.2403H75.3436C76.2391 13.2403 76.7644 13.7234 76.7644 14.5733C76.7988 15.3069 76.2563 15.9242 75.5502 15.9511C75.4727 15.9511 75.4039 15.9511 75.3264 15.9421M75.1886 10.6459H72.2696V8.42722H75.1886C76.2305 8.42722 76.4544 9.03557 76.4544 9.53656C76.4544 10.2702 76.0324 10.6459 75.1886 10.6459Z" fill="#CFD1D7"/>
    <path d="M94.2178 18.6348H98.5489C103.638 18.6348 105.816 16.6845 105.816 12.1129C105.816 7.54137 103.681 5.74316 98.902 5.74316H94.2264V18.6348H94.2178ZM98.7642 15.7094H97.8687V8.67756H98.8847C101.21 8.67756 102.114 9.66165 102.114 12.1756C102.114 14.6895 101.21 15.7094 98.7728 15.7094" fill="#CFD1D7"/>
    <path d="M87.2429 5.51074C85.6413 5.57337 84.0569 5.81492 82.5156 6.24434L82.6706 8.95508C84.143 8.42724 85.6929 8.19464 87.2429 8.2841C88.6808 8.34673 89.1458 9.0177 89.1458 9.92128V10.6459C88.3623 10.3239 87.527 10.1718 86.6832 10.1807C83.8072 10.1807 82.6706 11.2811 82.3606 11.5495C81.1724 12.5604 80.7418 14.6897 81.8612 16.5684C83.2045 18.8229 86.6315 18.6439 86.6315 18.6439H89.1544C90.1274 18.6439 92.659 18.5903 92.659 18.5903V10.0018C92.659 7.13003 90.4719 5.51969 87.2429 5.51969M88.0178 15.96H87.062C85.4691 15.96 84.7286 15.3785 84.7286 14.3944C84.7286 13.2404 85.5293 12.7841 87.062 12.7841C87.7767 12.7841 88.4914 12.9451 89.1458 13.2493V15.9243C89.1458 15.9243 87.8026 15.96 88.0178 15.96Z" fill="#CFD1D7"/>
    <path d="M47.9606 34.0588H47.952C47.6506 34.4167 47.2115 34.6224 46.7551 34.5956C45.8166 34.6135 45.0502 33.8352 45.033 32.8689C45.0158 31.8938 45.7649 31.0976 46.6949 31.0797C46.7121 31.0797 46.7379 31.0797 46.7551 31.0797C47.2115 31.0528 47.6593 31.2497 47.952 31.6165H47.9606V29.9077H48.5634V34.4882H47.9606V34.0588ZM46.824 34.0588C47.4784 34.0588 48.0037 33.5131 48.0037 32.8332C48.0037 32.1532 47.4784 31.6075 46.824 31.6075C46.1696 31.6075 45.6444 32.1532 45.6444 32.8332C45.6444 33.5131 46.1696 34.0588 46.824 34.0588Z" fill="#CFD1D7"/>
    <path d="M49.7955 33.0121C49.8471 33.6294 50.3638 34.0947 50.9579 34.0678C51.3798 34.1036 51.7759 33.862 51.974 33.4774H52.6111C52.3528 34.1662 51.6984 34.6225 50.9837 34.6046C50.0366 34.6672 49.2185 33.9247 49.1583 32.9406C49.098 31.9565 49.8127 31.1066 50.7599 31.044C50.8374 31.044 50.9062 31.044 50.9837 31.044C51.8879 30.9992 52.6542 31.7239 52.6973 32.6632C52.6973 32.7527 52.6973 32.8422 52.6973 32.9316V33.0121H49.7955ZM52.0601 32.5112C51.9912 31.9475 51.509 31.536 50.9579 31.5718C50.3982 31.536 49.9074 31.9386 49.8127 32.5112H52.0601Z" fill="#CFD1D7"/>
    <path d="M55.4175 29.9434H57.8026C58.7154 29.9434 59.1287 30.3728 59.1287 31.0795C59.1631 31.509 58.9048 31.9116 58.5001 32.0368C59.0081 32.1442 59.3698 32.6273 59.3181 33.164C59.3267 33.8797 58.7756 34.4702 58.0868 34.4791C58.0437 34.4791 58.0007 34.4791 57.9576 34.4791H55.4175V29.9434ZM57.794 31.8221C58.259 31.8221 58.4915 31.5448 58.4915 31.1869C58.4915 30.7754 58.2848 30.5338 57.7596 30.5338H56.0547V31.8221H57.794ZM57.7854 33.9066C58.4915 33.9066 58.6809 33.5219 58.6809 33.1372C58.6809 32.7793 58.4829 32.4125 57.8371 32.4125H56.0547V33.9066H57.7854Z" fill="#CFD1D7"/>
    <path d="M59.9467 32.198C60.0242 31.366 60.5666 31.0439 61.5138 31.0439C62.1596 31.0439 62.9604 31.2139 62.9604 31.9923V33.7905C62.9604 33.9873 63.0465 34.0767 63.236 34.0767C63.3048 34.0767 63.3737 34.0678 63.4426 34.0499V34.4972C63.2876 34.5241 63.1326 34.533 62.969 34.533C62.6676 34.533 62.4696 34.4435 62.4265 34.0678C62.0735 34.4346 61.5827 34.6314 61.0833 34.6046C60.0328 34.6046 59.8003 34.032 59.8003 33.6026C59.8003 32.9942 60.1447 32.6811 61.1522 32.5648L61.841 32.4843C62.1768 32.4485 62.3921 32.3859 62.3921 32.0817C62.3921 31.6255 61.9702 31.536 61.4794 31.536C60.9627 31.536 60.5236 31.6791 60.5064 32.198H59.9381H59.9467ZM62.4007 32.7437C62.306 32.8511 62.151 32.8958 61.8066 32.9406L61.1263 33.03C60.6614 33.0927 60.4117 33.2268 60.4117 33.5758C60.4117 33.8889 60.7044 34.1036 61.1436 34.1036C61.8238 34.1036 62.3921 33.7189 62.3921 33.1642V32.7348L62.4007 32.7437Z" fill="#CFD1D7"/>
    <path d="M66.603 34.0588H66.5944C66.293 34.4167 65.8539 34.6224 65.3975 34.5956C64.459 34.6135 63.6926 33.8352 63.6754 32.8689C63.6582 31.8938 64.4073 31.0976 65.3373 31.0797C65.3545 31.0797 65.3803 31.0797 65.3975 31.0797C65.8539 31.0528 66.3017 31.2497 66.5944 31.6165H66.603V29.9077H67.2058V34.4882H66.603V34.0588ZM65.475 34.0588C66.1294 34.0767 66.6719 33.531 66.6805 32.86C66.6891 32.189 66.1725 31.6165 65.5267 31.6075C64.8809 31.5986 64.3298 32.1353 64.3212 32.8063C64.3212 32.8063 64.3212 32.8242 64.3212 32.8332C64.2781 33.4594 64.7259 34.0141 65.3287 34.0588C65.3803 34.0588 65.4234 34.0588 65.475 34.0588Z" fill="#CFD1D7"/>
    <path d="M72.7327 32.3678C72.7757 31.9741 72.5088 31.6252 72.1385 31.5715C72.0869 31.5715 72.0266 31.5715 71.9749 31.5715C71.4238 31.5715 70.9416 31.8489 70.9416 32.4662V34.4791H70.3389V32.3588C70.3819 31.9652 70.115 31.6163 69.7448 31.5626C69.6931 31.5626 69.6328 31.5626 69.5811 31.5626C69.0559 31.5089 68.5995 31.9115 68.5479 32.4483C68.5479 32.4841 68.5479 32.5199 68.5479 32.5467V34.4702H67.9451V31.1421H68.5479V31.6431H68.5565C68.8406 31.2316 69.3056 30.999 69.7878 31.0258C70.227 31.0169 70.6403 31.2495 70.8641 31.6431C71.1655 31.2316 71.6391 30.999 72.1385 31.0258C72.7585 30.9811 73.2923 31.4642 73.3354 32.1083C73.3354 32.1441 73.3354 32.1709 73.3354 32.2067V34.4791H72.7327V32.3588V32.3678Z" fill="#CFD1D7"/>
    <path d="M74.0601 30.6055H74.6628V29.9077H74.0601V30.6055ZM74.0601 34.4882H74.6628V31.1602H74.0601V34.4882Z" fill="#CFD1D7"/>
    <path d="M75.3937 31.1511H75.9964V31.6521H76.005C76.2892 31.2406 76.7542 31.008 77.2364 31.0348C77.9941 31.0348 78.5624 31.3748 78.5624 32.2157V34.4881H77.9597V32.3499C77.9597 31.8579 77.6669 31.5805 77.0297 31.5805C76.5131 31.5269 76.0481 31.9294 75.9964 32.4662C75.9964 32.502 75.9964 32.5378 75.9964 32.5646V34.4881H75.3937V31.1511Z" fill="#CFD1D7"/>
    <path d="M79.5611 30.1313H80.1638V31.1512H81.0679V31.6433H80.1638V33.7009C80.1638 33.9693 80.3446 34.0677 80.6546 34.0677C80.7924 34.0677 80.9302 34.0498 81.0679 34.023V34.5598C80.8441 34.5956 80.6202 34.6045 80.3963 34.6045C79.8022 34.6045 79.5611 34.3003 79.5611 33.8172V31.6522H78.9153V31.1602H79.5611V30.1403V30.1313Z" fill="#CFD1D7"/>
    <path d="M83.2213 31.0348C84.1684 31.0974 84.8831 31.9474 84.8228 32.9314C84.7626 33.9155 83.9445 34.6581 82.9974 34.5955C82.0933 34.5328 81.3872 33.7545 81.3872 32.8151C81.3527 31.8579 82.0674 31.0617 82.9888 31.0259C83.0663 31.0259 83.1438 31.0259 83.2126 31.0259M83.2126 31.5627C82.5496 31.5627 82.0071 32.1173 82.0071 32.8062C82.0071 33.4951 82.541 34.0587 83.204 34.0587C83.8671 34.0587 84.4095 33.504 84.4095 32.8151C84.4612 32.18 83.9962 31.6163 83.3849 31.5716C83.3246 31.5716 83.2729 31.5716 83.2126 31.5716" fill="#CFD1D7"/>
    <path d="M85.6409 31.1511H86.2436V31.6521H86.2608C86.545 31.2406 87.01 31.008 87.4922 31.0348C88.2499 31.0348 88.8182 31.3748 88.8182 32.2157V34.4881H88.2155V32.3499C88.2155 31.8579 87.9227 31.5805 87.2855 31.5805C86.7689 31.5269 86.3039 31.9294 86.2522 32.4662C86.2522 32.502 86.2522 32.5378 86.2522 32.5646V34.4881H85.6495V31.1511H85.6409Z" fill="#CFD1D7"/>
    <path d="M45.0428 23.8423H48.3752V24.4238H45.6886V25.7657H48.2546V26.3473H45.6886V28.3781H45.0515V23.8423H45.0428Z" fill="#CFD1D7"/>
    <path d="M49.34 26.9106C49.3916 27.5279 49.9083 27.9932 50.5024 27.9663C50.9243 28.0021 51.3204 27.7606 51.5185 27.3759H52.1556C51.8973 28.0647 51.2429 28.521 50.5282 28.5031C49.5811 28.5657 48.763 27.8232 48.6942 26.8391C48.6339 25.855 49.3486 25.0051 50.2957 24.9335C50.3732 24.9335 50.4507 24.9335 50.5282 24.9335C51.4324 24.8888 52.1987 25.6134 52.2418 26.5528C52.2418 26.6423 52.2418 26.7317 52.2418 26.8212V26.9017H49.34V26.9106ZM51.6046 26.4186C51.5357 25.855 51.0535 25.4435 50.5024 25.4792C49.9427 25.4435 49.4519 25.855 49.3572 26.4186H51.6046ZM50.6402 23.7437H51.3893L50.5971 24.6383H50.1149L50.6316 23.7437H50.6402Z" fill="#CFD1D7"/>
    <path d="M55.6346 27.9572C55.3332 28.3151 54.8941 28.5209 54.4377 28.503C53.4991 28.5209 52.7242 27.7425 52.707 26.7763C52.6897 25.8012 53.4389 24.996 54.3688 24.9781C54.386 24.9781 54.4119 24.9781 54.4291 24.9781C54.8855 24.9513 55.3332 25.157 55.626 25.5149H55.6346V23.8062H56.2373V28.3867H55.6346V27.9572ZM54.5066 27.9572C55.161 27.9751 55.7035 27.4384 55.7121 26.7584C55.7293 26.0785 55.2127 25.5149 54.5582 25.506C53.9038 25.4881 53.3614 26.0248 53.3528 26.7048C53.3528 26.7137 53.3528 26.7227 53.3528 26.7316C53.3097 27.3578 53.7575 27.9125 54.3688 27.9572C54.4205 27.9572 54.4635 27.9572 54.5152 27.9572" fill="#CFD1D7"/>
    <path d="M57.4764 26.9106C57.5366 27.5279 58.0447 27.9932 58.6388 27.9663C59.0607 28.0021 59.4654 27.7695 59.6549 27.3759H60.2921C60.0337 28.0737 59.3793 28.521 58.6646 28.5031C57.7175 28.5657 56.8995 27.8232 56.8306 26.8391C56.7703 25.855 57.485 25.0051 58.4322 24.9335C58.5097 24.9335 58.5871 24.9335 58.6646 24.9335C59.5688 24.8888 60.3351 25.6134 60.3782 26.5528C60.3782 26.6423 60.3782 26.7317 60.3782 26.8212V26.9017H57.4764V26.9106ZM59.741 26.4186C59.6721 25.855 59.1899 25.4435 58.6388 25.4792C58.0791 25.4435 57.5883 25.855 57.4936 26.4186H59.741ZM58.7766 23.7437H59.5257L58.7335 24.6383H58.2513L58.768 23.7437H58.7766Z" fill="#CFD1D7"/>
    <path d="M60.9898 25.0499H61.5926V25.6582H61.6012C61.7992 25.2199 62.2211 24.9425 62.6861 24.9336C62.7981 24.9336 62.9186 24.9336 63.0305 24.9694V25.6582C62.8928 25.6225 62.7464 25.5956 62.6 25.5956C62.0748 25.5509 61.627 25.9624 61.5839 26.4992C61.5839 26.5618 61.5839 26.6244 61.5839 26.6871V28.3779H60.9812V25.0499H60.9898Z" fill="#CFD1D7"/>
    <path d="M63.3927 26.0965C63.4702 25.2645 64.0127 24.9424 64.9599 24.9424C65.6057 24.9424 66.4065 25.1124 66.4065 25.8907V27.6889C66.4065 27.8857 66.4926 27.9752 66.6734 27.9752C66.7423 27.9752 66.8112 27.9662 66.88 27.9483V28.3957C66.725 28.4225 66.5701 28.4314 66.4151 28.4314C66.1137 28.4314 65.9156 28.342 65.8726 27.9662C65.5196 28.333 65.0287 28.5299 64.5293 28.503C63.4788 28.503 63.2463 27.9305 63.2463 27.501C63.2463 26.8927 63.5908 26.5796 64.5982 26.4633L65.2871 26.3827C65.6229 26.347 65.8381 26.2843 65.8381 25.9802C65.8381 25.5239 65.4162 25.4344 64.934 25.4344C64.4174 25.4344 63.9782 25.5776 63.961 26.0965H63.4013H63.3927ZM65.8468 26.6422C65.7607 26.7495 65.5971 26.7943 65.2612 26.839L64.581 26.9285C64.116 26.9911 63.8663 27.1253 63.8663 27.4742C63.8663 27.7873 64.1591 28.002 64.5982 28.002C65.2785 28.002 65.8468 27.6173 65.8468 27.0627V26.6332V26.6422Z" fill="#CFD1D7"/>
    <path d="M67.5602 24.0298H68.163V25.0586H69.0671V25.5507H68.163V27.6083C68.163 27.8767 68.3438 27.9662 68.6538 27.9662C68.7916 27.9662 68.9293 27.9483 69.0671 27.9214V28.4582C68.8432 28.494 68.6193 28.5119 68.3955 28.5029C67.8013 28.5029 67.5602 28.1988 67.5602 27.7157V25.5507H66.9058V25.0586H67.5602V24.0298Z" fill="#CFD1D7"/>
    <path d="M69.5227 24.504H70.1255V23.8062H69.5227V24.504ZM69.5227 28.3867H70.1255V25.0586H69.5227V28.3867Z" fill="#CFD1D7"/>
    <path d="M72.5535 24.9333C73.5006 24.9959 74.2153 25.8458 74.155 26.8299C74.0948 27.814 73.2768 28.5565 72.3296 28.4939C71.4255 28.4313 70.728 27.6529 70.728 26.7136C70.6936 25.7563 71.4082 24.9601 72.3296 24.9243C72.4071 24.9243 72.4846 24.9243 72.5621 24.9243M72.5621 25.4611C71.899 25.4611 71.3566 26.0158 71.3566 26.6957C71.3566 27.3846 71.8904 27.9482 72.5449 27.9482C73.2079 27.9482 73.7503 27.3935 73.7503 26.7136C73.802 26.0784 73.337 25.5148 72.7257 25.47C72.6654 25.47 72.6137 25.47 72.5535 25.47" fill="#CFD1D7"/>
    <path d="M74.9735 25.05H75.5763V25.551H75.5849C75.869 25.1394 76.334 24.8979 76.8248 24.9337C77.5825 24.9337 78.1508 25.2736 78.1508 26.1146V28.3869H77.5481V26.2488C77.5481 25.7567 77.2553 25.4794 76.6181 25.4794C76.0929 25.4257 75.6365 25.8283 75.5849 26.3651C75.5849 26.4009 75.5849 26.4366 75.5849 26.4724V28.3959H74.9821V25.0589L74.9735 25.05Z" fill="#CFD1D7"/>
    <path d="M81.0176 23.8423H84.3499V24.4238H81.6634V25.7657H84.2294V26.3473H81.6634V28.3781H81.0262V23.8423H81.0176Z" fill="#CFD1D7"/>
    <path d="M84.8236 25.0499H85.4263V25.6582H85.4349C85.633 25.2199 86.0549 24.9425 86.5199 24.9336C86.6318 24.9336 86.7523 24.9336 86.8643 24.9694V25.6582C86.7265 25.6225 86.5801 25.5956 86.4337 25.5956C85.9085 25.5509 85.4607 25.9624 85.4177 26.4992C85.4177 26.5618 85.4177 26.6244 85.4177 26.6871V28.3779H84.8149V25.0499H84.8236Z" fill="#CFD1D7"/>
    <path d="M87.2267 26.0965C87.3042 25.2645 87.8467 24.9424 88.7938 24.9424C89.4396 24.9424 90.2404 25.1124 90.2404 25.8907V27.6889C90.2404 27.8857 90.3265 27.9752 90.5074 27.9752C90.5763 27.9752 90.6451 27.9662 90.714 27.9483V28.3957C90.559 28.4225 90.404 28.4314 90.249 28.4314C89.9477 28.4314 89.7496 28.342 89.7066 27.9662C89.3535 28.333 88.8627 28.5299 88.3633 28.503C87.3128 28.503 87.0803 27.9305 87.0803 27.501C87.0803 26.8927 87.4247 26.5796 88.4322 26.4633L89.1211 26.3827C89.4569 26.347 89.6721 26.2843 89.6721 25.9802C89.6721 25.5239 89.2502 25.4344 88.768 25.4344C88.2514 25.4344 87.8122 25.5776 87.795 26.0965H87.2353H87.2267ZM89.6807 26.6422C89.5946 26.7495 89.431 26.7943 89.0952 26.839L88.415 26.9285C87.95 26.9911 87.7003 27.1253 87.7003 27.4742C87.7003 27.7873 87.9931 28.002 88.4322 28.002C89.1124 28.002 89.6807 27.6173 89.6807 27.0627V26.6332V26.6422Z" fill="#CFD1D7"/>
    <path d="M91.1351 25.05H91.7379V25.551H91.7465C92.022 25.1394 92.4956 24.8979 92.9778 24.9337C93.7356 24.9337 94.3039 25.2736 94.3039 26.1146V28.3869H93.7011V26.2488C93.7011 25.7567 93.4083 25.4794 92.7712 25.4794C92.2545 25.4257 91.7895 25.8283 91.7379 26.3651C91.7379 26.4009 91.7379 26.4366 91.7379 26.4724V28.3959H91.1351V25.0589V25.05Z" fill="#CFD1D7"/>
    <path d="M98.2219 27.1609C98.1186 27.9213 97.4986 28.485 96.7581 28.485L96.6117 28.7444C96.6806 28.7444 96.7323 28.7176 96.8184 28.7176C97.1025 28.7176 97.3522 28.8428 97.3522 29.1291C97.3522 29.5227 96.9734 29.6659 96.6289 29.6659C96.4137 29.6659 96.1984 29.6301 95.9918 29.5764L96.0692 29.2722C96.2156 29.3259 96.3706 29.3527 96.517 29.3527C96.6806 29.3527 96.8442 29.2812 96.8442 29.1559C96.8442 29.0754 96.7753 28.9681 96.5859 28.9681C96.4912 28.9681 96.3965 28.9859 96.3103 29.0128L96.1984 28.8965L96.4395 28.476C95.5698 28.4939 94.8638 27.7692 94.8465 26.8746C94.8465 26.8209 94.8465 26.7762 94.8465 26.7225C94.7776 25.8011 95.4493 24.9959 96.3362 24.9243C96.4137 24.9243 96.4826 24.9243 96.5601 24.9243C97.4039 24.9243 98.0669 25.3269 98.1961 26.15H97.5589C97.49 25.7205 97.1628 25.4521 96.6031 25.4521C95.9401 25.5058 95.4407 26.0963 95.4923 26.7852C95.5354 27.4024 96.009 27.8945 96.6031 27.9392C97.0853 27.9929 97.5072 27.6351 97.5675 27.1341H98.2047L98.2219 27.1609Z" fill="#CFD1D7"/>
    <path d="M98.7819 26.0965C98.8594 25.2645 99.4019 24.9424 100.349 24.9424C100.995 24.9424 101.796 25.1124 101.796 25.8907V27.6889C101.796 27.8857 101.882 27.9752 102.063 27.9752C102.131 27.9752 102.2 27.9662 102.278 27.9483V28.3957C102.123 28.4225 101.968 28.4314 101.813 28.4314C101.512 28.4314 101.313 28.342 101.27 27.9662C100.917 28.333 100.427 28.5299 99.9272 28.503C98.8767 28.503 98.6442 27.9305 98.6442 27.501C98.6442 26.8927 98.9886 26.5796 99.996 26.4633L100.685 26.3827C101.021 26.347 101.236 26.2843 101.236 25.9802C101.236 25.5239 100.814 25.4344 100.323 25.4344C99.8066 25.4344 99.3675 25.5776 99.3502 26.0965H98.7819ZM101.236 26.6422C101.15 26.7495 100.986 26.7943 100.642 26.839L99.9616 26.9285C99.488 26.9911 99.2469 27.1253 99.2469 27.4742C99.2469 27.7873 99.5397 28.002 99.9788 28.002C100.659 28.002 101.227 27.6173 101.227 27.0627V26.6332L101.236 26.6422Z" fill="#CFD1D7"/>
    <path d="M102.691 24.504H103.293V23.8062H102.691V24.504ZM102.691 28.3867H103.293V25.0586H102.691V28.3867Z" fill="#CFD1D7"/>
    <path d="M104.439 27.3312C104.439 27.6264 104.671 28.0022 105.429 28.0022C106.187 28.0022 106.393 27.7159 106.393 27.4833C106.393 27.2507 106.281 27.1075 105.799 27.036L104.8 26.8928C104.335 26.8749 103.965 26.4903 103.948 26.0072C103.948 25.3362 104.499 24.9336 105.386 24.9336C106.419 24.9336 106.876 25.4077 106.927 26.0519H106.324C106.307 25.7119 106.006 25.4256 105.377 25.4256C104.99 25.4256 104.551 25.5419 104.551 25.9356C104.551 26.1592 104.645 26.2845 105.076 26.3471L105.928 26.4634C106.721 26.5797 107.031 26.8749 107.031 27.3491C107.031 28.1274 106.411 28.4853 105.446 28.4853C104.723 28.4853 103.896 28.2885 103.827 27.3223H104.43L104.439 27.3312Z" fill="#CFD1D7"/>
    <path d="M108.091 26.9107C108.143 27.528 108.659 27.9932 109.253 27.9664C109.675 28.0022 110.08 27.7696 110.269 27.376H110.907C110.648 28.0648 109.994 28.5211 109.279 28.5032C108.332 28.5658 107.514 27.8233 107.445 26.8392C107.385 25.8551 108.099 25.0052 109.047 24.9336C109.124 24.9336 109.202 24.9336 109.279 24.9336C110.183 24.8889 110.95 25.6135 110.993 26.5529C110.993 26.6424 110.993 26.7318 110.993 26.8213V26.9018H108.091V26.9107ZM110.355 26.4187C110.287 25.8551 109.804 25.4435 109.253 25.4793C108.694 25.4435 108.203 25.8551 108.108 26.4187H110.355Z" fill="#CFD1D7"/>
  </g>
  <defs>
    <clipPath id="clip0_285_46">
      <rect width="111" height="36" fill="white"/>
    </clipPath>
  </defs>
</svg>