<svg width="126" height="27" viewBox="0 0 126 27" fill="none" xmlns="http://www.w3.org/2000/svg">
<path d="M12.0237 8.36963H8.6328L4.67416 13.8679L2.67928 16.785V8.65284H0V21.6441H2.67928V21.636L2.69095 21.64L5.13691 17.8491L8.62502 21.5025H12.4515L6.77014 15.5915L12.0237 8.36963Z" fill="#3D3D46"/>
<path d="M33.1148 8.54785H30.4355V21.6443H33.1148V8.54785Z" fill="#3D3D46"/>
<path d="M23.7603 9.45804C22.6637 8.53559 21.2249 8.01367 19.5645 8.01367C15.7536 8.01367 13.0977 10.8013 13.0977 14.8431C13.0977 18.8849 15.7536 21.6482 19.5645 21.6482C21.2249 21.6482 22.6637 21.1303 23.7603 20.2119V21.3933H26.4396V8.29284H23.7603V9.45804ZM19.5645 19.2409C17.3285 19.2409 15.8508 17.5012 15.8508 14.8148C15.8508 12.1283 17.3246 10.3886 19.5645 10.3886C21.8043 10.3886 23.3015 12.104 23.3015 14.8148C23.3015 17.5255 21.8277 19.2409 19.5645 19.2409Z" fill="#3D3D46"/>
<path d="M52.4336 8.01367C48.6227 8.01367 45.9668 10.8013 45.9668 14.8431C45.9668 18.8849 48.6227 21.6482 52.4336 21.6482C56.2445 21.6482 58.9238 18.8849 58.9238 14.8431C58.9238 10.8013 56.2678 8.01367 52.4336 8.01367ZM52.4336 19.2409C50.1976 19.2409 48.72 17.5012 48.72 14.8148C48.72 12.1283 50.1938 10.3886 52.4336 10.3886C54.6735 10.3886 56.1706 12.104 56.1706 14.8148C56.1706 17.5255 54.6968 19.2409 52.4336 19.2409Z" fill="#3D3D46"/>
<path d="M40.0562 9.4136V8.54779H37.377V21.6442H40.0562V14.5882C40.239 12.2012 41.6078 10.7164 43.6105 10.7164C43.9682 10.7164 44.3104 10.7609 44.6254 10.8539V8.41023C44.2987 8.36168 43.9604 8.3374 43.6105 8.3374C42.2455 8.3374 41.0362 8.72176 40.0562 9.4136Z" fill="#3D3D46"/>
<path d="M68.413 13.9204L65.9282 13.4592C64.5283 13.2043 63.8866 12.7673 63.8866 11.8206C63.8866 10.7444 64.8199 10.1052 66.2976 10.1052C67.8453 10.1052 68.9535 10.8456 68.9769 12.1766H71.6328C71.6095 9.56707 69.3696 8.03369 66.2976 8.03369C63.4472 8.03369 61.2074 9.56707 61.2074 11.9218C61.2074 13.7869 62.1679 15.118 64.6255 15.5549L67.157 16.0162C68.5841 16.2468 69.0741 16.7849 69.0741 17.7802C69.0741 18.9292 68.0903 19.5725 66.4454 19.5725C64.8005 19.5725 63.595 18.7795 63.5678 17.4241H60.8885C60.939 19.9811 63.175 21.6439 66.492 21.6439C69.4163 21.6439 71.8273 20.236 71.8273 17.5253C71.8273 15.5549 70.7462 14.3533 68.4091 13.9204H68.413Z" fill="#3D3D46"/>
<path d="M80.058 21.586V4.98H83.807V10.408C84.4357 10.0093 85.049 9.718 85.647 9.534C86.2603 9.35 86.8737 9.258 87.487 9.258C88.913 9.258 89.9863 9.77933 90.707 10.822C91.443 11.8647 91.811 13.4057 91.811 15.445C91.811 17.055 91.5887 18.3583 91.144 19.355C90.7147 20.3517 90.0247 21.08 89.074 21.54C88.1387 22 86.912 22.23 85.394 22.23C84.6427 22.23 83.807 22.1687 82.887 22.046C81.9823 21.9387 81.0393 21.7853 80.058 21.586ZM83.807 19.286C84.129 19.3627 84.4357 19.424 84.727 19.47C85.0183 19.516 85.2867 19.539 85.532 19.539C86.084 19.539 86.5363 19.424 86.889 19.194C87.2417 18.9487 87.5023 18.55 87.671 17.998C87.8397 17.4307 87.924 16.6717 87.924 15.721C87.924 14.9237 87.855 14.2873 87.717 13.812C87.579 13.3213 87.372 12.961 87.096 12.731C86.82 12.501 86.475 12.386 86.061 12.386C85.831 12.386 85.601 12.409 85.371 12.455C85.141 12.501 84.8957 12.5777 84.635 12.685C84.3897 12.7923 84.1137 12.9227 83.807 13.076V19.286ZM97.2386 4.98V17.584C97.2386 17.9673 97.2846 18.2663 97.3766 18.481C97.4686 18.6803 97.5913 18.8183 97.7446 18.895C97.9133 18.9563 98.0973 18.987 98.2966 18.987C98.4346 18.987 98.588 18.9717 98.7566 18.941C98.9406 18.9103 99.14 18.8643 99.3546 18.803L99.6996 21.678C99.3623 21.8313 98.979 21.9617 98.5496 22.069C98.1203 22.1763 97.6526 22.23 97.1466 22.23C96.3493 22.23 95.6746 22.0997 95.1226 21.839C94.586 21.563 94.1796 21.1107 93.9036 20.482C93.6276 19.8533 93.4896 19.0023 93.4896 17.929V4.98H97.2386ZM104.267 22.23C103.531 22.23 102.887 22.0997 102.335 21.839C101.783 21.563 101.346 21.1413 101.024 20.574C100.718 20.0067 100.564 19.3013 100.564 18.458V9.488H104.336V17.561C104.336 18.0823 104.467 18.4733 104.727 18.734C104.988 18.9793 105.348 19.102 105.808 19.102C106.054 19.102 106.284 19.079 106.498 19.033C106.728 18.987 106.951 18.918 107.165 18.826C107.395 18.734 107.641 18.6267 107.901 18.504V9.488H111.673V18.113C111.673 18.343 111.696 18.527 111.742 18.665C111.788 18.7877 111.857 18.8797 111.949 18.941C112.041 19.0023 112.149 19.033 112.271 19.033C112.44 19.033 112.601 18.9947 112.754 18.918L113.076 21.632C112.877 21.7393 112.655 21.839 112.409 21.931C112.164 22.023 111.888 22.092 111.581 22.138C111.29 22.1993 110.991 22.23 110.684 22.23C110.117 22.23 109.642 22.1227 109.258 21.908C108.89 21.678 108.591 21.3637 108.361 20.965C107.917 21.2257 107.48 21.4557 107.05 21.655C106.621 21.839 106.176 21.977 105.716 22.069C105.272 22.1763 104.789 22.23 104.267 22.23ZM119.767 22.23C118.786 22.23 117.92 22.115 117.168 21.885C116.417 21.6397 115.773 21.2717 115.236 20.781C114.715 20.275 114.316 19.631 114.04 18.849C113.764 18.0517 113.626 17.1087 113.626 16.02C113.626 14.778 113.78 13.7277 114.086 12.869C114.408 12.0103 114.845 11.3127 115.397 10.776C115.965 10.2393 116.632 9.856 117.398 9.626C118.165 9.38067 119.001 9.258 119.905 9.258C121.745 9.258 123.095 9.71033 123.953 10.615C124.827 11.5197 125.264 12.9917 125.264 15.031C125.264 15.1843 125.257 15.3837 125.241 15.629C125.241 15.859 125.234 16.089 125.218 16.319C124.835 16.3497 124.367 16.388 123.815 16.434C123.263 16.48 122.65 16.526 121.975 16.572C121.301 16.618 120.588 16.6563 119.836 16.687C119.085 16.7177 118.318 16.7407 117.536 16.756C117.521 16.802 117.513 16.848 117.513 16.894C117.513 16.94 117.513 16.9937 117.513 17.055C117.513 17.561 117.613 17.9827 117.812 18.32C118.027 18.642 118.349 18.8873 118.778 19.056C119.208 19.2093 119.767 19.286 120.457 19.286C120.887 19.286 121.339 19.263 121.814 19.217C122.29 19.171 122.773 19.1097 123.263 19.033C123.754 18.941 124.245 18.8413 124.735 18.734L125.172 21.448C124.636 21.6167 124.084 21.7623 123.516 21.885C122.949 22.0077 122.359 22.092 121.745 22.138C121.132 22.1993 120.473 22.23 119.767 22.23ZM117.559 14.525C117.958 14.525 118.357 14.5173 118.755 14.502C119.154 14.4867 119.53 14.4713 119.882 14.456C120.235 14.4253 120.549 14.4023 120.825 14.387C121.101 14.3717 121.331 14.364 121.515 14.364C121.5 13.7507 121.423 13.2677 121.285 12.915C121.147 12.547 120.948 12.2863 120.687 12.133C120.427 11.9797 120.097 11.903 119.698 11.903C119.422 11.903 119.169 11.9413 118.939 12.018C118.709 12.0947 118.495 12.2327 118.295 12.432C118.111 12.616 117.95 12.8843 117.812 13.237C117.69 13.5743 117.605 14.0037 117.559 14.525Z" fill="black"/>
</svg>
