<svg width="133" height="35" viewBox="0 0 133 35" fill="none" xmlns="http://www.w3.org/2000/svg">
<path d="M12.0237 12.3701H8.6328L4.67416 17.8684L2.67928 20.7855V12.6533H0V25.6446H2.67928V25.6365L2.69095 25.6405L5.13691 21.8496L8.62502 25.503H12.4515L6.77014 19.592L12.0237 12.3701Z" fill="white"/>
<path d="M33.1148 12.5479H30.4355V25.6443H33.1148V12.5479Z" fill="white"/>
<path d="M23.7603 13.458C22.6637 12.5356 21.2249 12.0137 19.5645 12.0137C15.7536 12.0137 13.0977 14.8013 13.0977 18.8431C13.0977 22.8849 15.7536 25.6482 19.5645 25.6482C21.2249 25.6482 22.6637 25.1303 23.7603 24.2119V25.3933H26.4396V12.2928H23.7603V13.458ZM19.5645 23.2409C17.3285 23.2409 15.8508 21.5012 15.8508 18.8148C15.8508 16.1283 17.3246 14.3886 19.5645 14.3886C21.8043 14.3886 23.3015 16.104 23.3015 18.8148C23.3015 21.5255 21.8277 23.2409 19.5645 23.2409Z" fill="white"/>
<path d="M52.4336 12.0137C48.6227 12.0137 45.9668 14.8013 45.9668 18.8431C45.9668 22.8849 48.6227 25.6482 52.4336 25.6482C56.2445 25.6482 58.9238 22.8849 58.9238 18.8431C58.9238 14.8013 56.2678 12.0137 52.4336 12.0137ZM52.4336 23.2409C50.1976 23.2409 48.72 21.5012 48.72 18.8148C48.72 16.1283 50.1938 14.3886 52.4336 14.3886C54.6735 14.3886 56.1706 16.104 56.1706 18.8148C56.1706 21.5255 54.6968 23.2409 52.4336 23.2409Z" fill="white"/>
<path d="M40.0562 13.4131V12.5473H37.377V25.6437H40.0562V18.5878C40.239 16.2007 41.6078 14.7159 43.6105 14.7159C43.9682 14.7159 44.3104 14.7604 44.6254 14.8534V12.4097C44.2987 12.3612 43.9604 12.3369 43.6105 12.3369C42.2455 12.3369 41.0362 12.7213 40.0562 13.4131Z" fill="white"/>
<path d="M68.4132 17.9209L65.9284 17.4597C64.5284 17.2048 63.8868 16.7678 63.8868 15.8211C63.8868 14.7449 64.8201 14.1057 66.2978 14.1057C67.8455 14.1057 68.9537 14.846 68.9771 16.1771H71.633C71.6097 13.5676 69.3698 12.0342 66.2978 12.0342C63.4474 12.0342 61.2075 13.5676 61.2075 15.9222C61.2075 17.7874 62.168 19.1185 64.6257 19.5554L67.1572 20.0166C68.5843 20.2473 69.0743 20.7854 69.0743 21.7806C69.0743 22.9297 68.0904 23.573 66.4455 23.573C64.8007 23.573 63.5952 22.78 63.568 21.4246H60.8887C60.9392 23.9816 63.1752 25.6444 66.4922 25.6444C69.4165 25.6444 71.8274 24.2365 71.8274 21.5258C71.8274 19.5554 70.7464 18.3538 68.4093 17.9209H68.4132Z" fill="white"/>
<path d="M84.0715 9.325V16.5125C84.5238 16.0525 85.0107 15.7037 85.532 15.466C86.061 15.2207 86.6398 15.098 87.2685 15.098C88.1502 15.098 88.9322 15.3165 89.6145 15.7535C90.3045 16.1905 90.8412 16.8038 91.2245 17.5935C91.6155 18.3755 91.811 19.2955 91.811 20.3535C91.811 21.5418 91.5772 22.5807 91.1095 23.47C90.6495 24.3593 90.017 25.0493 89.212 25.54C88.4147 26.023 87.5062 26.2645 86.4865 26.2645C85.3288 26.2645 84.3973 25.931 83.692 25.264L81.7715 25.977C81.4725 26.0767 81.254 26.1418 81.116 26.1725C80.9857 26.2108 80.863 26.23 80.748 26.23C80.4413 26.23 80.288 26.0805 80.288 25.7815V11.142C80.288 10.889 80.1922 10.7472 80.0005 10.7165L79.4945 10.682C79.3028 10.636 79.207 10.5287 79.207 10.36C79.207 10.1913 79.3373 10.061 79.598 9.969L82.6225 9.003C83.0365 8.84967 83.3278 8.773 83.4965 8.773C83.8798 8.773 84.0715 8.957 84.0715 9.325ZM85.831 16.501C85.1793 16.501 84.5928 16.8077 84.0715 17.421V24.482C84.5162 24.9727 85.0452 25.218 85.6585 25.218C86.3178 25.218 86.8583 24.8807 87.28 24.206C87.7093 23.5313 87.924 22.3698 87.924 20.7215C87.924 19.2265 87.7285 18.1493 87.3375 17.49C86.9465 16.8307 86.4443 16.501 85.831 16.501ZM97.8722 9.325V24.5395C97.8722 24.8998 97.9796 25.1107 98.1942 25.172L98.6197 25.287C98.8267 25.356 98.9302 25.4748 98.9302 25.6435C98.9302 25.8812 98.7769 26 98.4702 26H93.4677C93.1687 26 93.0192 25.8812 93.0192 25.6435C93.0192 25.4825 93.1266 25.3637 93.3412 25.287L93.7667 25.172C93.9814 25.103 94.0887 24.8922 94.0887 24.5395V11.142C94.0887 10.889 93.9929 10.7472 93.8012 10.7165L93.2952 10.682C93.1036 10.636 93.0077 10.5287 93.0077 10.36C93.0077 10.1913 93.1381 10.061 93.3987 9.969L96.4232 9.003C96.8372 8.84967 97.1286 8.773 97.2972 8.773C97.6806 8.773 97.8722 8.957 97.8722 9.325ZM100.833 23.033V17.5015C100.833 17.2485 100.737 17.1028 100.545 17.0645L100.039 17.03C99.8474 16.9917 99.7516 16.8882 99.7516 16.7195C99.7516 16.5508 99.8819 16.4167 100.143 16.317L103.167 15.351C103.581 15.2053 103.876 15.1325 104.053 15.1325C104.428 15.1325 104.616 15.3127 104.616 15.673V22.5615C104.616 23.1365 104.743 23.5658 104.996 23.8495C105.256 24.1255 105.617 24.2635 106.077 24.2635C106.698 24.2635 107.28 24.0258 107.825 23.5505V17.5015C107.825 17.2485 107.729 17.1028 107.537 17.0645L107.031 17.03C106.839 16.9917 106.744 16.8882 106.744 16.7195C106.744 16.5508 106.87 16.4167 107.123 16.317L110.159 15.351C110.374 15.2743 110.546 15.2207 110.677 15.19C110.807 15.1517 110.933 15.1325 111.056 15.1325C111.416 15.1325 111.597 15.3127 111.597 15.673V24.5395C111.597 24.8998 111.704 25.1107 111.919 25.172L112.356 25.287C112.563 25.356 112.666 25.4748 112.666 25.6435C112.666 25.8812 112.513 26 112.206 26H108.986C108.679 26 108.419 25.885 108.204 25.655C107.997 25.4173 107.894 25.126 107.894 24.781V24.252C107.058 24.9803 106.307 25.4978 105.64 25.8045C104.973 26.1112 104.355 26.2645 103.788 26.2645C102.914 26.2645 102.201 25.9847 101.649 25.425C101.105 24.8653 100.833 24.068 100.833 23.033ZM124.283 19.5945C124.283 20.2078 123.965 20.5145 123.329 20.5145H117.188C117.333 21.6645 117.72 22.5193 118.349 23.079C118.978 23.631 119.775 23.907 120.741 23.907C121.439 23.907 122.037 23.7575 122.535 23.4585C123.033 23.1518 123.382 22.7148 123.582 22.1475C123.75 21.9558 123.884 21.86 123.984 21.86C124.16 21.86 124.245 22.0018 124.237 22.2855C124.222 23.0215 123.996 23.6923 123.559 24.298C123.129 24.896 122.543 25.3752 121.799 25.7355C121.055 26.0882 120.204 26.2645 119.246 26.2645C118.173 26.2645 117.218 26.0422 116.383 25.5975C115.547 25.1528 114.891 24.528 114.416 23.723C113.941 22.918 113.703 21.9827 113.703 20.917C113.703 19.7517 113.933 18.732 114.393 17.858C114.853 16.984 115.509 16.3055 116.36 15.8225C117.211 15.3395 118.226 15.098 119.407 15.098C120.434 15.098 121.312 15.2935 122.041 15.6845C122.769 16.0678 123.325 16.6007 123.708 17.283C124.091 17.9577 124.283 18.7282 124.283 19.5945ZM117.13 19.4795C117.13 19.6022 117.13 19.7248 117.13 19.8475H120.109C120.392 19.8475 120.534 19.7095 120.534 19.4335C120.534 18.2298 120.377 17.3482 120.063 16.7885C119.756 16.2288 119.376 15.949 118.924 15.949C118.403 15.949 117.973 16.2365 117.636 16.8115C117.299 17.3788 117.13 18.2682 117.13 19.4795Z" fill="white"/>
</svg>
