<svg xmlns="http://www.w3.org/2000/svg" width="114" height="30" viewBox="0 0 114 30" fill="none">
  <g clip-path="url(#clip0_285_173)">
    <path d="M22.0399 9.63329C22.0399 9.63329 22.0399 9.64257 22.0399 9.64722C22.0399 9.6565 22.0399 9.66114 22.0399 9.67043C22.0399 9.67971 22.0399 9.689 22.0399 9.70293C22.0491 9.8422 22.0445 9.94898 22.0445 9.96755C22.0353 10 22.026 10.0279 22.0076 10.0558C21.9752 10.1115 21.9152 10.1533 21.8551 10.144C21.8181 10.1347 21.7904 10.1115 21.7673 10.0836C21.6657 9.96755 21.5733 9.8422 21.4763 9.7215C21.0605 9.19689 20.5847 8.72335 20.0534 8.31017C19.8594 8.15696 19.6792 7.98519 19.4713 7.84592C18.8615 7.43273 18.2009 7.12632 17.4987 6.89884C16.1775 6.47637 14.8193 6.4253 13.4334 6.61565C12.7266 6.71314 12.0337 6.87098 11.3638 7.11704C10.8649 7.2981 10.389 7.52558 9.94555 7.80877C9.5575 8.05483 9.19716 8.33802 8.85531 8.64907C8.1023 9.33152 7.41858 10.0743 6.82726 10.8961C6.68867 11.0864 6.56394 11.2907 6.42997 11.4857C6.37915 11.5646 6.32372 11.6389 6.2729 11.7178C6.2729 11.7178 6.25904 11.7364 6.25442 11.7456C6.23594 11.7642 6.21285 11.7828 6.20823 11.8106C6.0604 11.9778 5.94028 12.2052 5.66772 12.1403C5.41364 12.0799 5.37668 11.8385 5.31663 11.6389C5.17804 11.1468 5.22885 10.65 5.39054 10.1625C5.71392 9.18761 6.296 8.37052 7.03515 7.66486C8.75829 6.02605 10.8048 5.07897 13.1562 4.83292C14.094 4.73542 15.018 4.80042 15.9419 4.96291C17.0275 5.15325 18.0346 5.52465 18.9678 6.07711C19.9564 6.66207 20.7741 7.43273 21.4116 8.37981C21.6749 8.76978 21.8921 9.18296 22.0307 9.63793L22.0399 9.63329Z" fill="#CFD1D7"/>
    <path d="M10.098 11.5134C10.2135 11.3927 10.3659 11.337 10.523 11.3045C10.6847 11.2674 10.7494 11.3463 10.7032 11.4949C10.6893 11.5413 10.6662 11.5877 10.6524 11.6388C10.3059 12.5951 10.0657 13.5701 9.98251 14.5775C9.85316 16.1327 10.0749 17.6184 10.7078 19.0297C10.851 19.3454 11.0081 19.6564 11.1836 19.9535C11.835 21.0353 12.7127 22.0659 13.7198 22.8319C14.094 23.1151 14.4913 23.3658 14.9117 23.5747C15.3691 23.8068 15.8541 23.9925 16.3484 24.1318C16.7503 24.2432 17.1661 24.3129 17.5819 24.3547C17.6974 24.3639 17.8129 24.3779 17.933 24.3918C18.0993 24.545 18.0577 24.6936 17.9237 24.8514C17.4294 25.4178 16.7827 25.6035 16.0759 25.5942C14.7177 25.5803 13.5304 25.0882 12.4309 24.3639C11.5162 23.7604 10.7494 23.0037 10.1211 22.1123C8.75829 20.181 8.20855 18.0223 8.44415 15.6406C8.56426 14.4475 8.92922 13.3194 9.55288 12.2748C9.70995 12.0055 9.91321 11.7688 10.0934 11.5181L10.098 11.5134Z" fill="#CFD1D7"/>
    <path d="M26.1664 10.6547C26.1525 10.5665 26.134 10.4737 26.1202 10.3855C25.9908 9.39198 25.6813 8.46347 25.2378 7.57675C24.9191 6.93144 24.5264 6.32791 24.0875 5.75688C23.5424 5.04657 22.9418 4.39198 22.2304 3.83952C21.1864 3.03172 20.013 2.49318 18.7102 2.20999C17.4629 1.94072 16.2017 1.91751 14.9267 2.07536C14.2892 2.15428 13.6563 2.26106 13.0372 2.44212C12.737 2.53032 12.4921 2.46533 12.2657 2.28891C12.2935 2.20535 12.3535 2.14964 12.4228 2.09393C13.7625 1.04472 15.2732 0.469044 16.9547 0.348338C17.6893 0.29727 18.4192 0.287985 19.1398 0.394763C19.9899 0.520112 20.7937 0.780093 21.5652 1.14685C22.6323 1.65289 23.5701 2.33534 24.3647 3.20349C25.4272 4.36412 26.0878 5.72902 26.4066 7.27034C26.5868 8.14778 26.6006 9.03914 26.5129 9.93515C26.499 10.1023 26.4713 10.2694 26.4112 10.4273C26.3696 10.5387 26.3281 10.678 26.1525 10.6501L26.1664 10.6547Z" fill="#CFD1D7"/>
    <path d="M21.9574 9.21988C22.0036 9.34523 22.0267 9.49843 22.0406 9.63307C22.0406 9.63307 22.0406 9.64235 22.0406 9.64699C21.9297 9.47522 21.8373 9.2988 21.7495 9.1131C21.6525 8.90419 21.5324 8.70456 21.3984 8.51886C20.8071 7.69713 20.1142 6.9729 19.2595 6.40651C18.6913 6.02582 18.0861 5.72406 17.444 5.48265C17.2037 5.3898 16.9589 5.31088 16.7048 5.25516C16.6217 5.23659 16.5431 5.20874 16.4646 5.18553C16.3907 5.16696 16.3214 5.13446 16.2475 5.12517C15.7254 5.05554 15.208 4.95804 14.6768 4.92555C13.2863 4.83734 11.9419 5.06018 10.6253 5.54764C10.2095 5.70085 9.80763 5.88655 9.41496 6.08618C9.1193 6.23938 8.84674 6.42508 8.56493 6.6015C7.81193 7.07968 7.15131 7.65999 6.57847 8.34244C6.27357 8.7092 5.99639 9.09453 5.7885 9.52165C5.58986 9.93019 5.41893 10.3527 5.37735 10.8123C5.34963 11.1605 5.37735 11.4947 5.51132 11.8151C5.52056 11.8383 5.5298 11.8615 5.53904 11.8847C5.61295 12.0286 5.71459 12.0658 5.87628 12.0008C5.93633 11.9729 5.99639 11.9358 6.05644 11.9033C6.10726 11.8754 6.15808 11.8429 6.20889 11.8104C6.15346 11.9915 6.04721 12.1447 5.96405 12.3072C5.75617 12.725 5.58986 13.1521 5.44203 13.5931C5.2249 14.2338 5.13251 14.8977 5.07707 15.5616C5.05859 15.8262 5.07707 16.0955 5.08169 16.3601C5.08169 16.4947 5.10017 16.6247 5.10941 16.7593C5.10941 16.7826 5.10017 16.8058 5.10017 16.829C5.10941 16.8429 5.11403 16.8568 5.11865 16.8708C5.11403 16.894 5.10941 16.9172 5.10941 16.9404C5.11865 16.9497 5.12327 16.9636 5.12789 16.9775C4.98006 17.0657 4.94772 16.9497 4.8969 16.8568C4.71212 16.5133 4.59662 16.1419 4.43955 15.7891C4.38874 15.673 4.37026 15.5105 4.20395 15.5059C4.01916 15.4966 3.94987 15.6591 3.88057 15.7891C3.511 16.4761 3.28001 17.2097 3.1368 17.971C3.12294 18.0546 3.12294 18.1428 3.04441 18.1939C3.00283 18.2217 2.95202 18.2496 2.92892 18.1753C2.91968 18.1614 2.91506 18.1428 2.90582 18.1289C2.90582 18.115 2.90582 18.0964 2.9012 18.0825C2.9012 18.0825 2.88734 18.0453 2.89196 18.0221C2.81343 17.7528 2.77647 17.4696 2.74413 17.1911C2.62864 16.2208 2.64712 15.2459 2.79033 14.2709C2.84576 13.8903 2.92892 13.5096 3.01207 13.1382C3.20148 12.3164 3.51562 11.5365 3.94987 10.803C4.34716 10.1391 4.76755 9.49843 5.27572 8.90883C5.86704 8.22638 6.49993 7.59036 7.21137 7.02861C7.41463 6.87076 7.63176 6.74077 7.8304 6.58293C8.05215 6.40651 8.28775 6.25331 8.52798 6.11403C9.66442 5.47336 10.8563 4.99983 12.136 4.77234C13.2447 4.57736 14.3488 4.54022 15.4575 4.69806C16.3999 4.82805 17.31 5.06946 18.1739 5.46408C19.2503 5.95619 20.1603 6.65257 20.918 7.55322C21.343 8.05925 21.6987 8.61171 21.9482 9.22917L21.9574 9.21988Z" fill="#CFD1D7"/>
    <path d="M10.0989 11.5137C10.1266 11.5555 10.1081 11.5926 10.085 11.6297C9.89102 11.8897 9.72009 12.1636 9.57688 12.4468C9.2997 12.99 9.03638 13.5378 8.88855 14.1274C8.87469 14.1831 8.85159 14.2388 8.83311 14.2946C8.81001 14.3595 8.7823 14.4199 8.76844 14.4849C8.713 14.7727 8.65756 15.0606 8.61137 15.3484C8.54207 15.8127 8.50973 16.2816 8.51435 16.7458C8.52359 17.3493 8.58365 17.9436 8.70838 18.5285C8.85621 19.211 9.0641 19.8749 9.35514 20.5109C9.52607 20.8869 9.70161 21.2583 9.92336 21.6112C9.99265 21.7226 10.0619 21.834 10.159 21.9315C10.1959 21.9686 10.2236 22.0058 10.2514 22.0476C10.5054 22.4468 10.8288 22.7904 11.1568 23.1246C11.4802 23.4543 11.8267 23.7653 12.2055 24.0346C12.806 24.4663 13.4436 24.8331 14.1458 25.0884C14.7278 25.2973 15.3284 25.4366 15.9567 25.4598C16.3678 25.4738 16.7605 25.4134 17.1485 25.2648C17.3749 25.1766 17.5643 25.042 17.7399 24.8749C17.8877 24.7356 17.9662 24.5824 17.9431 24.3828C18.1279 24.3828 18.3127 24.3828 18.4975 24.3735C19.5369 24.3456 20.5348 24.1181 21.5095 23.7374C21.8976 23.5889 22.281 23.431 22.6414 23.2175C22.6968 23.185 22.7661 23.1664 22.8308 23.1432C22.8677 23.2453 22.7938 23.2964 22.7291 23.3521C22.3688 23.6492 22.0593 23.9974 21.7082 24.3085C21.6204 24.3874 21.5188 24.4756 21.5511 24.6056C21.5927 24.7588 21.7359 24.7867 21.8699 24.8006C22.5767 24.8888 23.2789 24.8331 23.9764 24.6892C24.2813 24.6242 24.5816 24.5406 24.8773 24.4292C24.9882 24.3874 25.1083 24.2992 25.2284 24.406C25.0436 24.5963 24.8265 24.7449 24.6093 24.8934C23.3066 25.7894 21.8652 26.3094 20.313 26.5137C19.2182 26.6576 18.1233 26.639 17.0377 26.5044C16.7651 26.4719 16.4879 26.4255 16.2154 26.3837C15.8504 26.328 15.4993 26.2119 15.1528 26.0912C13.7993 25.627 12.5658 24.9538 11.4941 24.016C10.972 23.5564 10.4962 23.0504 10.0943 22.484C9.98803 22.3354 9.87716 22.1915 9.78015 22.0383C8.96708 20.7662 8.46816 19.3781 8.26489 17.8739C8.10782 16.7365 8.1725 15.613 8.4774 14.4942C8.73148 13.561 9.11953 12.6836 9.71085 11.899C9.82173 11.7504 9.9326 11.5972 10.1035 11.5044L10.0989 11.5137Z" fill="#CFD1D7"/>
    <path d="M26.1664 10.6545C26.3281 10.4502 26.3743 10.2135 26.3974 9.96742C26.4621 9.29889 26.4713 8.63037 26.3974 7.96649C26.3327 7.40474 26.2034 6.85228 26.0324 6.31375C25.88 5.84021 25.6906 5.3806 25.4504 4.94885C25.2748 4.63315 25.1177 4.30354 24.8867 4.02034C24.8313 3.9507 24.7713 3.88107 24.7112 3.81143C24.6789 3.77429 24.6373 3.74179 24.6096 3.70001C24.3786 3.3611 24.0875 3.08255 23.7919 2.80864C23.2652 2.31653 22.6924 1.88478 22.0503 1.54588C21.7038 1.36482 21.3619 1.17912 20.997 1.03984C20.5858 0.881994 20.1701 0.738076 19.7358 0.645225C19.5325 0.603442 19.3385 0.524519 19.126 0.510592C18.7657 0.492022 18.41 0.436311 18.0496 0.440954C17.426 0.440954 16.8069 0.464167 16.1879 0.56166C15.6428 0.649868 15.1115 0.789143 14.6033 1.0027C14.4463 1.0677 14.2846 1.12341 14.1321 1.19304C13.7672 1.35553 13.4161 1.54123 13.0881 1.778C12.9079 1.90799 12.7277 2.03334 12.5429 2.15869C12.4598 2.21904 12.372 2.27011 12.2704 2.28868C12.1826 2.22368 12.178 2.14012 12.2288 2.04727C12.2981 1.91728 12.3997 1.81978 12.5199 1.73158C12.9402 1.43445 13.3745 1.17447 13.8365 0.951632C14.8158 0.478094 15.8414 0.167045 16.9178 0.0509818C18.4746 -0.116149 19.9483 0.153117 21.3481 0.784501C22.5122 1.31375 23.5655 2.07512 24.4941 2.94328C25.2517 3.65358 25.94 4.43817 26.5175 5.30168C28.0189 7.5858 28.5455 10.0928 28.0235 12.8319C27.8988 13.4865 27.7186 14.1271 27.4923 14.7539C27.4692 14.8189 27.4368 14.8746 27.4091 14.9396C27.2289 14.8606 27.3028 14.7121 27.3398 14.596C27.4599 14.2153 27.5061 13.8254 27.5107 13.4307C27.5154 13.1568 27.4645 12.8969 27.3398 12.6601C27.2197 12.4326 27.0672 12.4326 26.9333 12.6601C26.7531 12.9665 26.633 13.3008 26.499 13.6304C25.9816 14.8978 25.2517 16.0259 24.2677 16.9962C24.1568 17.103 24.046 17.2051 23.9305 17.3072C23.8473 17.3815 23.7503 17.479 23.621 17.3862C23.6579 17.3397 23.6949 17.2933 23.7364 17.2515C24.5218 16.467 25.1224 15.5617 25.5196 14.531C25.6629 14.155 25.8199 13.7789 25.9262 13.389C26.1479 12.5765 26.2218 11.7594 26.1756 10.9284C26.171 10.8356 26.171 10.7474 26.1664 10.6545Z" fill="#CFD1D7"/>
    <path d="M23.6197 17.3816C23.8276 17.2702 23.9754 17.0938 24.1417 16.9406C24.6083 16.5042 25.0056 16.0028 25.3706 15.4828C25.6431 15.0928 25.8695 14.6796 26.082 14.2525C26.2437 13.9276 26.373 13.5887 26.5162 13.2544C26.5948 13.078 26.6687 12.8969 26.7519 12.7205C26.8073 12.5998 26.8766 12.4791 26.9644 12.377C27.0798 12.2377 27.1769 12.233 27.297 12.3677C27.3894 12.4744 27.4725 12.5859 27.5187 12.7205C27.6019 12.9666 27.6527 13.2126 27.6388 13.4772C27.6204 13.7465 27.6111 14.0111 27.5464 14.2757C27.5187 14.3918 27.5002 14.5032 27.454 14.6147C27.4171 14.7168 27.3894 14.8236 27.4032 14.935C27.3847 15.0696 27.3293 15.195 27.2693 15.3157C26.8119 16.2767 26.2391 17.1634 25.4814 17.9294C24.8624 18.5562 24.1602 19.0715 23.3887 19.4986C22.6634 19.8978 21.8966 20.1857 21.0881 20.3528C20.4275 20.4874 19.7669 20.5199 19.1109 20.3992C18.9492 20.3667 18.7875 20.325 18.6258 20.2739C18.5565 20.2507 18.4872 20.2135 18.4272 20.1764C18.3579 20.1346 18.3671 20.0557 18.4457 20.0186C18.515 19.9861 18.5842 19.9536 18.6582 19.9303C19.0185 19.805 19.3788 19.6843 19.7392 19.5636C20.4645 19.3222 21.1713 19.039 21.8411 18.6629C22.377 18.3612 22.8759 18.0083 23.3425 17.6091C23.4349 17.5302 23.5273 17.4559 23.6151 17.3816H23.6197Z" fill="#CFD1D7"/>
    <path d="M2.93396 18.1711C2.98016 18.1571 3.00326 18.12 3.00788 18.0782C3.04945 17.6836 3.16494 17.3076 3.2712 16.9315C3.39131 16.5044 3.5761 16.0959 3.7886 15.7012C3.82556 15.6362 3.86714 15.5712 3.91333 15.5109C3.96415 15.4413 4.03345 15.3902 4.10736 15.353C4.24133 15.2881 4.32911 15.3066 4.41226 15.4227C4.45384 15.483 4.49079 15.548 4.51851 15.6177C4.63862 15.9055 4.7495 16.198 4.86961 16.4905C4.92966 16.6344 4.99434 16.7783 5.06364 16.9176C5.07749 16.9454 5.10983 16.964 5.13293 16.9826C5.16527 17.1544 5.19299 17.3261 5.22532 17.4979C5.32696 18.0457 5.50713 18.5703 5.67805 19.0996C5.84436 19.6195 6.02453 20.1349 6.23242 20.6409C6.40796 21.068 6.58351 21.4951 6.78678 21.9129C6.97157 22.289 7.14249 22.6743 7.35962 23.0364C7.3781 23.0643 7.39196 23.0968 7.4012 23.1246C7.43815 23.2268 7.41968 23.3011 7.33652 23.3707C7.17021 23.5146 6.97619 23.5564 6.7683 23.5285C6.26013 23.4589 5.83974 23.1339 5.45631 22.8229C4.85575 22.3308 4.38916 21.7458 4.01497 21.0726C3.86714 20.808 3.74241 20.5295 3.61305 20.2509C3.31277 19.6056 3.08641 18.9324 2.93396 18.2314C2.93396 18.2175 2.93396 18.1989 2.93396 18.1803V18.1711Z" fill="#CFD1D7"/>
    <path d="M25.2232 24.4196C24.7104 24.6796 24.1607 24.8143 23.6017 24.8978C23.0658 24.9768 22.5299 25.0046 21.9941 24.9582C21.8693 24.9489 21.7446 24.921 21.6245 24.8885C21.5413 24.8653 21.472 24.8235 21.4166 24.7632C21.315 24.6518 21.3103 24.5496 21.4166 24.4289C21.4951 24.3407 21.5829 24.2572 21.6661 24.1736C21.9063 23.9461 22.1465 23.7233 22.3821 23.4865C22.5161 23.3519 22.6824 23.2637 22.8256 23.1476C22.8533 23.129 22.881 23.1105 22.9134 23.0919C23.8743 22.5441 24.7243 21.8616 25.5143 21.0956C26.2673 20.3714 26.9556 19.5868 27.5931 18.7558C27.6393 18.6954 27.6855 18.6351 27.7363 18.5794C27.7733 18.5376 27.8241 18.5283 27.8749 18.5515C28.0181 18.6119 28.1336 18.7047 28.189 18.8486C28.2722 19.0575 28.3138 19.2711 28.2861 19.5079C28.2352 19.9164 28.129 20.3157 27.9765 20.701C27.4499 22.0241 26.6553 23.1662 25.5835 24.1272C25.4681 24.2293 25.3618 24.3407 25.2278 24.415L25.2232 24.4196Z" fill="#CFD1D7"/>
    <path d="M0.804303 11.3694C0.688811 11.439 0.577938 11.4808 0.462446 11.5086C0.245321 11.5551 0.0790121 11.4576 0.0235759 11.2487C-0.00414224 11.1512 -0.0133816 11.0537 0.00509714 10.9515C0.0559137 10.6312 0.162166 10.3387 0.351574 10.0648C0.55484 9.77233 0.813542 9.54485 1.09534 9.34058C1.36329 9.14559 1.64971 8.97846 1.96384 8.8624C2.03314 8.83454 2.10705 8.80669 2.18097 8.78812C2.26412 8.76955 2.34728 8.75098 2.43043 8.75098C2.64756 8.75098 2.71685 8.83918 2.67528 9.0481C2.65218 9.17345 2.59212 9.28487 2.52283 9.39629C2.24103 9.86054 1.90841 10.2877 1.53883 10.6916C1.34481 10.9051 1.14154 11.1094 0.910556 11.2858C0.868979 11.3183 0.832021 11.3508 0.799683 11.374L0.804303 11.3694Z" fill="#CFD1D7"/>
    <path d="M29.7417 4.33123C29.9542 4.64693 30.0882 4.98119 30.1344 5.33866C30.1483 5.4733 30.1529 5.59864 30.1252 5.72399C30.0004 6.35538 29.3953 6.29967 29.0303 5.95148C28.8963 5.82613 28.7947 5.67757 28.7254 5.51044C28.5083 4.98119 28.499 4.49372 28.7254 4.06197C28.7531 4.01554 28.7855 3.96912 28.8178 3.93198C28.9518 3.78342 29.1135 3.76949 29.3121 3.89948C29.483 4.00626 29.617 4.15946 29.7371 4.33123H29.7417Z" fill="#CFD1D7"/>
    <path d="M14.5293 29.0391C14.5109 29.002 14.4831 28.9509 14.4647 28.8952C14.4369 28.8024 14.4924 28.7188 14.5894 28.6863C14.6494 28.6677 14.7141 28.6585 14.7742 28.6538C14.8758 28.6538 14.9821 28.6538 15.0837 28.6677C15.5364 28.7327 15.9845 28.8302 16.4095 28.9788C16.5574 29.0299 16.7006 29.0856 16.8299 29.1645C16.9269 29.2202 17.0193 29.2852 17.0886 29.3734C17.1995 29.5127 17.1764 29.6566 17.0332 29.7866C16.9824 29.8284 16.9269 29.8609 16.8715 29.8841C16.6313 29.9909 16.3818 30.0048 16.1324 29.9862C16.0908 29.9862 16.0492 29.9769 16.0122 29.9676C15.4486 29.8423 15.0005 29.5545 14.6217 29.1598C14.5894 29.1273 14.5663 29.0856 14.5293 29.0345V29.0391Z" fill="#CFD1D7"/>
    <path d="M2.90063 18.0176C2.90063 18.0547 2.90971 18.0872 2.91425 18.1244C2.91425 18.0872 2.90517 18.0547 2.90063 18.0176Z" fill="#CFD1D7"/>
    <path d="M5.10901 16.8245C5.10901 16.8245 5.11355 16.7781 5.11809 16.7549C5.11809 16.7781 5.11355 16.8013 5.10901 16.8245Z" fill="#CFD1D7"/>
    <path d="M5.11804 16.9358C5.11804 16.9126 5.12258 16.8894 5.12712 16.8662C5.12712 16.8894 5.12258 16.9126 5.11804 16.9358Z" fill="#CFD1D7"/>
    <path d="M44.534 19.9814C44.534 20.7474 44.2014 21.3973 43.5316 21.9219C42.8617 22.4512 42.0209 22.7112 41.0092 22.7112C40.1268 22.7112 39.3507 22.479 38.6809 22.0194C38.011 21.5598 37.5352 20.947 37.2488 20.1949L38.7178 19.5635C38.9303 20.0928 39.2445 20.5013 39.6556 20.7938C40.0668 21.0863 40.5195 21.2348 41.0092 21.2348C41.5358 21.2348 41.9747 21.1188 42.3258 20.8913C42.6769 20.6638 42.8525 20.3945 42.8525 20.0835C42.8525 19.5217 42.4228 19.1086 41.5636 18.8439L40.0622 18.4679C38.3575 18.0361 37.5029 17.2098 37.5029 15.9841C37.5029 15.181 37.8262 14.5357 38.4776 14.0482C39.129 13.5607 39.9605 13.3193 40.9722 13.3193C41.7484 13.3193 42.4505 13.505 43.0742 13.8764C43.7025 14.2478 44.1414 14.7446 44.3908 15.3713L42.9218 15.9841C42.7554 15.6127 42.4829 15.3203 42.1087 15.1114C41.7345 14.9024 41.3141 14.7957 40.8475 14.7957C40.4179 14.7957 40.0345 14.9024 39.6926 15.1206C39.3507 15.3342 39.1844 15.5988 39.1844 15.9099C39.1844 16.4113 39.6556 16.7734 40.5981 16.9869L41.9239 17.3305C43.6655 17.7622 44.5386 18.6443 44.5386 19.9767L44.534 19.9814Z" fill="#CFD1D7"/>
    <path d="M49.9947 22.7158C48.7058 22.7158 47.6433 22.2701 46.8071 21.3834C45.9709 20.4967 45.5552 19.3732 45.5552 18.0176C45.5552 16.662 45.9617 15.557 46.7702 14.661C47.5832 13.7697 48.618 13.3193 49.8838 13.3193C51.1496 13.3193 52.2214 13.7418 52.9882 14.5867C53.7597 15.4317 54.1432 16.6155 54.1432 18.1383L54.1247 18.3193H47.2321C47.2552 19.1828 47.5416 19.8792 48.0914 20.4038C48.6411 20.9331 49.2971 21.1931 50.0594 21.1931C51.108 21.1931 51.9303 20.6638 52.5309 19.61L54 20.3295C53.6073 21.0724 53.0622 21.6527 52.36 22.0751C51.6624 22.493 50.8724 22.7065 49.9901 22.7065L49.9947 22.7158ZM47.3615 16.9591H52.3923C52.3461 16.3463 52.0967 15.8402 51.6485 15.441C51.2004 15.0371 50.5999 14.8374 49.8515 14.8374C49.2324 14.8374 48.6966 15.0278 48.2485 15.4131C47.8003 15.7984 47.5047 16.3138 47.3615 16.9591Z" fill="#CFD1D7"/>
    <path d="M57.2979 22.4282H55.6533V13.6167H57.2286V15.0558H57.3025C57.4689 14.587 57.8107 14.1877 58.3327 13.8581C58.8501 13.5285 59.3629 13.3613 59.8619 13.3613C60.3608 13.3613 60.7442 13.431 61.0768 13.5749L60.5779 15.1766C60.3746 15.093 60.0513 15.0512 59.6124 15.0512C58.9933 15.0512 58.4528 15.3019 57.9909 15.8079C57.5335 16.3093 57.3025 16.8989 57.3025 17.5721V22.4282H57.2979Z" fill="#CFD1D7"/>
    <path d="M66.5882 22.4282H64.9436L61.4003 13.6167H63.1881L65.7659 20.4505H65.8028L68.4176 13.6167H70.173L66.5928 22.4282H66.5882Z" fill="#CFD1D7"/>
    <path d="M73.028 13.6118V22.4233H71.3834V13.6118H73.028Z" fill="#CFD1D7"/>
    <path d="M79.0987 22.7158C77.7959 22.7158 76.7195 22.2701 75.8603 21.3834C75.0149 20.4735 74.5898 19.35 74.5898 18.0176C74.5898 16.6852 75.0149 15.5431 75.8603 14.6517C76.7195 13.765 77.8005 13.3193 79.0987 13.3193C79.9949 13.3193 80.7756 13.5422 81.4455 13.9925C82.1153 14.4428 82.6142 15.0649 82.9469 15.8542L81.4455 16.4855C80.9789 15.3806 80.1612 14.8328 78.9924 14.8328C78.2394 14.8328 77.588 15.1392 77.0429 15.752C76.507 16.3648 76.2391 17.1169 76.2391 18.0176C76.2391 18.9182 76.507 19.6703 77.0429 20.2831C77.5926 20.8959 78.244 21.2023 78.9924 21.2023C80.1981 21.2023 81.0435 20.6499 81.5332 19.5496L83.0023 20.181C82.6789 20.9702 82.1754 21.5923 81.4916 22.0426C80.8033 22.493 80.0087 22.7158 79.1033 22.7158H79.0987Z" fill="#CFD1D7"/>
    <path d="M88.2779 22.7158C86.989 22.7158 85.9265 22.2701 85.0903 21.3834C84.2542 20.4967 83.8384 19.3732 83.8384 18.0176C83.8384 16.662 84.2449 15.557 85.0534 14.661C85.8664 13.7697 86.9012 13.3193 88.167 13.3193C89.4328 13.3193 90.5046 13.7418 91.2715 14.5867C92.0429 15.4317 92.4264 16.6155 92.4264 18.1383L92.4079 18.3193H85.5153C85.5384 19.1828 85.8248 19.8792 86.3746 20.4038C86.9243 20.9331 87.5803 21.1931 88.3426 21.1931C89.3912 21.1931 90.2135 20.6638 90.8141 19.61L92.2832 20.3295C91.8905 21.0724 91.3454 21.6527 90.6432 22.0751C89.9456 22.493 89.1556 22.7065 88.2733 22.7065L88.2779 22.7158ZM85.6447 16.9591H90.6755C90.6293 16.3463 90.3799 15.8402 89.9317 15.441C89.4836 15.0371 88.8831 14.8374 88.1347 14.8374C87.5157 14.8374 86.9798 15.0278 86.5317 15.4131C86.0835 15.7984 85.7879 16.3138 85.6447 16.9591Z" fill="#CFD1D7"/>
    <path d="M103.296 17.9435C103.809 17.4375 104.067 16.8432 104.067 16.1886C104.067 15.3901 103.716 14.7123 103.028 14.1691C102.344 13.6352 101.513 13.3613 100.547 13.3613H96.7222V22.7114H98.3437V19.0159H99.7342L102.677 22.7114H104.502V22.5117L101.508 18.8859C102.22 18.7327 102.825 18.417 103.301 17.9435H103.296ZM102.414 16.1886C102.414 16.6157 102.233 16.9639 101.864 17.2564C101.49 17.5489 101.023 17.6974 100.483 17.6974H98.3391V14.703H100.575C101.106 14.703 101.55 14.8562 101.896 15.1533C102.243 15.4505 102.414 15.7894 102.414 16.184V16.1886Z" fill="#CFD1D7"/>
    <path d="M112.378 13.3657V17.2794H107.144V13.3657H105.522V22.7158H107.144V18.5978H112.378V22.7158H114V13.3657H112.378Z" fill="#CFD1D7"/>
    <g opacity="0.63">
      <path d="M37.8955 9.24319H37.2488V5.78916H37.8678V6.26734H37.8955C37.9925 6.1002 38.145 5.95629 38.3483 5.84487C38.5515 5.73344 38.7548 5.67773 38.9534 5.67773C39.2075 5.67773 39.4293 5.73809 39.6187 5.85415C39.8081 5.97021 39.9513 6.1327 40.0391 6.34162C40.3255 5.90058 40.7182 5.67773 41.2217 5.67773C41.619 5.67773 41.9239 5.79844 42.141 6.04449C42.3535 6.29055 42.4644 6.6341 42.4644 7.08906V9.24319H41.8176V7.18656C41.8176 6.86158 41.7576 6.62945 41.6421 6.48553C41.5266 6.34162 41.328 6.27198 41.0554 6.27198C40.8059 6.27198 40.5981 6.37876 40.4317 6.58767C40.2654 6.79658 40.1777 7.04728 40.1777 7.33512V9.24319H39.5309V7.18656C39.5309 6.86158 39.4709 6.62945 39.3554 6.48553C39.2399 6.34162 39.0412 6.27198 38.7687 6.27198C38.5192 6.27198 38.3113 6.37876 38.145 6.58767C37.9787 6.79658 37.8909 7.04728 37.8909 7.33512V9.24319H37.8955Z" fill="#CFD1D7"/>
      <path d="M43.0288 7.51617C43.0288 6.98693 43.1951 6.54589 43.5277 6.1977C43.865 5.84951 44.2854 5.67773 44.7981 5.67773C45.3109 5.67773 45.7267 5.84951 46.0593 6.1977C46.3966 6.54589 46.5629 6.98228 46.5629 7.51617C46.5629 8.05007 46.3966 8.49111 46.0593 8.83465C45.7267 9.18284 45.3063 9.35461 44.7981 9.35461C44.29 9.35461 43.865 9.18284 43.5277 8.83465C43.1951 8.48646 43.0288 8.05007 43.0288 7.51617ZM43.6756 7.51617C43.6756 7.88758 43.7818 8.18934 43.9989 8.41682C44.2161 8.64895 44.4794 8.76037 44.7981 8.76037C45.1169 8.76037 45.3802 8.64431 45.5974 8.41682C45.8099 8.1847 45.9207 7.88758 45.9207 7.51617C45.9207 7.14477 45.8145 6.85229 45.5974 6.62017C45.3756 6.3834 45.1123 6.26734 44.7981 6.26734C44.484 6.26734 44.2207 6.3834 43.9989 6.62017C43.7818 6.85229 43.6756 7.14942 43.6756 7.51617Z" fill="#CFD1D7"/>
      <path d="M47.0791 5.79355H47.6981V6.27173H47.7258C47.8229 6.1046 47.9753 5.96068 48.1786 5.84926C48.3818 5.73784 48.5943 5.68213 48.8115 5.68213C49.2319 5.68213 49.5552 5.80283 49.7816 6.04425C50.008 6.28566 50.1235 6.6292 50.1235 7.07489V9.24295H49.4767V7.11667C49.4628 6.55492 49.181 6.27173 48.6267 6.27173C48.368 6.27173 48.1555 6.37851 47.9799 6.58742C47.809 6.79633 47.7212 7.04703 47.7212 7.33951V9.24759H47.0745V5.79355H47.0791Z" fill="#CFD1D7"/>
    </g>
  </g>
  <defs>
    <clipPath id="clip0_285_173">
      <rect width="114" height="30" fill="white"/>
    </clipPath>
  </defs>
</svg>