<svg xmlns="http://www.w3.org/2000/svg" width="111" height="37" viewBox="0 0 111 37" fill="none">
  <g clip-path="url(#clip0_285_90)">
    <path d="M0 16.9446C0.0523225 17.1786 0.104645 17.4103 0.156968 17.6442C0.165688 17.6442 0.176588 17.6442 0.185309 17.6442V16.9847C0.41858 17.0516 0.62787 17.1429 0.84588 17.1697C1.3146 17.2276 1.78551 17.2677 2.25641 17.2877C2.74257 17.31 2.95622 17.1095 2.99982 16.6438C3.04561 16.1536 2.85594 15.8952 2.36977 15.8239C1.84873 15.7481 1.32332 15.7013 0.806639 15.6144C0.521045 15.5654 0.407679 15.7548 0.274693 15.9464C0.255072 15.9375 0.233271 15.9286 0.21365 15.9197C0.248532 15.5743 0.283414 15.229 0.322655 14.8613C0.392419 14.8947 0.41858 14.8992 0.42076 14.9103C0.486163 15.1866 0.640951 15.307 0.939625 15.3136C1.36475 15.3248 1.78769 15.3938 2.21063 15.4473C2.86902 15.5298 3.21565 15.9353 3.19603 16.6059C3.18949 16.8154 3.16115 17.0315 3.10011 17.2298C2.9802 17.6197 2.68589 17.8381 2.28257 17.8336C1.86617 17.8292 1.44323 17.8225 1.03337 17.7579C0.595168 17.6888 0.21583 17.6866 0.0021801 18.1656C0.0021801 17.7601 0.0021801 17.3546 0.0021801 16.9468L0 16.9446Z" fill="#CFD1D7"/>
    <path d="M18.5302 0C18.5127 0.0289654 18.4996 0.0757557 18.4757 0.0846682C18.1072 0.220583 18.1181 0.516922 18.129 0.842226C18.1465 1.42153 18.1421 2.00307 18.129 2.58238C18.1247 2.80519 18.1879 2.88095 18.419 2.88986C18.746 2.90323 18.9902 2.84307 19.0839 2.48434C19.0992 2.42864 19.1515 2.38185 19.2125 2.29273C19.3324 2.57124 19.2954 2.80519 19.2038 3.03246C19.1907 3.06811 19.1166 3.09707 19.0687 3.09707C18.456 3.10153 17.8413 3.0993 17.2286 3.0993C17.2286 3.0592 17.2243 3.028 17.2286 3.02577C17.5884 2.87649 17.5731 2.5757 17.5644 2.25262C17.5469 1.72901 17.5404 1.20318 17.5666 0.679574C17.5818 0.389919 17.5055 0.202758 17.2395 0.0958087C17.1916 0.0757557 17.1545 0.0334217 17.1131 0C17.5862 0 18.0571 0 18.5302 0Z" fill="#CFD1D7"/>
    <path d="M13.8677 8.41132C13.9113 8.95498 14.5544 9.39169 15.8886 9.80834C15.7752 9.97322 15.6771 10.1336 15.5638 10.2807C14.6416 11.4772 13.9091 12.7873 13.2965 14.171C13.2768 14.2133 13.2616 14.2557 13.242 14.298C13.0872 14.63 13.0588 14.6456 12.7318 14.5119C11.9099 14.1799 11.1251 13.7833 10.458 13.1795C10.3926 13.1215 10.301 13.097 10.2203 13.0569C10.2007 13.0814 10.1833 13.1082 10.1637 13.1327C10.4056 13.3889 10.6171 13.6875 10.894 13.8902C11.4434 14.2913 12.0211 14.6589 12.6076 14.9998C12.8234 15.1268 12.8692 15.2227 12.782 15.4499C12.2653 16.7823 11.9034 18.1593 11.6941 19.5764C11.6265 20.0287 11.5873 20.4854 11.524 21.0202C10.785 20.6481 10.0961 20.3005 9.40716 19.9529C9.3919 19.9685 9.37664 19.9864 9.36356 20.0019C9.4137 20.0621 9.45076 20.1379 9.51181 20.1802C10.0786 20.5612 10.6433 20.9467 11.2232 21.3054C11.4194 21.4257 11.5001 21.5505 11.4957 21.7867C11.4674 23.0077 11.6156 24.2153 11.8314 25.414C11.8445 25.4831 11.875 25.5477 11.9383 25.6101V21.6619C12.189 21.751 12.3895 21.8201 12.5901 21.8936C13.8742 22.3704 15.1975 22.6712 16.5623 22.7648C16.7803 22.7804 16.9961 22.8094 17.2119 22.8339C17.4387 22.8584 17.539 22.9809 17.5411 23.2193C17.5542 24.2799 17.5738 25.3405 17.5956 26.4011C17.6022 26.742 17.6131 27.0829 17.6283 27.4238C17.6436 27.7781 17.5717 27.8427 17.2272 27.8137C16.3246 27.7335 15.4199 27.6622 14.5173 27.582C14.3407 27.5664 14.1663 27.5218 13.9897 27.4906C13.981 27.5151 13.9701 27.5396 13.9614 27.5642C14.1249 27.6355 14.2819 27.7424 14.4519 27.7714C15.3087 27.9251 16.1655 28.0744 17.0266 28.1925C17.6545 28.2794 17.6654 28.2549 17.7003 28.8966C17.7177 29.2152 17.7025 29.5383 17.7025 29.8992C17.2468 29.8569 16.7781 29.8368 16.3159 29.77C11.6919 29.0926 7.74374 25.2781 6.77796 20.4253C6.16099 17.3238 6.84554 14.454 8.50678 11.8181C9.83882 9.70585 11.6461 8.15509 13.9876 7.29949C16.0979 6.53079 18.2562 6.38819 20.4385 6.93408C20.7742 7.01875 21.1143 7.22374 21.3716 7.46214C21.7858 7.84538 21.7313 8.27763 21.2931 8.64081C20.8353 9.01959 20.2793 9.16665 19.7212 9.29365C18.2606 9.62787 16.8043 9.57662 15.3545 9.20453C14.8792 9.08198 14.4585 8.85917 14.0791 8.54723C14.0224 8.50044 13.9527 8.46479 13.8677 8.41132Z" fill="#CFD1D7"/>
    <path d="M80.38 8.71836C80.38 9.06595 80.38 9.38679 80.38 9.70764C80.3844 11.8377 80.3866 13.97 80.3909 16.1001C80.3909 16.4967 80.3909 16.4967 80.0116 16.4989C79.7849 16.4989 79.556 16.4856 79.3314 16.4989C79.1069 16.5145 79.0306 16.4343 79.0327 16.2026C79.0436 14.9749 79.0415 13.7494 79.0436 12.5217C79.0436 12.163 79.048 11.8021 79.048 11.4433C79.048 11.3943 79.0306 11.3475 79.0044 11.2183C78.8649 11.5503 78.7559 11.8043 78.6512 12.0628C78.2108 13.1523 77.7661 14.2418 77.3344 15.3358C77.2581 15.5275 77.1535 15.6032 76.9529 15.6077C76.1528 15.6277 76.1528 15.6344 75.8476 14.8835C75.3985 13.7762 74.9516 12.6688 74.5047 11.5637C74.4763 11.4924 74.4371 11.4255 74.3433 11.3698C74.3433 11.4656 74.3433 11.5614 74.3433 11.6595C74.3433 13.1634 74.3368 14.6674 74.3499 16.1714C74.3521 16.4388 74.2583 16.5078 74.0229 16.4967C73.77 16.4833 73.5127 16.4766 73.2598 16.4967C73.0375 16.5145 72.9829 16.4321 72.9851 16.2137C73.0004 14.9415 73.0091 13.667 73.0069 12.3947C73.0069 11.2517 72.996 10.1065 72.9808 8.96345C72.9786 8.75847 73.0375 8.68717 73.2446 8.69831C73.6065 8.71613 73.9727 8.7295 74.3324 8.69831C74.618 8.67603 74.7314 8.80303 74.8273 9.04812C75.3135 10.278 75.8149 11.5013 76.312 12.7267C76.4275 13.0119 76.5496 13.2927 76.6695 13.5779C76.6935 13.5779 76.7153 13.5734 76.7393 13.5712C76.9551 13.0364 77.1753 12.5017 77.3868 11.9669C77.7835 10.9598 78.1825 9.95051 78.5684 8.93894C78.636 8.76292 78.7232 8.69831 78.9063 8.70276C79.3053 8.7139 79.7042 8.70276 80.1053 8.70276C80.1926 8.70276 80.2798 8.71613 80.3779 8.72282L80.38 8.71836Z" fill="#CFD1D7"/>
    <path d="M17.5503 19.2151C17.5503 20.0462 17.5503 20.8751 17.5503 21.7061C17.5503 22.047 17.5067 22.0894 17.1731 22.0849C15.4923 22.0693 13.8528 21.7841 12.2526 21.2694C12.0673 21.2093 11.9888 21.1179 12.0106 20.9085C12.1938 19.1995 12.5448 17.5262 13.0941 15.8997C13.1268 15.8039 13.1704 15.7125 13.1988 15.6145C13.2642 15.3761 13.395 15.3204 13.6261 15.4006C14.7576 15.795 15.9239 16 17.1186 16.0646C17.4391 16.0824 17.535 16.1693 17.5634 16.5013C17.5808 16.7018 17.559 16.9068 17.559 17.1096C17.559 17.8114 17.559 18.511 17.559 19.2129C17.5568 19.2129 17.5546 19.2129 17.5525 19.2129L17.5503 19.2151Z" fill="#CFD1D7"/>
    <path d="M23.0009 36.4116C22.7436 36.6143 22.5082 36.797 22.2487 36.9998C22.107 36.8438 21.9719 36.699 21.841 36.5497C20.7619 35.3488 19.4996 34.4018 18.0433 33.7312C17.9365 33.6821 17.7599 33.7111 17.6443 33.7668C16.1117 34.482 14.8146 35.5181 13.7093 36.8082C13.6678 36.8572 13.6286 36.9062 13.585 36.9552C13.5741 36.9686 13.5545 36.9753 13.5239 36.9953C13.2798 36.8059 13.0334 36.6121 12.7762 36.4138C14.0472 35.1661 15.4839 34.2236 17.0448 33.4504C16.5216 33.2655 16.0093 33.2677 15.5318 33.4972C15.0675 33.72 14.6162 33.9829 14.1845 34.2681C13.3059 34.8474 12.4165 35.3911 11.3896 35.6607C9.62156 36.1219 8.03445 35.6941 6.56942 34.6558C6.38411 34.5244 6.21188 34.3729 6.03747 34.228C6.01349 34.208 6.00259 34.1746 5.94373 34.0787C6.15956 34.1857 6.30562 34.2726 6.46041 34.335C7.88402 34.9098 9.30981 34.8853 10.7356 34.3506C11.7472 33.9718 12.7435 33.5507 13.7703 33.2187C14.9279 32.8421 16.1205 32.7798 17.3173 33.0583C17.8842 33.1897 18.4335 33.0449 18.9895 32.9602C20.267 32.7664 21.5053 32.987 22.7065 33.4237C23.6026 33.749 24.4703 34.1523 25.3706 34.462C26.6133 34.892 27.869 34.8541 29.1117 34.4241C29.3275 34.3483 29.5281 34.228 29.7701 34.1679C29.7134 34.2303 29.6654 34.3038 29.6 34.3573C28.3879 35.3265 27.0515 35.9392 25.4644 35.83C24.6011 35.7699 23.777 35.5515 23.0227 35.1282C22.3795 34.7672 21.7669 34.355 21.1456 33.9562C20.5286 33.5596 19.8877 33.2521 19.1312 33.3323C19.0026 33.3457 18.8761 33.3813 18.7322 33.4526C20.3019 34.2191 21.7277 35.1683 23.0052 36.4116H23.0009Z" fill="#CFD1D7"/>
    <path d="M18.541 22.0627C18.2314 22.0895 18.2161 22.0761 18.2161 21.5636C18.2161 19.9237 18.2161 18.2816 18.2161 16.6417C18.2161 16.1805 18.2619 16.1048 18.7219 16.0803C19.9319 16.0201 21.1178 15.824 22.2711 15.4452C22.4368 15.3918 22.5153 15.4452 22.572 15.6124C23.0996 17.1943 23.492 18.8075 23.6904 20.4674C23.734 20.8373 23.6598 20.9509 23.3023 21.0868C21.8329 21.6483 20.3068 21.9424 18.541 22.065V22.0627Z" fill="#CFD1D7"/>
    <path d="M18.2175 25.3758C18.2175 24.694 18.2175 24.0122 18.2175 23.3304C18.2175 22.9071 18.272 22.8335 18.6754 22.8202C20.354 22.7734 21.9891 22.4793 23.574 21.9178C23.8095 21.8354 23.8509 21.9624 23.8553 22.1406C23.8771 23.2658 23.8793 24.3888 23.6831 25.5028C23.4541 26.7951 23.5544 26.5322 22.4905 26.9266C21.1629 27.419 19.7829 27.6619 18.3789 27.7866C18.2045 27.8022 18.1325 27.751 18.1347 27.5594C18.1434 26.8308 18.1369 26.1044 18.1369 25.3758C18.163 25.3758 18.1892 25.3758 18.2154 25.3758H18.2175Z" fill="#CFD1D7"/>
    <path d="M44.4737 13.5266C44.4737 14.4357 44.4628 15.3024 44.4803 16.1692C44.4868 16.4365 44.3887 16.5078 44.1533 16.4967C43.8808 16.4856 43.6082 16.4789 43.3357 16.4945C43.1112 16.5078 43.061 16.412 43.061 16.2026C43.0676 13.9054 43.0676 11.6082 43.0698 9.31104C43.0698 9.11274 43.0698 8.91444 43.0698 8.6582C44.3299 8.70722 45.5376 8.70499 46.7367 8.81194C47.975 8.92335 48.7707 9.93045 48.7489 11.2116C48.7271 12.446 47.8594 13.4286 46.6538 13.5266C46.0957 13.5712 45.5289 13.5311 44.9664 13.5289C44.8138 13.5289 44.6612 13.5289 44.4716 13.5289L44.4737 13.5266ZM44.4912 9.96833V12.3858C45.034 12.3858 45.5616 12.3947 46.0848 12.3858C47.0397 12.368 47.539 11.6973 47.3101 10.7526C47.1967 10.2892 46.8697 9.98616 46.4119 9.97502C45.7774 9.95942 45.1452 9.97056 44.4912 9.97056V9.96833Z" fill="#CFD1D7"/>
    <path d="M97.4471 15.8773C97.2378 16.0199 97.0743 16.1313 96.9108 16.2405C95.5308 17.1607 93.7147 16.2494 93.6886 14.5672C93.6799 13.9232 93.645 13.2726 93.7256 12.6376C93.9349 10.9732 96.0038 10.2513 97.2312 11.3787C97.2639 11.4077 97.2988 11.4344 97.3555 11.479C97.3555 11.0334 97.3555 10.619 97.3555 10.2045C97.3555 9.78119 97.3555 9.35562 97.349 8.93228C97.3446 8.75849 97.3926 8.68273 97.5822 8.6961C97.8351 8.71393 98.0924 8.71838 98.3431 8.6961C98.6113 8.66936 98.657 8.78745 98.6549 9.03032C98.6418 10.4875 98.6396 11.9447 98.6396 13.4019C98.6396 14.3421 98.6396 15.2824 98.6549 16.2249C98.657 16.441 98.6025 16.5257 98.378 16.5056C98.1447 16.4856 97.9049 16.4856 97.6716 16.5056C97.4166 16.5279 97.373 16.4054 97.4144 16.1915C97.4296 16.1068 97.434 16.0199 97.4493 15.8795L97.4471 15.8773ZM97.3577 13.6915C97.3577 13.6915 97.3512 13.6915 97.349 13.6915C97.349 13.4331 97.349 13.1746 97.349 12.9161C97.3468 12.4705 97.1026 12.172 96.7189 12.0405C96.4551 11.9514 96.1477 11.9536 95.8621 11.967C95.3716 11.987 95.0032 12.397 94.9966 12.8916C94.9901 13.3907 94.9901 13.8876 94.9966 14.3867C95.0032 15.0106 95.3237 15.4027 95.921 15.4918C96.5903 15.5921 97.4209 15.3381 97.3599 14.2731C97.349 14.0792 97.3599 13.8854 97.3599 13.6915H97.3577Z" fill="#CFD1D7"/>
    <path d="M105.936 13.2014C105.936 12.9429 105.955 12.7224 105.931 12.5062C105.89 12.1542 105.676 11.9225 105.339 11.8779C105.038 11.84 104.724 11.8534 104.421 11.8779C104.163 11.898 103.989 12.0584 103.928 12.3235C103.887 12.5085 103.769 12.5753 103.59 12.5664C103.381 12.5575 103.171 12.5597 102.964 12.5619C102.764 12.5619 102.72 12.4617 102.749 12.2767C102.842 11.6595 103.2 11.2607 103.756 11.0424C104.56 10.7282 105.378 10.7438 106.18 11.0379C107.002 11.3387 107.259 12.0205 107.264 12.8382C107.268 13.7985 107.264 14.7566 107.268 15.7169C107.268 15.9643 107.29 16.2093 107.305 16.4923C106.937 16.4923 106.586 16.5012 106.235 16.4901C105.936 16.479 106.058 16.2027 105.984 16.0244C105.925 16.0578 105.868 16.0801 105.822 16.1158C105.044 16.733 104.194 16.7641 103.339 16.3497C102.262 15.8283 102.195 14.3088 103.193 13.6114C103.638 13.2994 104.144 13.2148 104.667 13.2014C105.083 13.1903 105.502 13.1992 105.945 13.1992L105.936 13.2014ZM105.951 14.1818C105.421 14.1818 104.918 14.1684 104.412 14.1907C104.259 14.1974 104.096 14.2753 103.961 14.3622C103.695 14.536 103.679 15.1399 103.919 15.3382C104.27 15.6278 105.094 15.6701 105.526 15.4184C106.014 15.1332 105.945 14.6608 105.949 14.1818H105.951Z" fill="#CFD1D7"/>
    <path d="M54.1102 16.4993C53.7853 16.4993 53.4954 16.4882 53.2076 16.5015C52.9438 16.5127 52.7781 16.4414 52.8086 16.1339C52.8108 16.1027 52.7912 16.0671 52.7738 16.0091C52.7236 16.0381 52.68 16.0515 52.6539 16.0804C52.0696 16.6954 50.8357 16.7845 50.0356 16.2988C49.048 15.6994 49.0327 14.2801 49.9941 13.6117C50.4498 13.2953 50.9643 13.2128 51.494 13.1995C51.9017 13.1906 52.3094 13.1995 52.7105 13.1995C52.9482 12.413 52.6103 11.8827 51.845 11.8403C51.614 11.827 51.3763 11.8648 51.1452 11.9027C50.9076 11.9406 50.7528 12.0921 50.7114 12.3372C50.683 12.5065 50.5937 12.5689 50.4302 12.5645C50.2209 12.5578 50.0116 12.5556 49.8045 12.5622C49.5603 12.5689 49.5167 12.4464 49.5603 12.228C49.6584 11.7312 49.9244 11.3568 50.3648 11.1429C51.3066 10.6862 52.268 10.7107 53.2032 11.1518C53.8987 11.4794 54.0557 12.1389 54.0644 12.8452C54.0753 13.8033 54.0644 14.7636 54.0709 15.7239C54.0709 15.9712 54.0971 16.2163 54.1124 16.5038L54.1102 16.4993ZM52.7345 14.1776C52.2266 14.1776 51.7273 14.1687 51.2303 14.1821C51.0995 14.1865 50.9665 14.2422 50.8422 14.2979C50.6264 14.396 50.5544 14.5809 50.5631 14.8149C50.5719 15.0488 50.5631 15.2761 50.8226 15.4008C51.3196 15.6415 51.8254 15.6615 52.3138 15.4187C52.7912 15.1825 52.7607 14.7079 52.7541 14.2601C52.7541 14.2422 52.7454 14.2266 52.7323 14.1754L52.7345 14.1776Z" fill="#CFD1D7"/>
    <path d="M65.6588 14.1126C65.6544 14.6964 65.7918 15.1665 66.315 15.3893C67.0671 15.7102 67.695 15.4785 68.1943 14.8279C68.5278 15.0351 68.8396 15.2289 69.1622 15.4295C68.687 16.1714 68.0417 16.5279 67.2394 16.6037C66.6224 16.6616 66.0272 16.5591 65.4757 16.2539C64.8456 15.9063 64.4728 15.3737 64.4249 14.6496C64.3878 14.0904 64.3725 13.5244 64.4205 12.9674C64.5186 11.7954 65.4452 10.922 66.6028 10.8574C67.4378 10.8106 68.1834 10.9977 68.7611 11.6729C69.1535 12.1318 69.2233 12.68 69.2582 13.2437C69.2945 13.8245 69.0271 14.1149 68.4559 14.1149C67.6383 14.1149 66.823 14.1149 66.0054 14.1149C65.8986 14.1149 65.7918 14.1149 65.661 14.1149L65.6588 14.1126ZM67.9588 13.1679C67.8585 12.1586 67.4988 11.8556 66.5766 11.9581C66.012 12.0204 65.6239 12.553 65.7024 13.1679H67.961H67.9588Z" fill="#CFD1D7"/>
    <path d="M87.7948 10.9221C88.1676 10.9221 88.5011 10.931 88.8347 10.9198C89.0113 10.9131 89.057 10.9934 89.0505 11.1515C89.044 11.2852 89.0505 11.4211 89.0505 11.6016C89.129 11.5348 89.1835 11.4947 89.2293 11.4479C89.8397 10.8374 90.5526 10.6881 91.3549 10.9644C92.0918 11.2184 92.4471 11.7977 92.482 12.5374C92.5409 13.7896 92.5321 15.0441 92.5539 16.2963C92.5561 16.4522 92.4885 16.5057 92.3381 16.5012C92.0656 16.4946 91.7931 16.4901 91.5206 16.5035C91.3091 16.5146 91.235 16.4455 91.2372 16.2227C91.2502 15.3293 91.2633 14.4336 91.2437 13.5401C91.235 13.197 91.1805 12.8427 91.0736 12.5174C90.9428 12.1185 90.6224 11.9425 90.2016 11.9514C89.7721 11.9626 89.3862 12.0829 89.2315 12.5152C89.1224 12.8182 89.0788 13.1591 89.0745 13.4844C89.0592 14.3868 89.0745 15.2914 89.0897 16.1938C89.0941 16.4299 89.0265 16.5257 88.778 16.5012C88.536 16.4767 88.2875 16.4812 88.0433 16.5012C87.8166 16.5213 87.7642 16.4255 87.7664 16.216C87.7751 15.4964 87.7664 14.7767 87.7686 14.0592C87.7686 13.1368 87.7686 12.2144 87.773 11.2941C87.773 11.1761 87.7839 11.058 87.7926 10.9198L87.7948 10.9221Z" fill="#CFD1D7"/>
    <path d="M81.5905 13.7742C81.6144 13.4734 81.6144 13.128 81.6733 12.7938C81.863 11.7332 82.5759 11.0737 83.7204 10.8709C84.7581 10.686 85.8853 11.2297 86.3474 12.1454C86.4216 12.2902 86.5001 12.4529 86.5044 12.6111C86.5262 13.3352 86.6221 14.0794 86.5088 14.7835C86.2777 16.2251 84.7821 16.7509 83.7553 16.586C83.3869 16.5259 83.0141 16.3966 82.6783 16.2318C82.0701 15.9332 81.7452 15.4007 81.658 14.7256C81.6188 14.4248 81.6144 14.1195 81.5926 13.7742H81.5905ZM85.3446 13.7496C85.3293 13.7496 85.3141 13.7496 85.2966 13.7474C85.2966 13.48 85.3163 13.2127 85.2923 12.9475C85.24 12.3459 84.8802 11.9984 84.2872 11.956C84.1695 11.9471 84.0518 11.9493 83.9341 11.956C83.2953 11.9984 82.953 12.3459 82.9399 12.9943C82.929 13.5001 82.9356 14.0081 82.9465 14.5139C82.9574 14.9729 83.2124 15.3517 83.6528 15.443C83.9689 15.5076 84.3178 15.492 84.6382 15.4341C84.974 15.3739 85.1854 15.1088 85.2421 14.7634C85.2966 14.4292 85.3097 14.0883 85.3424 13.7496H85.3446Z" fill="#CFD1D7"/>
    <path d="M25.563 13.471C25.6415 13.5802 25.7004 13.6492 25.744 13.725C26.446 14.9616 26.9212 16.2918 27.294 17.6621C27.4161 18.1077 27.3398 18.4775 26.9583 18.765C26.289 19.2707 25.6306 19.7899 24.9548 20.2845C24.691 20.4784 24.6365 20.4405 24.5667 20.1152C24.316 18.9566 24.0828 17.7935 23.8124 16.6394C23.7034 16.1759 23.5203 15.7303 23.3633 15.278C23.3154 15.1376 23.3132 15.0262 23.4636 14.9571C24.2397 14.6029 24.9417 14.135 25.563 13.4688V13.471Z" fill="#CFD1D7"/>
    <path d="M17.6702 12.6532C17.6419 13.4353 17.6092 14.2173 17.5896 15.0016C17.583 15.2824 17.4675 15.3915 17.1928 15.3871C16.0264 15.3715 14.8862 15.1732 13.7635 14.8679C13.5607 14.8122 13.5368 14.7097 13.6196 14.5226C14.3151 12.9696 15.0912 11.4656 16.1224 10.1065C16.2488 9.93935 16.3578 9.9037 16.554 9.94826C16.8527 10.0151 17.1623 10.053 17.4697 10.0708C17.7117 10.0842 17.7705 10.1889 17.7553 10.4184C17.7073 11.1626 17.6768 11.909 17.6375 12.6532C17.6484 12.6532 17.6593 12.6532 17.6702 12.6532Z" fill="#CFD1D7"/>
    <path d="M18.1597 10.1088C18.6175 10.062 19.1211 10.0041 19.6269 9.96845C19.7032 9.96399 19.8122 10.0397 19.8601 10.1088C20.7496 11.3967 21.4712 12.7781 22.0577 14.2308C22.2016 14.5873 22.1841 14.6252 21.8244 14.7411C20.7845 15.0775 19.7206 15.3025 18.6306 15.3805C18.3166 15.4028 18.212 15.3271 18.2011 14.9973C18.1749 14.2509 18.1662 13.5045 18.1618 12.758C18.1553 11.8824 18.1618 11.009 18.1618 10.1088H18.1597Z" fill="#CFD1D7"/>
    <path d="M58.8672 14.398C59.1855 14.398 59.495 14.4069 59.8024 14.3958C60.0357 14.3868 60.0771 14.5005 60.0488 14.7055C59.9202 15.5989 59.4318 16.1872 58.5947 16.4612C57.7161 16.7486 56.8724 16.6462 56.0984 16.1203C55.6406 15.8084 55.3616 15.3694 55.2591 14.8146C55.1414 14.164 55.1283 13.5112 55.2329 12.8606C55.4989 11.2051 56.8964 10.7082 58.054 10.8753C59.2007 11.0425 59.8221 11.6396 60.0335 12.7002C60.1055 13.0634 60.0641 13.1168 59.6934 13.1191C59.6389 13.1191 59.5844 13.1191 59.5299 13.1191C59.3206 13.1168 59.0699 13.1837 58.9173 13.0879C58.7909 13.0076 58.7843 12.7358 58.7211 12.5509C58.6993 12.4907 58.6731 12.4306 58.6383 12.3771C58.4159 12.0228 57.8491 11.849 57.3062 11.9671C56.8746 12.0607 56.541 12.366 56.5192 12.8071C56.4865 13.4399 56.5083 14.0771 56.5345 14.7122C56.541 14.8525 56.6369 15.0107 56.7329 15.1221C57.0708 15.5076 57.7771 15.6457 58.2393 15.4385C58.4944 15.3249 58.6666 15.131 58.7473 14.8592C58.7909 14.7099 58.8258 14.5584 58.8672 14.398Z" fill="#CFD1D7"/>
    <path d="M10.9357 32.7822C10.7874 32.7287 10.6435 32.6619 10.4909 32.6262C9.51423 32.4057 8.73375 31.9021 8.21271 31.0176C7.79849 30.3135 7.39299 29.6072 6.98313 28.8986C6.95261 28.8451 6.93517 28.785 6.94825 28.6914C7.40389 29.059 7.87043 29.4133 8.31517 29.7965C8.92996 30.3268 9.52731 30.8816 10.1356 31.4231C10.8724 32.0804 11.7096 32.5349 12.6754 32.7354C12.8803 32.7778 13.0787 32.8624 13.2727 32.9538C12.0257 32.9761 10.8855 33.4885 9.68646 33.698C7.81593 34.0233 6.05441 33.8138 4.44549 32.7243C3.82634 32.3054 3.3271 31.7684 2.91724 31.1267C3.07856 31.2448 3.23335 31.374 3.40558 31.4788C4.13373 31.9177 4.92729 32.1784 5.76227 32.272C6.61687 32.37 7.48237 32.3812 8.33915 32.477C9.10437 32.5616 9.86087 32.7065 10.6239 32.8246C10.7198 32.8401 10.8158 32.8513 10.9139 32.8647L10.9378 32.78L10.9357 32.7822Z" fill="#CFD1D7"/>
    <path d="M22.6826 32.9114C22.7894 32.8735 22.9093 32.8134 23.0358 32.7889C24.0866 32.5928 25.0175 32.1516 25.8198 31.4319C26.5675 30.7613 27.3175 30.0884 28.0762 29.4311C28.364 29.1815 28.6801 28.9699 29.0311 28.7827C28.9373 28.9409 28.8436 29.1013 28.752 29.2595C28.4555 29.7765 28.1503 30.2911 27.8669 30.8148C27.3131 31.833 26.4585 32.4257 25.3532 32.6708C25.2268 32.6997 25.1047 32.7443 24.9826 32.7822C24.987 32.8089 24.9913 32.8334 24.9957 32.8602C25.0764 32.8557 25.1592 32.8579 25.2377 32.8446C26.0269 32.722 26.8117 32.5683 27.6031 32.4792C28.3422 32.3967 29.0899 32.4079 29.829 32.3321C30.7076 32.243 31.5643 32.0358 32.347 31.5946C32.5955 31.4542 32.8223 31.2737 33.1122 31.1534C32.8157 31.4899 32.5498 31.862 32.2184 32.1583C30.749 33.4729 29.0267 34.0255 27.0842 33.7893C26.3038 33.6957 25.5364 33.4996 24.7624 33.3437C24.0735 33.2055 23.3846 33.0585 22.6804 32.9114H22.6826Z" fill="#CFD1D7"/>
    <path d="M46.4139 25.9309C47.1616 26.9759 47.9094 28.0187 48.6637 29.0726C48.0729 29.2152 47.9988 29.1795 47.6718 28.7049C47.0723 27.8382 46.4706 26.9715 45.8601 26.1136C45.8056 26.0379 45.6901 25.9666 45.5985 25.9621C45.0927 25.9488 44.5848 25.9555 44.0376 25.9555V29.0458C43.9896 29.0859 43.9831 29.0971 43.9765 29.0971C43.3465 29.1706 43.3552 29.1706 43.3552 28.5423C43.3508 26.2741 43.3421 24.0059 43.3334 21.7376C43.3334 21.3834 43.3268 21.3722 43.6887 21.3834C44.648 21.4123 45.616 21.3945 46.5665 21.4992C47.5388 21.6062 48.1645 22.288 48.3302 23.2327C48.5002 24.2042 48.1318 25.1221 47.3535 25.5678C47.0766 25.726 46.754 25.8017 46.4117 25.9309H46.4139ZM44.0572 21.9471V25.3494C44.0942 25.3628 44.1117 25.3739 44.1291 25.3739C44.7003 25.3717 45.2715 25.3739 45.8427 25.3605C46.076 25.3539 46.3136 25.3294 46.5403 25.2759C47.3382 25.0865 47.7328 24.5473 47.7394 23.6694C47.7459 22.8472 47.3361 22.2947 46.5774 22.0808C45.7489 21.849 44.9052 21.9894 44.0572 21.9471Z" fill="#CFD1D7"/>
    <path d="M24.1113 26.2026C24.556 24.8769 24.6759 23.5489 24.6803 22.212C24.6803 21.6817 24.8743 21.3832 25.3169 21.1203C26.1257 20.639 26.8931 20.0864 27.7128 19.5405C27.7128 19.828 27.7193 20.1533 27.7128 20.4786C27.6932 21.2606 27.6801 22.0427 27.6365 22.8248C27.606 23.3617 27.3574 23.823 26.9999 24.1995C26.2107 25.0306 25.2624 25.6411 24.253 26.158C24.2225 26.1736 24.1876 26.1803 24.1113 26.2026Z" fill="#CFD1D7"/>
    <path d="M61.2631 10.9268V9.30029H62.5625V10.9224C62.8829 10.9224 63.1707 10.929 63.4585 10.9224C63.6416 10.9179 63.7223 10.9758 63.7092 11.1786C63.6939 11.4326 63.7048 11.6888 63.7048 11.9651H62.569C62.569 12.2681 62.569 12.5533 62.569 12.8363C62.569 13.5471 62.569 14.2578 62.569 14.9686C62.569 15.2761 62.6736 15.3897 62.9723 15.4009C63.2056 15.4098 63.4389 15.4009 63.6983 15.4009C63.6983 15.7262 63.707 16.027 63.6896 16.3278C63.6852 16.3901 63.5827 16.4949 63.5239 16.4971C63.0639 16.506 62.5952 16.555 62.1482 16.4704C61.6141 16.3701 61.2609 15.8264 61.2588 15.2538C61.2544 14.2668 61.2588 13.2797 61.2588 12.2904C61.2588 12.1902 61.2588 12.0921 61.2588 11.9607C61.0582 11.9607 60.8772 11.9763 60.7028 11.954C60.6309 11.9451 60.5197 11.8537 60.5153 11.7935C60.4957 11.5106 60.5066 11.2276 60.5066 10.9268H61.2609H61.2631Z" fill="#CFD1D7"/>
    <path d="M108.627 12.0432C108.627 11.0182 108.631 9.99555 108.622 8.97062C108.622 8.76786 108.67 8.68319 108.879 8.69433C109.152 8.7077 109.424 8.7077 109.697 8.69433C109.898 8.68319 109.937 8.76786 109.935 8.95279C109.919 10.8445 109.911 12.7361 109.902 14.6256C109.902 14.7815 109.913 14.9397 109.926 15.0957C109.948 15.3207 110.07 15.4455 110.297 15.4544C110.451 15.4611 110.606 15.4812 110.759 15.4656C110.968 15.4433 111.014 15.5458 110.996 15.724C110.996 15.7329 110.994 15.7418 110.994 15.7508C110.974 16.2231 110.73 16.4845 110.262 16.5351C109.492 16.6175 108.993 16.4014 108.786 15.8377C108.688 15.5681 108.648 15.2628 108.642 14.9731C108.624 13.995 108.635 13.0169 108.635 12.0387C108.633 12.0387 108.629 12.0387 108.627 12.0387V12.0432Z" fill="#CFD1D7"/>
    <path d="M20.3095 9.85488C20.3771 9.82146 20.4425 9.78136 20.5144 9.75462C20.8676 9.61425 21.2186 9.46942 21.5761 9.34242C21.6546 9.31345 21.7767 9.31568 21.8399 9.36024C23.0237 10.1713 24.0288 11.1717 24.8725 12.3415C25.0992 12.6556 25.097 12.7826 24.7983 13.0143C24.3013 13.3976 23.7824 13.7474 23.2701 14.1106C23.0695 14.2532 22.9387 14.1997 22.8188 13.9769C22.3457 13.0968 21.877 12.2167 21.3669 11.3589C21.0595 10.8442 20.6779 10.374 20.3117 9.85488H20.3095Z" fill="#CFD1D7"/>
    <path d="M4.37328 24.9526C4.91831 25.8617 5.48732 26.7775 5.78163 27.8358C5.95168 28.4463 6.11955 29.059 6.32448 29.6584C6.57955 30.4071 6.8913 31.1312 7.51699 31.7372C6.47926 31.4632 5.4786 31.2671 4.53025 30.9284C3.40096 30.5229 2.64882 29.6094 1.97517 28.6424C1.53261 28.0074 1.21867 27.3077 1.07697 26.5301C1.23611 26.7864 1.38 27.0537 1.55659 27.2966C1.96645 27.8625 2.50711 28.2859 3.10228 28.629C4.10513 29.2083 5.09272 29.8077 5.9277 30.6299C5.98656 30.6878 6.05632 30.7301 6.12609 30.7747C6.16097 30.797 6.20457 30.8081 6.24817 30.8237C6.25471 30.7925 6.26779 30.768 6.26125 30.7613C5.36523 29.8612 4.92267 28.7493 4.76352 27.4949C4.65452 26.6415 4.50627 25.7949 4.37546 24.9526H4.37328Z" fill="#CFD1D7"/>
    <path d="M31.59 24.9815C31.4221 26.0109 31.2521 27.0871 31.0668 28.161C30.9076 29.0746 30.4868 29.8589 29.8895 30.5518C29.8263 30.6253 29.7652 30.7033 29.7369 30.8348C29.8045 30.7969 29.8851 30.7724 29.9375 30.7211C30.8269 29.8522 31.8603 29.1949 32.9264 28.5732C33.7788 28.0764 34.4982 27.4213 34.8776 26.4521C34.9081 26.4677 34.9364 26.4833 34.967 26.4989C34.7817 26.9757 34.6334 27.4726 34.4023 27.9271C33.9053 28.9075 33.2033 29.7229 32.353 30.4092C31.8974 30.7768 31.3698 30.9996 30.8117 31.14C30.0683 31.325 29.3183 31.4854 28.5444 31.6636C28.6883 31.4698 28.8278 31.2938 28.9521 31.1066C29.4382 30.3802 29.7042 29.5558 29.9178 28.7181C30.2536 27.3946 30.7594 26.1535 31.5464 25.0372C31.5725 25.0016 31.5987 24.9682 31.5878 24.9815H31.59Z" fill="#CFD1D7"/>
    <path d="M77.6902 21.4658C77.7839 21.4569 77.8886 21.439 77.9932 21.439C79.3471 21.439 80.6987 21.4413 82.0526 21.4346C82.2728 21.4346 82.3556 21.4947 82.3534 21.7309C82.3534 21.976 82.275 22.0428 82.0373 22.0406C80.8841 22.0295 79.7308 22.0406 78.5775 22.0317C78.3835 22.0317 78.305 22.0718 78.3072 22.2902C78.3181 23.0655 78.3159 23.8387 78.3028 24.6141C78.2985 24.8503 78.3922 24.8792 78.5949 24.877C79.5128 24.8681 80.4284 24.8859 81.3462 24.8703C81.6188 24.8659 81.6297 25.0085 81.6427 25.209C81.658 25.4519 81.5294 25.4741 81.3375 25.4719C80.339 25.4652 79.3427 25.4697 78.2963 25.4697C78.2963 25.61 78.2963 25.7348 78.2963 25.8574C78.3028 26.8533 78.3115 27.8493 78.3115 28.8453C78.3115 28.9344 78.2658 29.0948 78.2265 29.0993C78.0521 29.1193 77.8712 29.0993 77.6946 29.0792C77.6793 29.0792 77.664 28.9812 77.664 28.9299C77.6619 26.4679 77.6619 24.0036 77.6619 21.5415C77.6619 21.5237 77.6728 21.5081 77.688 21.4613L77.6902 21.4658Z" fill="#CFD1D7"/>
    <path d="M90.2173 28.317C89.4761 29.2283 88.4972 29.4979 87.5729 29.0612C87.0257 28.8027 86.7357 28.366 86.7226 27.7555C86.7096 27.1383 86.9733 26.6771 87.5227 26.3897C87.9805 26.149 88.4776 26.1111 88.9769 26.1C89.3736 26.0911 89.7726 26.1 90.2457 26.1C90.2086 25.6276 90.213 25.1865 90.1323 24.7609C90.0538 24.3487 89.681 24.2083 89.3257 24.1682C88.979 24.1281 88.6171 24.1437 88.2727 24.2083C87.8563 24.2863 87.5314 24.5225 87.5031 25.0082C87.4835 25.3179 87.2611 25.2778 87.0911 25.2333C87.0235 25.2154 86.9515 25.0194 86.9646 24.9147C87.0605 24.2128 87.5445 23.8764 88.1593 23.7137C88.6651 23.58 89.1861 23.5934 89.6963 23.7248C90.5247 23.941 90.8517 24.3799 90.8517 25.2556C90.8517 26.2783 90.8496 27.3032 90.8517 28.3259C90.8517 28.4997 90.8823 28.6735 90.8953 28.8495C90.9041 28.9698 90.9302 29.108 90.7471 29.108C90.5967 29.108 90.4005 29.2015 90.3438 28.9564C90.2958 28.7537 90.2609 28.5487 90.2152 28.317H90.2173ZM89.2276 26.5813C89.2276 26.5679 89.2254 26.5545 89.2232 26.5412C88.8199 26.5835 88.4079 26.5902 88.0154 26.6793C87.5641 26.7818 87.3025 27.1784 87.2807 27.6619C87.2633 28.0541 87.5271 28.5064 87.9348 28.6133C88.3119 28.7114 88.7283 28.776 89.1055 28.7158C89.6723 28.6267 90.0713 28.2457 90.189 27.653C90.2457 27.3678 90.2261 27.067 90.2413 26.7729C90.25 26.6303 90.1825 26.5768 90.0451 26.5791C89.7726 26.5835 89.5001 26.5791 89.2276 26.5791V26.5813Z" fill="#CFD1D7"/>
    <path d="M65.1633 25.2333C64.5834 25.2823 64.5333 25.2244 64.7033 24.6763C64.8123 24.3242 65.0369 24.0702 65.3661 23.9098C66.1008 23.5488 66.8573 23.531 67.6116 23.8117C68.161 24.0167 68.4902 24.4378 68.5076 25.0461C68.5381 26.1602 68.5425 27.2765 68.5578 28.3927C68.5599 28.5576 68.5469 28.7292 68.5774 28.8896C68.6144 29.0924 68.5272 29.1236 68.3594 29.1258C67.9996 29.1325 67.9451 29.0812 67.9757 28.718C67.9844 28.6 68.0018 28.4841 68.0258 28.2747C67.9059 28.3927 67.8361 28.4507 67.7795 28.5197C67.1341 29.3196 65.813 29.4979 64.9911 28.8852C64.5355 28.5443 64.3502 28.0763 64.4177 27.506C64.4875 26.9133 64.8363 26.51 65.3639 26.3295C65.7868 26.1847 66.2468 26.1468 66.6959 26.1C67.0273 26.0644 67.3674 26.08 67.7032 26.0911C67.8688 26.0956 67.9364 26.0532 67.9255 25.8772C67.9124 25.6566 67.9233 25.4338 67.9168 25.2132C67.8994 24.596 67.5833 24.2239 66.9859 24.1549C66.7178 24.1237 66.4387 24.1237 66.1705 24.1571C65.4751 24.244 65.244 24.5002 65.1655 25.2311L65.1633 25.2333ZM67.9124 26.5791C67.3391 26.5791 66.8049 26.5701 66.273 26.5835C66.0768 26.588 65.8762 26.6236 65.6887 26.686C65.3334 26.8041 65.0696 27.0269 65.0129 27.4347C64.954 27.8758 65.0412 28.2546 65.4228 28.5287C66.0572 28.9832 67.2192 28.7983 67.6574 28.1588C67.98 27.6864 67.9321 27.1495 67.9103 26.5791H67.9124Z" fill="#CFD1D7"/>
    <path d="M102.906 26.5145C102.906 26.8844 102.887 27.2075 102.911 27.5283C102.954 28.1366 103.438 28.6179 104.12 28.727C104.755 28.8273 105.324 28.6869 105.788 28.1945C106.028 27.9405 106.157 28.2413 106.394 28.3282C106.248 28.4864 106.148 28.6312 106.015 28.7293C105.243 29.293 104.393 29.3977 103.508 29.0858C102.74 28.8162 102.337 28.2079 102.276 27.4169C102.226 26.7685 102.226 26.1023 102.304 25.4584C102.435 24.3867 103.235 23.7049 104.295 23.6559C105.633 23.5957 106.416 24.3087 106.482 25.7213C106.527 26.7173 106.593 26.5078 105.766 26.519C104.923 26.5301 104.077 26.519 103.233 26.5168C103.135 26.5168 103.037 26.5168 102.908 26.5168L102.906 26.5145ZM102.921 26.0912C103.772 26.0912 104.607 26.0956 105.442 26.0912C106.024 26.0867 105.943 26.1759 105.889 25.5653C105.838 24.986 105.64 24.4713 105.047 24.2574C104.434 24.0369 103.846 24.0926 103.342 24.556C102.902 24.9638 102.854 25.4963 102.921 26.0912Z" fill="#CFD1D7"/>
    <path d="M59.9686 26.5144C59.9686 26.9066 59.9272 27.2697 59.9773 27.6196C60.0601 28.1877 60.4395 28.5309 60.9693 28.6757C61.6756 28.8651 62.31 28.7403 62.8463 28.19C63.0774 27.9515 63.2148 28.2367 63.4459 28.3415C63.2911 28.4997 63.1799 28.6489 63.0404 28.7514C62.3471 29.2594 61.5731 29.3664 60.76 29.157C59.9141 28.9386 59.393 28.3125 59.3233 27.3566C59.2775 26.7261 59.2906 26.0822 59.3625 25.4538C59.4802 24.4467 60.2193 23.7738 61.2221 23.6647C62.5368 23.5243 63.3674 24.2016 63.5113 25.5385C63.5309 25.7301 63.5418 25.924 63.544 26.1178C63.5483 26.5211 63.544 26.5233 63.1603 26.5233C62.225 26.5233 61.2897 26.5189 60.3545 26.5166C60.2367 26.5166 60.119 26.5166 59.9708 26.5166L59.9686 26.5144ZM59.9729 26.0888C60.7752 26.0888 61.5622 26.0955 62.3471 26.0888C63.0949 26.0799 63.0469 26.2426 62.9117 25.3914C62.7221 24.1972 61.4118 23.7293 60.4787 24.4891C59.9708 24.9035 59.9054 25.4538 59.9729 26.0911V26.0888Z" fill="#CFD1D7"/>
    <path d="M53.4736 28.3685C53.0855 28.8877 52.5645 29.1729 51.9323 29.2264C51.6379 29.2509 51.3327 29.2331 51.0406 29.1818C50.1468 29.0236 49.6213 28.5045 49.4644 27.5887C49.3336 26.8222 49.3358 26.0424 49.4971 25.2782C49.6889 24.3669 50.3844 23.7541 51.276 23.665C52.316 23.5603 53.0812 23.9547 53.4474 24.7724C53.6785 25.2893 53.6371 25.8352 53.6175 26.3766C53.6175 26.4256 53.4649 26.5036 53.382 26.5058C52.4925 26.5192 51.6031 26.5192 50.7114 26.5214C50.5043 26.5214 50.295 26.5214 50.0639 26.5214C49.9963 27.1832 49.944 27.8271 50.4585 28.3195C50.9796 28.8186 51.6161 28.852 52.2658 28.6381C52.486 28.5668 52.6909 28.4332 52.8806 28.2928C53.1793 28.0722 53.1706 28.0611 53.4758 28.3708L53.4736 28.3685ZM51.5573 26.0892V26.0936C51.9846 26.0936 52.4097 26.1003 52.837 26.087C52.9111 26.0847 53.0419 26.0023 53.0441 25.951C53.0681 25.4564 53.0441 24.9707 52.6757 24.5808C52.2484 24.1285 51.4592 23.9992 50.8575 24.2889C50.3255 24.5451 49.9331 25.3049 50.0094 25.9043C50.0312 26.0647 50.1119 26.0914 50.2492 26.0892C50.6852 26.0847 51.1213 26.0892 51.5551 26.0892H51.5573Z" fill="#CFD1D7"/>
    <path d="M73.2621 23.8094C73.3101 23.7894 73.3253 23.776 73.3428 23.776C73.9009 23.7226 73.9052 23.727 73.9052 24.2885C73.9052 25.7925 73.9052 27.2964 73.9052 28.7982C73.9052 29.0789 73.6436 29.2282 73.3994 29.0767C73.3515 29.0455 73.3297 28.9408 73.3275 28.8695C73.3188 28.6289 73.3253 28.3882 73.3253 28.1476C73.297 28.1431 73.2708 28.1364 73.2425 28.132C73.1749 28.2256 73.1073 28.3169 73.0419 28.4127C72.5514 29.1391 71.5093 29.4488 70.7157 29.099C70.1598 28.8539 69.8568 28.3994 69.8372 27.8067C69.7914 26.4899 69.7914 25.1708 69.7739 23.854C69.7739 23.8384 69.7892 23.8228 69.8153 23.7738C69.9047 23.7738 70.0116 23.7827 70.1162 23.7738C70.3538 23.7471 70.428 23.8429 70.4258 24.0857C70.4127 25.1731 70.4214 26.2626 70.4214 27.3521C70.4214 27.8758 70.5195 28.3615 71.0558 28.5865C71.627 28.8272 72.1764 28.7536 72.6647 28.3526C73.079 28.0139 73.273 27.5794 73.2621 27.0268C73.2425 26.0309 73.2556 25.0349 73.2577 24.0389C73.2577 23.9654 73.2643 23.8941 73.2686 23.8161L73.2621 23.8094Z" fill="#CFD1D7"/>
    <path d="M92.1813 23.7849C92.2205 23.7715 92.2467 23.7582 92.2707 23.7582C92.7351 23.7426 92.759 23.7671 92.746 24.2372C92.7416 24.3865 92.746 24.538 92.746 24.6895L92.8179 24.7029C92.8593 24.6383 92.9007 24.5759 92.9422 24.5113C93.5395 23.6133 94.4116 23.4061 95.3032 23.7337C95.966 23.9765 96.2167 24.5959 96.2385 25.2621C96.2755 26.4787 96.2537 27.6952 96.2603 28.914C96.2603 29.2215 96.0357 29.1034 95.8875 29.1235C95.7196 29.148 95.6259 29.1079 95.6281 28.8895C95.6411 27.8668 95.6477 26.8419 95.6281 25.8192C95.6215 25.4939 95.5736 25.1552 95.4711 24.8477C95.3098 24.3709 94.9762 24.1815 94.4791 24.1971C93.4131 24.2328 92.7743 24.8767 92.7612 25.9573C92.7503 26.9154 92.7569 27.8757 92.7721 28.8338C92.7765 29.0722 92.6915 29.1324 92.4734 29.1301C92.262 29.1301 92.1486 29.1079 92.1508 28.8383C92.1639 27.2251 92.1573 25.6097 92.1595 23.9966C92.1595 23.9253 92.1726 23.854 92.1791 23.7849H92.1813Z" fill="#CFD1D7"/>
    <path d="M100.077 16.4991V10.9399H101.361C101.365 11.0135 101.374 11.1004 101.374 11.1873C101.374 12.8539 101.37 14.5205 101.381 16.1894C101.381 16.43 101.322 16.5169 101.08 16.5035C100.757 16.4857 100.43 16.4991 100.077 16.4991Z" fill="#CFD1D7"/>
    <path d="M28.2086 17.0605C28.1716 16.9624 28.1236 16.8666 28.0974 16.7664C27.7355 15.4273 27.1905 14.1684 26.4667 12.9897C26.3359 12.7758 26.2989 12.5775 26.3839 12.3413C26.5692 11.8133 26.7327 11.2808 26.6847 10.6279C26.8831 10.8708 27.0336 11.0557 27.1796 11.2407C27.9318 12.1921 28.479 13.2526 28.8103 14.4269C28.939 14.8792 28.8692 15.3248 28.7319 15.757C28.5945 16.196 28.4354 16.6305 28.2849 17.0649C28.2588 17.0627 28.2326 17.0605 28.2065 17.0583L28.2086 17.0605Z" fill="#CFD1D7"/>
    <path d="M18.0345 29.8879C18.0563 29.42 18.0912 28.9789 18.0868 28.5377C18.0868 28.3082 18.1805 28.2614 18.3724 28.2458C19.0046 28.2013 19.6434 28.1879 20.2669 28.0787C21.1477 27.925 22.0175 27.6977 22.8917 27.4994C22.9593 27.4838 23.0269 27.4682 23.1664 27.437C23.0378 27.7044 22.9223 27.9049 22.8394 28.121C22.5843 28.7984 22.0938 29.1437 21.4136 29.3354C20.3497 29.6317 19.2749 29.8189 18.1784 29.8946C18.1348 29.8968 18.089 29.8902 18.0323 29.8857L18.0345 29.8879Z" fill="#CFD1D7"/>
    <path d="M97.9931 26.5277C97.9931 26.8218 97.9822 27.1182 97.9953 27.4123C98.0236 28.0428 98.3746 28.5196 98.9131 28.6801C99.6151 28.8895 100.361 28.7068 100.688 28.2033C100.801 28.0295 100.862 27.7955 100.88 27.5838C100.906 27.263 101.117 27.3744 101.276 27.3677C101.47 27.3588 101.486 27.488 101.466 27.6485C101.329 28.6845 100.524 29.3039 99.3775 29.2549C98.1915 29.2037 97.4873 28.5798 97.3957 27.3789C97.3391 26.6592 97.3587 25.9194 97.459 25.2064C97.5767 24.3731 98.2198 23.7938 99.0504 23.698C99.4559 23.6512 99.8941 23.6624 100.282 23.7715C100.986 23.9676 101.361 24.5113 101.468 25.2399C101.494 25.4092 101.505 25.5785 101.246 25.5808C101.039 25.5808 100.888 25.5941 100.88 25.2956C100.858 24.6227 100.372 24.2016 99.6194 24.1481C98.682 24.0835 98.0476 24.636 97.9865 25.5919C97.9669 25.9038 97.9844 26.218 97.9844 26.5322H97.9931V26.5277Z" fill="#CFD1D7"/>
    <path d="M56.3943 29.2396C55.8493 29.2641 55.3217 29.117 54.829 28.8363C54.7505 28.7917 54.6698 28.7427 54.6066 28.6803C54.5238 28.5979 54.3559 28.5065 54.515 28.3773C54.6349 28.2815 54.7309 28.0275 54.9729 28.2704C55.4721 28.7739 56.5927 28.9232 57.2271 28.6068C57.6762 28.3818 57.8811 28.032 57.8332 27.5685C57.7896 27.1452 57.5541 26.8845 57.0636 26.7553C56.669 26.6528 56.2678 26.5725 55.8732 26.4745C55.7337 26.4389 55.6007 26.3765 55.4656 26.3208C54.9641 26.1069 54.6349 25.7504 54.624 25.1755C54.6131 24.594 54.8966 24.1372 55.3914 23.8988C56.27 23.471 57.1508 23.5445 57.9836 24.0704C58.0446 24.1083 58.1013 24.2798 58.0861 24.2932C57.9727 24.3845 57.8942 24.6051 57.6893 24.4648C57.1857 24.1239 56.6297 24.037 56.052 24.155C55.8405 24.1974 55.6182 24.3088 55.4547 24.4536C55.0492 24.8168 55.1015 25.4563 55.5767 25.717C55.8885 25.8885 56.2504 25.971 56.597 26.0757C56.8913 26.1648 57.2009 26.2116 57.4909 26.3096C58.5155 26.6594 58.788 27.8114 58.0424 28.6135C57.6021 29.0881 57.0461 29.2663 56.3943 29.2396Z" fill="#CFD1D7"/>
    <path d="M25.6402 11.8155C25.0886 11.2786 24.5698 10.7171 23.9898 10.2269C23.4078 9.73449 22.769 9.31115 22.1498 8.85438C22.4834 8.15476 22.4943 8.10797 22.4245 7.52197C22.8148 7.71359 23.2007 7.8651 23.5451 8.08569C24.1337 8.46224 24.7311 8.83879 25.2587 9.29555C25.9563 9.89937 26.0849 10.9399 25.638 11.82L25.6402 11.8155Z" fill="#CFD1D7"/>
    <path d="M1.6412 22.103C1.67391 22.1342 1.70661 22.152 1.71969 22.181C2.09031 23.0188 2.41514 23.8811 2.84026 24.6876C3.40055 25.7438 3.85183 26.8266 4.02842 28.0187C4.05022 28.159 4.09164 28.2972 4.13088 28.4732C3.91287 28.2615 3.72538 28.081 3.54008 27.8983C3.1324 27.4906 2.70946 27.0985 2.32794 26.6684C1.87666 26.1582 1.71097 25.5076 1.59324 24.8525C1.43409 23.9657 1.4886 23.0723 1.59324 22.181C1.59542 22.1587 1.6194 22.1387 1.6412 22.1053V22.103Z" fill="#CFD1D7"/>
    <path d="M34.333 22.123C34.3657 22.3369 34.4136 22.5486 34.4289 22.7647C34.5052 23.7451 34.503 24.7277 34.1411 25.6568C33.9667 26.1025 33.7269 26.5503 33.4173 26.9068C32.9486 27.4505 32.3927 27.9161 31.8171 28.4665C32.0831 27.3435 32.2662 26.2829 32.7851 25.3159C33.2277 24.4915 33.6201 23.6426 34.0256 22.7982C34.1281 22.5865 34.1913 22.357 34.2719 22.1342C34.2916 22.1297 34.3112 22.1275 34.3308 22.123H34.333Z" fill="#CFD1D7"/>
    <path d="M28.2167 4.24896C28.1557 4.31803 28.0925 4.3871 28.0336 4.46063C27.8069 4.74805 27.5801 5.03771 27.3556 5.32736C27.1572 5.58137 26.8476 5.80418 27.2182 6.22083C27.179 6.21861 27.1398 6.21415 27.1005 6.21192C26.828 6.01139 26.5577 5.81086 26.2394 5.57914C26.3222 5.55909 26.3571 5.5368 26.3789 5.54572C26.7234 5.70614 26.8891 5.46551 27.07 5.24047C27.4014 4.82604 27.7284 4.40492 28.0816 4.00832C28.2516 3.81893 28.3257 3.65628 28.171 3.43124C28.147 3.39782 28.1426 3.3488 28.1775 3.24854C28.3061 3.34434 28.4369 3.43792 28.5634 3.53373C28.9558 3.83676 28.9602 3.83898 28.8293 4.32917C28.7029 4.7993 28.5634 5.2672 28.4347 5.73733C28.4086 5.82869 28.4064 5.92672 28.3846 6.07601C28.5089 6.03367 28.5852 6.01362 28.6549 5.98243C29.1956 5.72397 29.7363 5.46105 30.2791 5.20704C30.3358 5.18031 30.4404 5.16917 30.4753 5.20036C30.6846 5.39643 30.8786 5.60588 31.0814 5.81309C31.0443 5.83983 31.0247 5.86211 31.0182 5.85988C30.6585 5.67049 30.4513 5.90444 30.2377 6.13839C29.8605 6.55059 29.4812 6.96057 29.0975 7.36608C28.9711 7.49977 28.9122 7.63568 29.0321 7.80725C29.0648 7.85404 29.0713 7.91865 29.0888 7.97213C28.8032 7.67356 28.5198 7.37945 28.2582 7.10539C28.2494 7.10539 28.3061 7.12322 28.3563 7.11208C28.498 7.08089 28.6746 7.08311 28.7683 6.99399C29.1367 6.63972 29.4812 6.25871 29.8278 5.88216C29.8584 5.84874 29.8584 5.78858 29.8867 5.69277C29.1193 6.0359 28.3977 6.35898 27.591 6.7177C27.8352 5.84874 28.0554 5.06444 28.2734 4.28015C28.2538 4.26901 28.2364 4.25564 28.2167 4.2445V4.24896Z" fill="#CFD1D7"/>
    <path d="M86.2035 24.2575C86.016 24.2575 85.846 24.2508 85.6759 24.2575C84.5597 24.3132 83.9144 24.9638 83.8861 26.0979C83.8621 27.0114 83.8643 27.9249 83.8839 28.8385C83.8904 29.1459 83.7313 29.1192 83.5307 29.1326C83.3083 29.1459 83.2604 29.0657 83.2604 28.8496C83.2669 27.2253 83.2604 25.601 83.2604 23.979C83.2604 23.9166 83.2735 23.852 83.28 23.7896C83.3127 23.7762 83.3367 23.7606 83.3607 23.7606C83.8664 23.7495 83.8643 23.7495 83.8512 24.2731C83.8468 24.4469 83.8512 24.6207 83.8512 24.8791C83.9449 24.7521 84.0038 24.683 84.0518 24.6051C84.4267 24.0035 85.0001 23.7339 85.6672 23.6603C86.2101 23.6002 86.2646 23.6737 86.2079 24.2619L86.2035 24.2575Z" fill="#CFD1D7"/>
    <path d="M11.3322 4.56745C11.7878 4.25106 11.4739 3.93467 11.354 3.62942C11.1665 3.15037 10.942 2.68693 10.7566 2.20565C10.6738 1.99176 10.5735 1.87812 10.3402 1.92046C10.301 1.92714 10.2574 1.90932 10.2051 1.90263C10.216 1.8603 10.2138 1.82019 10.2269 1.81351C10.7523 1.5907 11.269 1.34115 11.8096 1.16735C11.9906 1.10942 12.2609 1.18964 12.4397 1.29658C12.7623 1.49043 12.7885 1.92046 12.5291 2.20565C12.4419 2.30369 12.3241 2.37499 12.2217 2.45743C12.2413 2.48194 12.2631 2.50645 12.2827 2.53319C12.3961 2.52427 12.5094 2.50868 12.6228 2.50422C12.9302 2.49085 13.146 2.64236 13.2747 2.91419C13.412 3.20385 13.3531 3.47345 13.1439 3.70517C13.0545 3.80544 12.9476 3.9057 12.8299 3.96586C12.3743 4.18867 11.9121 4.39589 11.4499 4.60756C11.4325 4.61647 11.402 4.59419 11.33 4.56968L11.3322 4.56745ZM11.6461 2.90528C11.7726 3.21944 11.8903 3.50464 12.0037 3.7943C12.0909 4.01934 12.2478 4.03939 12.4419 3.95695C12.7318 3.83217 12.8757 3.54252 12.8016 3.2395C12.7122 2.88523 12.468 2.70475 12.1214 2.76045C11.9666 2.78719 11.8162 2.85181 11.6483 2.90305L11.6461 2.90528ZM11.5698 1.43027C11.5022 1.45701 11.3562 1.50157 11.2232 1.5751C11.1774 1.59961 11.1316 1.70433 11.1469 1.74666C11.2602 2.0274 11.3845 2.30146 11.5175 2.57329C11.5415 2.62231 11.6265 2.67133 11.6832 2.6691C11.9404 2.6691 12.2086 2.36162 12.2021 2.08979C12.1933 1.69542 11.9753 1.43027 11.5698 1.43027Z" fill="#CFD1D7"/>
    <path d="M1.45674 13.462C1.66167 13.5445 1.86224 13.6381 2.07153 13.7094C2.43125 13.8319 2.79097 13.97 3.16158 14.0391C3.32073 14.0681 3.5104 13.9411 3.68045 13.8854C3.60197 14.1728 3.51258 14.4959 3.41012 14.868C3.35779 14.7855 3.31419 14.7499 3.31419 14.7165C3.32073 14.3756 3.0722 14.3154 2.82803 14.2374C2.2939 14.0636 1.75542 13.901 1.23001 13.7027C0.996741 13.6135 0.835413 13.6291 0.700247 13.843C0.678446 13.8787 0.637024 13.901 0.597782 13.9344C0.523658 13.5445 0.817972 13.0231 1.15589 12.9072C1.84044 12.6733 2.52063 12.4326 3.21391 12.1318C2.86509 12.0004 2.51627 11.8689 2.16746 11.7397C2.09987 11.7152 2.02357 11.7085 1.96035 11.6773C1.74452 11.5637 1.55267 11.5548 1.39134 11.7731C1.36736 11.8043 1.31504 11.8155 1.20167 11.8734C1.3412 11.4812 1.45674 11.1582 1.58755 10.7905C1.65949 10.873 1.68129 10.8886 1.68129 10.8975C1.62679 11.2027 1.77504 11.3208 2.04973 11.4122C2.70376 11.6283 3.34471 11.8823 3.98784 12.1274C4.10121 12.1697 4.20585 12.2433 4.31268 12.3012C4.31268 12.3302 4.31268 12.3591 4.31268 12.3903C3.36433 12.7156 2.41599 13.0387 1.46546 13.364C1.4611 13.3952 1.45674 13.4286 1.45238 13.4598L1.45674 13.462Z" fill="#CFD1D7"/>
    <path d="M10.4649 4.46747C10.4671 5.17378 9.7215 5.90238 8.99552 5.90015C8.20851 5.90015 7.49561 5.07352 7.45201 4.19564C7.41713 3.46037 8.18453 2.6783 9.04785 2.67384C9.76728 2.66939 10.4606 3.56509 10.4649 4.46747ZM10.0289 4.74599C10.0311 4.09315 9.54927 3.32222 8.99552 3.08159C8.66851 2.93899 8.3851 3.05485 8.13874 3.25093C7.92509 3.42026 7.79865 3.68318 7.85969 3.95946C8.00358 4.61007 8.36548 5.12254 8.95192 5.42779C9.52093 5.72413 10.0267 5.38991 10.0289 4.74599Z" fill="#CFD1D7"/>
    <path d="M23.9292 3.50044C23.9445 2.59137 24.6813 1.77366 25.4836 1.77588C26.2401 1.78034 27.062 2.53567 27.014 3.22193C26.9595 3.98394 26.3426 4.93312 25.3506 4.92198C24.5723 4.91306 23.9183 4.24686 23.9314 3.50044H23.9292ZM26.4995 2.98352C26.5061 2.52898 26.3317 2.27275 25.972 2.10787C25.6297 1.9519 25.3245 2.03657 25.0716 2.28612C24.6617 2.68941 24.4786 3.21302 24.4459 3.77673C24.4263 4.11317 24.5614 4.40283 24.8928 4.56771C25.2111 4.7259 25.4793 4.6145 25.7234 4.41842C26.2052 4.03296 26.4603 3.52049 26.4995 2.98352Z" fill="#CFD1D7"/>
    <path d="M4.67236 7.33953C4.50886 7.3128 4.34753 7.26823 4.18402 7.26823C4.06412 7.26823 3.90715 7.28606 3.82866 7.36404C3.2771 7.90993 3.30762 8.69422 3.88753 9.21115C4.5263 9.78154 5.27843 9.78823 5.74716 9.22897C5.94991 8.98833 5.9281 8.91481 5.69701 8.71205C5.45066 8.49592 5.20649 8.43799 4.91872 8.68308C4.91218 8.65635 4.90564 8.62961 4.8991 8.60287C5.14545 8.25974 5.3918 7.91661 5.64469 7.5668C5.66213 7.59131 5.69265 7.61582 5.68829 7.63142C5.57711 8.00797 5.7973 8.20181 6.07853 8.34664C6.30308 8.4625 6.32706 8.60956 6.20934 8.81677C6.14176 8.93709 6.08943 9.06409 6.02839 9.18664C5.47028 10.3051 4.29739 10.4678 3.45587 9.54759C2.97188 9.0173 2.88686 8.38897 3.27056 7.77624C3.46895 7.46208 3.73274 7.18802 3.98345 6.91174C4.02923 6.86049 4.1753 6.83821 4.23416 6.87386C4.40203 6.97412 4.55028 7.11004 4.70725 7.23036C4.69417 7.26601 4.68327 7.30388 4.67018 7.33953H4.67236Z" fill="#CFD1D7"/>
    <path d="M31.7292 6.48367C32.0737 7.00505 32.4421 7.51529 32.7561 8.05449C32.9327 8.35751 32.8389 8.71847 32.6231 8.919C32.344 9.17746 31.9778 9.26881 31.6769 9.07719C31.3848 8.89003 31.1363 8.63157 30.8354 8.37534C30.6457 8.51571 30.4146 8.67391 30.201 8.85438C30.1487 8.89895 30.1465 9.01703 30.1443 9.1017C30.1421 9.18637 30.1683 9.27327 30.1291 9.38244C29.8762 9.04823 29.6211 8.71624 29.3181 8.31741C29.4489 8.35974 29.5077 8.36643 29.5535 8.39539C29.6887 8.48229 29.7911 8.46223 29.9176 8.35751C30.3689 7.98542 30.8223 7.61555 31.2954 7.27465C31.5636 7.08081 31.7554 6.88919 31.6224 6.51487C31.6595 6.50373 31.6944 6.49259 31.7314 6.48145L31.7292 6.48367ZM32.1239 7.36601C31.7532 7.66234 31.4066 7.9364 31.0556 8.21714C31.2191 8.5068 31.411 8.70733 31.7292 8.68282C32.0541 8.65831 32.2895 8.47115 32.4051 8.16367C32.5272 7.83836 32.331 7.60664 32.1239 7.36378V7.36601Z" fill="#CFD1D7"/>
    <path d="M28.3575 22.4036C28.4076 21.978 28.4905 21.5524 28.5014 21.1246C28.521 20.3983 28.4948 19.6719 28.4926 18.9455C28.4926 18.7717 28.4774 18.5801 28.5406 18.4286C28.7957 17.8248 29.0791 17.2321 29.369 16.6016C29.5696 18.6559 29.3036 20.5899 28.3553 22.4036H28.3575Z" fill="#CFD1D7"/>
    <path d="M34.7513 14.8192C34.8712 14.7233 34.9824 14.6119 35.111 14.534C35.2898 14.427 35.3072 14.2866 35.244 14.1128C35.0718 13.6383 34.8429 13.1971 34.2935 13.1236C33.707 13.0434 33.1947 13.2506 32.8241 13.7229C32.5734 14.0438 32.5778 14.4315 32.7129 14.7991C32.7478 14.8949 32.907 14.9618 33.0225 14.9996C33.1751 15.0509 33.3386 15.0642 33.537 15.0999C33.2122 15.4363 32.8001 15.3962 32.6344 15.0687C32.4208 14.6454 32.2638 14.2087 32.3554 13.7207C32.4688 13.1169 33.0072 12.6557 33.7354 12.5287C34.3 12.4306 34.8778 12.7314 35.1764 13.2595C35.4206 13.6895 35.4773 14.1596 35.4882 14.6431C35.4882 14.7011 35.4424 14.8058 35.401 14.8147C35.1939 14.857 34.9824 14.8749 34.7709 14.9038C34.7622 14.8771 34.7557 14.8481 34.747 14.8214L34.7513 14.8192Z" fill="#CFD1D7"/>
    <path d="M35.6098 17.1433C35.2283 17.17 34.8424 17.1945 34.4565 17.2213C34.1317 17.2435 33.8069 17.2814 33.4798 17.2903C33.2379 17.297 33.0831 17.3728 33.0613 17.6424C33.0569 17.707 33.0046 17.7671 32.9174 17.8229C32.8803 17.3371 32.8454 16.8536 32.804 16.2944C32.8869 16.3835 32.9523 16.4214 32.9566 16.4659C32.9915 16.74 33.155 16.76 33.3839 16.7378C34.0423 16.6754 34.7029 16.633 35.3613 16.5885C35.5858 16.5729 35.6491 16.4882 35.5989 16.252C35.5444 15.9869 35.4463 15.8242 35.1629 15.793C35.0888 15.7841 35.0255 15.6772 34.9558 15.6148C35.0364 15.5791 35.1149 15.5145 35.1978 15.5123C35.7014 15.4923 35.7232 15.4945 35.7733 15.998C35.8387 16.6464 35.8627 17.3015 35.9085 17.9521C35.9237 18.1526 35.854 18.2417 35.6447 18.2217C35.5204 18.2105 35.3918 18.2417 35.2675 18.2395C35.213 18.2395 35.1585 18.2039 35.1062 18.1838C35.1345 18.1326 35.1607 18.0791 35.1934 18.0301C35.2021 18.0167 35.2239 18.0122 35.2414 18.0033C35.6948 17.7738 35.7384 17.678 35.6142 17.1455L35.6098 17.1433Z" fill="#CFD1D7"/>
    <path d="M23.2015 3.09914C23.1448 3.30413 23.1034 3.51802 23.0205 3.70964C22.9944 3.7698 22.8461 3.81882 22.7633 3.80545C22.4428 3.74975 22.1136 3.70741 21.8149 3.5871C21.1696 3.33086 20.8252 2.67134 20.9429 2.01182C21.0977 1.1384 21.5577 0.672728 22.312 0.608113C22.8265 0.565779 23.2691 0.770765 23.7007 1.01363C23.8446 1.09384 23.7661 1.68875 23.607 1.74445C23.5677 1.75782 23.4936 1.71994 23.4565 1.68429C23.4304 1.65978 23.4391 1.59739 23.4369 1.55283C23.4086 1.0114 23.3301 0.946786 22.7872 0.935645C22.3142 0.926733 21.9283 1.0671 21.7081 1.52164C21.4639 2.02519 21.3724 2.53543 21.671 3.05012C21.8498 3.3576 22.1485 3.51357 22.4755 3.5559C22.5998 3.5715 22.7567 3.43558 22.8745 3.33978C22.9638 3.26625 23.0183 3.14593 23.0881 3.04567C23.1273 3.06349 23.1644 3.08132 23.2036 3.09691L23.2015 3.09914Z" fill="#CFD1D7"/>
    <path d="M31.1184 10.9647C30.9287 10.6439 30.7717 10.381 30.6169 10.1203C30.6453 10.098 30.6649 10.0757 30.6693 10.0802C31.0115 10.3253 31.3822 10.254 31.7659 10.2183C32.4417 10.1515 33.1219 10.1247 33.7999 10.0958C33.9045 10.0913 34.0135 10.1671 34.1204 10.2049C34.0724 10.2963 34.0419 10.4032 33.9743 10.479C33.4772 11.0293 32.9715 11.5708 32.4766 12.1211C32.276 12.3439 31.9839 12.5244 32.0951 12.9277L32.0013 12.921C31.8422 12.5556 31.6808 12.1902 31.5217 11.827C31.574 11.8003 31.5914 11.7847 31.6045 11.7891C31.7353 11.827 31.925 11.9406 31.9839 11.8916C32.1801 11.7245 32.446 11.5128 32.4657 11.2967C32.4875 11.0516 32.2934 10.7731 32.1496 10.5347C32.1081 10.4634 31.925 10.4768 31.8051 10.4589C31.7528 10.45 31.6961 10.4589 31.6416 10.4612C31.2187 10.4768 31.2165 10.479 31.1184 10.9647ZM32.6226 11.0048C32.8712 10.7976 33.1241 10.5882 33.4336 10.3297C33.0238 10.3654 32.6837 10.3943 32.3065 10.4277C32.4461 10.6818 32.5594 10.889 32.6226 11.0048Z" fill="#CFD1D7"/>
    <path d="M14.6525 3.4913C14.3713 3.54032 14.0922 3.58711 13.726 3.65172C14.2448 3.17936 14.1925 2.58 14.3342 2.05417C14.4715 1.53947 14.5784 1.01587 14.7005 0.496719C14.7201 0.412051 14.755 0.329611 14.8029 0.187012C14.9141 0.327383 15.0035 0.414279 15.0667 0.519C15.4243 1.10499 15.7796 1.69544 16.1306 2.28589C16.3137 2.59783 16.4402 2.96101 16.8936 3.01003C16.8806 3.03231 16.8653 3.05459 16.8522 3.07687C16.4424 3.14594 16.0325 3.21279 15.6205 3.28186C15.6968 3.11698 15.8516 2.9365 15.8167 2.81841C15.7425 2.57109 15.6074 2.2235 15.4199 2.16335C15.1648 2.08091 14.8051 2.16335 14.5522 2.29926C14.4279 2.3661 14.4497 2.70478 14.3887 2.91422C14.3102 3.18382 14.5108 3.29745 14.6896 3.42446C14.6787 3.44674 14.6656 3.46902 14.6547 3.4913H14.6525ZM15.3567 1.9138C15.1583 1.55284 14.9904 1.24982 14.8247 0.944569C14.7986 0.951254 14.7724 0.95571 14.7462 0.962394C14.6917 1.31666 14.6351 1.67093 14.5718 2.06976C14.8661 2.01183 15.0885 1.96727 15.3567 1.91603V1.9138Z" fill="#CFD1D7"/>
    <path d="M7.34751 7.24797C7.99282 7.01402 7.89908 6.5372 7.76173 6.04256C7.79007 6.04256 7.81841 6.04256 7.84675 6.04256C7.98846 6.21635 8.13889 6.38346 8.26751 6.56394C8.29149 6.59959 8.26751 6.70877 8.22609 6.74887C7.79225 7.19227 7.34969 7.62897 6.90931 8.06568C6.89841 8.07682 6.87661 8.07237 6.86135 8.07682C6.84827 8.06346 6.82428 8.04563 6.82646 8.04117C6.98997 7.73815 6.84172 7.54653 6.62371 7.34155C6.264 7.00288 5.9348 6.63301 5.58816 6.28097C5.36143 6.05147 5.15868 5.74622 4.74228 6.02474C4.73792 5.99354 4.73574 5.96012 4.73138 5.92893C5.03006 5.64818 5.32873 5.36521 5.62741 5.08447C5.46826 5.5145 5.78219 5.70389 6.00239 5.92893C6.38172 6.31439 6.76542 6.69317 7.14912 7.07418C7.21888 7.14325 7.29737 7.20563 7.34533 7.2502L7.34751 7.24797Z" fill="#CFD1D7"/>
    <path d="M26.6736 25.541C25.6577 26.7977 24.4455 27.8159 23.0154 28.598C23.1222 28.4175 23.2574 28.2482 23.3315 28.0543C23.5953 27.3703 24.1185 27.0116 24.7486 26.7041C25.4113 26.381 26.0217 25.9421 26.6714 25.541H26.6736Z" fill="#CFD1D7"/>
    <path d="M100.067 10.1248C100.067 9.69252 100.071 9.29592 100.067 8.89932C100.067 8.76117 100.108 8.69656 100.252 8.69879C100.614 8.70547 100.976 8.69879 101.372 8.69879C101.372 9.14441 101.377 9.56329 101.366 9.98441C101.366 10.0312 101.268 10.1136 101.211 10.1159C100.84 10.127 100.47 10.1225 100.067 10.1225V10.1248Z" fill="#CFD1D7"/>
    <path d="M53.1006 21.2585C52.8935 21.5303 52.7016 21.7821 52.512 22.0338C52.3528 22.2455 52.198 22.4616 52.0411 22.6733C51.8972 22.8694 51.714 22.905 51.4503 22.8137C51.6988 22.4104 51.9648 22.0383 52.1653 21.635C52.3637 21.2384 52.6406 21.1203 53.0984 21.2562L53.1006 21.2585Z" fill="#CFD1D7"/>
  </g>
  <defs>
    <clipPath id="clip0_285_90">
      <rect width="111" height="37" fill="white"/>
    </clipPath>
  </defs>
</svg>