<svg width="24" height="21" viewBox="0 0 24 21" fill="none" xmlns="http://www.w3.org/2000/svg">
<g id="Group 601">
<path id="Vector" d="M11.5998 12.147C11.5246 12.147 11.4501 12.1296 11.3808 12.0957L0.655315 6.83965C0.553228 6.78909 0.466171 6.70471 0.404977 6.597C0.343784 6.48929 0.311156 6.36302 0.311156 6.23389C0.311156 6.10476 0.343784 5.97849 0.404977 5.87078C0.466171 5.76307 0.553229 5.67868 0.655315 5.62813L11.3808 0.372051C11.4501 0.338224 11.5246 0.320803 11.5998 0.320803C11.675 0.320803 11.7494 0.338224 11.8188 0.372051L22.5443 5.62813C22.6463 5.67869 22.7334 5.76307 22.7946 5.87078C22.8558 5.97849 22.8884 6.10477 22.8884 6.23389C22.8884 6.36302 22.8558 6.4893 22.7946 6.597C22.7334 6.70471 22.6463 6.7891 22.5443 6.83966L11.8188 12.0957C11.7494 12.1296 11.675 12.147 11.5998 12.147ZM2.32848 6.23389L11.5998 10.7765L20.8711 6.23389L11.5998 1.69133L2.32848 6.23389Z" fill="black" stroke="black" stroke-width="0.5"/>
<path id="Vector_2" d="M11.5998 16.4474C11.5246 16.4474 11.4501 16.4303 11.3808 16.3971L0.656761 11.2367C0.518743 11.1704 0.40945 11.044 0.352927 10.8856C0.324939 10.8071 0.310749 10.7231 0.311166 10.6384C0.311583 10.5536 0.3266 10.4698 0.355359 10.3917C0.384118 10.3136 0.426056 10.2428 0.478778 10.1832C0.531501 10.1236 0.593975 10.0765 0.662634 10.0445C0.801297 9.9799 0.956735 9.9809 1.09475 10.0473L11.5998 15.1018L22.1048 10.0473C22.1732 10.0144 22.2465 9.99726 22.3206 9.99678C22.3948 9.9963 22.4683 10.0125 22.5369 10.0445C22.6056 10.0765 22.6681 10.1236 22.7208 10.1832C22.7735 10.2428 22.8154 10.3136 22.8442 10.3917C22.873 10.4698 22.888 10.5537 22.8884 10.6384C22.8888 10.7231 22.8746 10.8071 22.8466 10.8856C22.8187 10.964 22.7774 11.0354 22.7253 11.0957C22.6732 11.156 22.6111 11.2039 22.5428 11.2367L11.8188 16.3971C11.7494 16.4303 11.675 16.4474 11.5998 16.4474Z" fill="black" stroke="black" stroke-width="0.5"/>
<path id="Vector_3" d="M11.5998 20.7478C11.5246 20.7478 11.4501 20.7307 11.3808 20.6975L0.656761 15.5372C0.518743 15.4708 0.40945 15.3445 0.352927 15.186C0.296403 15.0275 0.297278 14.8499 0.355359 14.6922C0.413441 14.5344 0.523971 14.4095 0.662634 14.3449C0.801297 14.2803 0.956735 14.2813 1.09475 14.3477L11.5998 19.4023L22.1048 14.3477C22.1732 14.3148 22.2465 14.2977 22.3206 14.2972C22.3948 14.2967 22.4683 14.3129 22.5369 14.3449C22.6056 14.3769 22.6681 14.424 22.7208 14.4836C22.7735 14.5432 22.8154 14.6141 22.8442 14.6922C22.873 14.7703 22.888 14.8541 22.8884 14.9388C22.8888 15.0235 22.8746 15.1075 22.8466 15.186C22.8187 15.2645 22.7774 15.3359 22.7253 15.3961C22.6732 15.4564 22.6111 15.5043 22.5428 15.5372L11.8188 20.6975C11.7494 20.7307 11.675 20.7478 11.5998 20.7478Z" fill="black" stroke="black" stroke-width="0.5"/>
</g>
</svg>
