<svg width="24" height="30" viewBox="0 0 24 30" fill="none" xmlns="http://www.w3.org/2000/svg">
<g id="Group 615">
<path id="Vector" d="M12.2886 12.8262C12.2134 12.8262 12.139 12.8088 12.0696 12.7749L1.34416 7.51885C1.24207 7.46829 1.15501 7.38391 1.09382 7.2762C1.03263 7.16849 0.999999 7.04221 0.999999 6.91309C0.999999 6.78396 1.03263 6.65768 1.09382 6.54998C1.15501 6.44227 1.24207 6.35788 1.34416 6.30732L12.0696 1.05125C12.139 1.01742 12.2134 1 12.2886 1C12.3638 1 12.4383 1.01742 12.5077 1.05125L23.2331 6.30733C23.3352 6.35789 23.4222 6.44227 23.4834 6.54998C23.5446 6.65769 23.5773 6.78397 23.5773 6.91309C23.5773 7.04222 23.5446 7.16849 23.4834 7.2762C23.4222 7.38391 23.3352 7.4683 23.2331 7.51886L12.5077 12.7749C12.4383 12.8088 12.3638 12.8262 12.2886 12.8262ZM3.01733 6.91309L12.2886 11.4557L21.5599 6.91309L12.2886 2.37053L3.01733 6.91309Z" fill="black" stroke="black" stroke-width="0.5"/>
<path id="Vector_2" d="M12.2886 17.1266C12.2134 17.1266 12.139 17.1095 12.0696 17.0763L1.3456 11.9159C1.20759 11.8496 1.09829 11.7232 1.04177 11.5648C1.01378 11.4863 0.999591 11.4023 1.00001 11.3176C1.00043 11.2328 1.01544 11.149 1.0442 11.0709C1.07296 10.9928 1.1149 10.922 1.16762 10.8624C1.22034 10.8028 1.28282 10.7557 1.35148 10.7237C1.49014 10.6591 1.64558 10.6601 1.7836 10.7265L12.2886 15.781L22.7937 10.7265C22.862 10.6936 22.9353 10.6765 23.0095 10.676C23.0836 10.6755 23.1571 10.6917 23.2258 10.7237C23.2944 10.7557 23.3569 10.8028 23.4096 10.8624C23.4624 10.922 23.5043 10.9928 23.5331 11.0709C23.5618 11.149 23.5768 11.2328 23.5772 11.3176C23.5777 11.4023 23.5635 11.4863 23.5355 11.5648C23.5075 11.6432 23.4663 11.7146 23.4141 11.7749C23.362 11.8352 23.3 11.8831 23.2316 11.9159L12.5076 17.0763C12.4383 17.1095 12.3638 17.1266 12.2886 17.1266Z" fill="black" stroke="black" stroke-width="0.5"/>
<path id="Vector_3" d="M12.2886 21.427C12.2134 21.427 12.139 21.4099 12.0696 21.3767L1.3456 16.2164C1.20759 16.15 1.09829 16.0237 1.04177 15.8652C0.985246 15.7067 0.986121 15.5291 1.0442 15.3713C1.10228 15.2136 1.21281 15.0887 1.35148 15.0241C1.49014 14.9595 1.64558 14.9605 1.7836 15.0269L12.2886 20.0815L22.7937 15.0269C22.862 14.994 22.9353 14.9769 23.0095 14.9764C23.0836 14.9759 23.1571 14.9921 23.2258 15.0241C23.2944 15.0561 23.3569 15.1032 23.4096 15.1628C23.4624 15.2224 23.5043 15.2933 23.5331 15.3714C23.5618 15.4495 23.5768 15.5333 23.5772 15.618C23.5777 15.7027 23.5635 15.7867 23.5355 15.8652C23.5075 15.9437 23.4663 16.0151 23.4141 16.0753C23.362 16.1356 23.3 16.1835 23.2316 16.2164L12.5076 21.3767C12.4383 21.4099 12.3638 21.427 12.2886 21.427Z" fill="black" stroke="black" stroke-width="0.5"/>
<path id="Vector_4" d="M12.2886 25.4506C12.2134 25.4506 12.139 25.4335 12.0696 25.4003L1.3456 20.24C1.20759 20.1736 1.09829 20.0473 1.04177 19.8888C0.985246 19.7303 0.986121 19.5527 1.0442 19.395C1.10228 19.2372 1.21281 19.1123 1.35148 19.0477C1.49014 18.9831 1.64558 18.9841 1.7836 19.0505L12.2886 24.1051L22.7937 19.0505C22.862 19.0177 22.9353 19.0005 23.0095 19C23.0836 18.9995 23.1571 19.0158 23.2258 19.0477C23.2944 19.0797 23.3569 19.1269 23.4096 19.1864C23.4624 19.246 23.5043 19.3169 23.5331 19.395C23.5618 19.4731 23.5768 19.5569 23.5772 19.6416C23.5777 19.7264 23.5635 19.8104 23.5355 19.8888C23.5075 19.9673 23.4663 20.0387 23.4141 20.0989C23.362 20.1592 23.3 20.2071 23.2316 20.24L12.5076 25.4003C12.4383 25.4335 12.3638 25.4506 12.2886 25.4506Z" fill="black" stroke="black" stroke-width="0.5"/>
<path id="Vector_5" d="M12.2886 29.4506C12.2134 29.4506 12.139 29.4335 12.0696 29.4003L1.3456 24.24C1.20759 24.1736 1.09829 24.0473 1.04177 23.8888C0.985246 23.7303 0.986121 23.5527 1.0442 23.395C1.10228 23.2372 1.21281 23.1123 1.35148 23.0477C1.49014 22.9831 1.64558 22.9841 1.7836 23.0505L12.2886 28.1051L22.7937 23.0505C22.862 23.0177 22.9353 23.0005 23.0095 23C23.0836 22.9995 23.1571 23.0158 23.2258 23.0477C23.2944 23.0797 23.3569 23.1269 23.4096 23.1864C23.4624 23.246 23.5043 23.3169 23.5331 23.395C23.5618 23.4731 23.5768 23.5569 23.5772 23.6416C23.5777 23.7264 23.5635 23.8104 23.5355 23.8888C23.5075 23.9673 23.4663 24.0387 23.4141 24.0989C23.362 24.1592 23.3 24.2071 23.2316 24.24L12.5076 29.4003C12.4383 29.4335 12.3638 29.4506 12.2886 29.4506Z" fill="black" stroke="black" stroke-width="0.5"/>
</g>
</svg>
