<svg width="24" height="18" viewBox="0 0 24 18" fill="none" xmlns="http://www.w3.org/2000/svg">
<g id="Group 602">
<path id="Vector" d="M12.2886 12.8262C12.2134 12.8262 12.139 12.8088 12.0696 12.7749L1.34416 7.51885C1.24207 7.46829 1.15501 7.38391 1.09382 7.2762C1.03263 7.16849 0.999999 7.04221 0.999999 6.91309C0.999999 6.78396 1.03263 6.65768 1.09382 6.54998C1.15501 6.44227 1.24207 6.35788 1.34416 6.30732L12.0696 1.05125C12.139 1.01742 12.2134 1 12.2886 1C12.3638 1 12.4383 1.01742 12.5077 1.05125L23.2331 6.30733C23.3352 6.35789 23.4222 6.44227 23.4834 6.54998C23.5446 6.65769 23.5773 6.78397 23.5773 6.91309C23.5773 7.04222 23.5446 7.16849 23.4834 7.2762C23.4222 7.38391 23.3352 7.4683 23.2331 7.51886L12.5077 12.7749C12.4383 12.8088 12.3638 12.8262 12.2886 12.8262ZM3.01733 6.91309L12.2886 11.4557L21.5599 6.91309L12.2886 2.37053L3.01733 6.91309Z" fill="black" stroke="black" stroke-width="0.5"/>
<path id="Vector_2" d="M12.2886 17.1266C12.2134 17.1266 12.139 17.1095 12.0696 17.0763L1.3456 11.9159C1.20759 11.8496 1.09829 11.7232 1.04177 11.5648C1.01378 11.4863 0.999591 11.4023 1.00001 11.3176C1.00043 11.2328 1.01544 11.149 1.0442 11.0709C1.07296 10.9928 1.1149 10.922 1.16762 10.8624C1.22034 10.8028 1.28282 10.7557 1.35148 10.7237C1.49014 10.6591 1.64558 10.6601 1.7836 10.7265L12.2886 15.781L22.7937 10.7265C22.862 10.6936 22.9353 10.6765 23.0095 10.676C23.0836 10.6755 23.1571 10.6917 23.2258 10.7237C23.2944 10.7557 23.3569 10.8028 23.4096 10.8624C23.4624 10.922 23.5043 10.9928 23.5331 11.0709C23.5618 11.149 23.5768 11.2328 23.5772 11.3176C23.5777 11.4023 23.5635 11.4863 23.5355 11.5648C23.5075 11.6432 23.4663 11.7146 23.4141 11.7749C23.362 11.8352 23.3 11.8831 23.2316 11.9159L12.5076 17.0763C12.4383 17.1095 12.3638 17.1266 12.2886 17.1266Z" fill="black" stroke="black" stroke-width="0.5"/>
</g>
</svg>
