<svg xmlns="http://www.w3.org/2000/svg" width="93" height="17" viewBox="0 0 93 17" fill="none">
  <g clip-path="url(#clip0_285_41)">
    <path d="M51.5708 16.2033H51.5931L47.789 16.2153V7.04016C47.789 6.61817 47.7107 6.2203 47.5652 5.84654C47.4198 5.47278 47.2072 5.14725 46.9498 4.86994C46.6925 4.59264 46.3904 4.36356 46.0436 4.20682C45.6967 4.03803 45.3387 3.96569 44.9471 3.96569C44.5555 3.96569 44.1751 4.03803 43.817 4.20682C43.4702 4.36356 43.1681 4.59264 42.8996 4.86994C42.6422 5.14725 42.4408 5.47278 42.2842 5.84654C42.1387 6.2203 42.0716 6.61817 42.0716 7.04016V16.2153H38.2675V0.15576C38.8493 0.15576 39.2073 0.15576 39.7108 0.625973C40.2143 1.09619 40.4269 1.72314 40.4269 1.72314C41.0422 1.1203 41.7359 0.650087 42.508 0.324555C43.28 0.0110795 44.0856 -0.157715 44.9359 -0.157715C45.8422 -0.157715 46.7037 0.035193 47.5093 0.408952C48.3149 0.782711 49.0197 1.28909 49.6239 1.95221C50.2281 2.60328 50.698 3.37491 51.0561 4.24299C51.4029 5.11108 51.5708 6.03945 51.5708 7.0281V16.2033Z" fill="#CFD1D7"/>
    <path d="M69.327 8.52441C69.327 7.2464 69.1256 6.08895 68.7228 5.04002C68.3312 3.99108 67.783 3.09888 67.1005 2.35136C66.418 1.60385 65.6124 1.03718 64.6949 0.627251C63.7663 0.229379 62.7593 0.0244141 61.7188 0.0244141C60.6782 0.0244141 59.6824 0.241435 58.7649 0.663421C57.8475 1.09746 57.0307 1.68824 56.3482 2.44782C55.6545 3.20739 55.1063 4.09959 54.7147 5.13647C54.3007 6.17335 54.1105 7.3308 54.1105 8.52441C54.1105 9.71803 54.3119 10.8393 54.7147 11.8762C54.9608 12.5152 55.2629 13.106 55.6209 13.6244C55.7776 13.8655 56.751 15.3726 58.351 16.1322C58.4964 16.2046 58.6307 16.2769 58.7761 16.3492C59.6936 16.7833 60.667 17.0003 61.7299 17.0003C62.7929 17.0003 63.7775 16.7833 64.6949 16.3492C65.6124 15.9031 66.418 15.3124 67.1117 14.5528C67.7942 13.7932 68.3424 12.9131 68.734 11.8762C69.1368 10.8393 69.3382 9.71803 69.3382 8.52441H69.327ZM65.2096 10.2968C65.0194 10.8393 64.7397 11.2975 64.3928 11.6833C64.0572 12.057 63.6544 12.3464 63.1957 12.5634C62.7369 12.7804 62.2446 12.8769 61.7299 12.8769C61.2153 12.8769 60.7118 12.7563 60.253 12.5393C59.7943 12.3223 59.4027 12.0088 59.067 11.623C58.7202 11.2251 58.4629 10.767 58.2615 10.2365C58.0713 9.71803 57.9706 9.13931 57.9706 8.52441C57.9706 7.86129 58.0713 7.27051 58.2615 6.72796C58.4629 6.19746 58.7202 5.73931 59.067 5.35349C59.4027 4.96768 59.7943 4.66626 60.253 4.46129C60.7118 4.26839 61.2041 4.15987 61.7299 4.15987C62.2558 4.15987 62.7369 4.26839 63.1957 4.46129C63.6544 4.66626 64.0572 4.96768 64.3928 5.35349C64.7397 5.73931 65.0194 6.19746 65.2096 6.72796C65.411 7.25846 65.5117 7.87335 65.5117 8.52441C65.5117 9.17548 65.411 9.76626 65.2096 10.2968Z" fill="#CFD1D7"/>
    <path d="M88.4823 15.2156C87.9677 15.7702 87.3523 16.2042 86.6698 16.5177C85.9761 16.8432 85.2376 16.9879 84.4432 16.9879C83.7495 16.9879 83.067 16.8553 82.4181 16.59C81.7691 16.3248 81.1761 15.939 80.6503 15.4326C80.1244 15.939 79.5538 16.3248 78.9049 16.59C78.2559 16.8553 77.5846 16.9879 76.8573 16.9879C76.0741 16.9879 75.3357 16.8312 74.6532 16.5177C73.9595 16.1922 73.3665 15.7581 72.8518 15.2156C72.3371 14.661 71.9343 14.022 71.6322 13.2744C71.3301 12.5269 71.1847 11.7432 71.1847 10.8993V0.663086H74.9888V10.8993C74.9888 11.1766 75.0336 11.4418 75.1343 11.6829C75.2238 11.9241 75.3581 12.1411 75.5371 12.322C75.7049 12.5149 75.9063 12.6595 76.1301 12.756C76.365 12.8645 76.6112 12.9127 76.8573 12.9127C77.1035 12.9127 77.372 12.8645 77.5958 12.756C77.8308 12.6595 78.0321 12.5149 78.2 12.322C78.379 12.1411 78.5244 11.9241 78.614 11.6829C78.7146 11.4298 78.7594 11.1766 78.7594 10.8993V0.663086H82.5412V10.8993C82.5412 11.1766 82.5859 11.4418 82.6978 11.6829C82.7985 11.9241 82.9328 12.1411 83.1006 12.322C83.2796 12.5149 83.481 12.6595 83.7048 12.756C83.9397 12.8645 84.1747 12.9127 84.432 12.9127C84.6894 12.9127 84.9355 12.8645 85.1705 12.756C85.3943 12.6595 85.6069 12.5149 85.7747 12.322C85.9537 12.1411 86.088 11.9241 86.1887 11.6829C86.2894 11.4298 86.3341 11.1766 86.3341 10.8993V0.663086H88.5718C89.4222 0.663086 90.1271 1.42266 90.1271 2.33897V10.8993H90.1383C90.1383 11.7432 89.9928 12.5269 89.6907 13.2744C89.3998 14.022 88.997 14.661 88.4823 15.2156Z" fill="#CFD1D7"/>
    <path d="M18.9541 10.8993C18.9541 11.7433 18.8087 12.539 18.5066 13.2745C18.2045 14.0099 17.8017 14.661 17.287 15.2156C16.7723 15.7582 16.1682 16.2043 15.4745 16.5177C14.7808 16.8433 14.0423 17 13.2591 17C12.5542 17 11.8717 16.8674 11.2228 16.6021C10.5738 16.3369 9.98084 15.9511 9.45497 15.4447C8.92911 15.9511 8.35848 16.3369 7.70954 16.6021C7.0606 16.8674 6.3781 17 5.67321 17C4.87882 17 4.15155 16.8433 3.45786 16.5177C2.77535 16.1922 2.17117 15.7582 1.65649 15.2156C1.14181 14.661 0.72783 14.0099 0.436926 13.2745C0.134832 12.539 -0.0106201 11.7433 -0.0106201 10.8993V2.26667C0.000568526 1.38652 0.660698 0.687234 1.46628 0.687234H3.79352V10.9113C3.79352 11.1887 3.83827 11.4539 3.93897 11.695C4.02848 11.9362 4.16274 12.1532 4.34176 12.3461C4.52078 12.539 4.71099 12.6837 4.94595 12.7801C5.16972 12.8766 5.41587 12.9369 5.67321 12.9369C5.93055 12.9369 6.1767 12.8887 6.41166 12.7801C6.63543 12.6837 6.84802 12.539 7.01585 12.3461C7.19487 12.1532 7.32913 11.9482 7.42983 11.695C7.53053 11.4418 7.57528 11.1887 7.57528 10.9113V0.675177H11.357V10.8993C11.357 11.1766 11.4018 11.4418 11.5025 11.683C11.6032 11.9241 11.7375 12.1411 11.9165 12.334C12.0955 12.5269 12.2857 12.6716 12.5207 12.7681C12.7444 12.8645 12.9906 12.9248 13.2479 12.9248C13.5053 12.9248 13.7514 12.8766 13.9864 12.7681C14.2101 12.6716 14.4227 12.5269 14.5906 12.334C14.7696 12.1411 14.9038 11.9362 15.0045 11.683C15.1052 11.4298 15.15 11.1766 15.15 10.8993V0.675177H18.9318V10.8993H18.9429H18.9541ZM31.3735 4.36454C31.3735 4.36454 29.4826 3.79787 28.0057 4.36454C26.6743 4.88298 25.8687 6.17305 25.6785 6.7156C25.4771 7.2461 25.3876 7.84894 25.3876 8.52411C25.3876 8.68085 25.3876 8.84964 25.41 9.0305C25.4212 9.2234 25.4547 9.41631 25.4771 9.60922C25.5107 9.80213 25.5442 9.99503 25.6002 10.1759C25.6337 10.2965 25.6673 10.3929 25.7121 10.5014C25.7121 10.5014 27.368 9.52482 29.1246 7.65603C30.8365 5.83546 31.3735 4.36454 31.3735 4.36454ZM28.5092 12.8404C28.5092 12.8404 29.5162 12.9248 30.6575 12.9369C31.7875 12.9369 32.4476 12.961 33.2197 12.8766C34.0029 12.7922 35.3343 12.5993 35.3343 12.5993C35.3343 12.5993 35.1777 13.8652 34.1371 14.9624C33.7008 15.4206 33.1861 15.7582 32.649 16.0475C32.1232 16.3489 31.5637 16.578 30.9707 16.7227C30.3777 16.8794 29.7735 16.9518 29.1582 16.9518C28.1064 16.9518 27.1218 16.7348 26.2044 16.3248C25.2757 15.9028 24.4701 15.3241 23.7876 14.5766C23.1051 13.8291 22.5569 12.9369 22.1541 11.9C21.7513 10.8752 21.5499 9.72979 21.5499 8.48794C21.5499 7.2461 21.7513 6.06454 22.1541 5.0156C22.5457 3.96667 23.0939 3.07447 23.7876 2.33901C24.4813 1.60355 25.2869 1.02482 26.2044 0.614894C27.133 0.204965 28.1064 0 29.1582 0C29.7847 0 31.4407 0 32.9064 0.602837C34.3721 1.20567 35.614 2.30284 35.614 2.30284C35.614 2.30284 35.614 5.4617 33.0071 8.7773C30.7917 11.5986 28.5092 12.8163 28.5092 12.8163" fill="#CFD1D7"/>
  </g>
  <defs>
    <clipPath id="clip0_285_41">
      <rect width="93" height="17" fill="white"/>
    </clipPath>
  </defs>
</svg>